<svg width="258" height="83" viewBox="0 0 258 83" fill="none" xmlns="http://www.w3.org/2000/svg">
<path d="M117.888 35.6875C114.699 35.6875 112.148 38.2704 112.148 41.4272C112.148 44.6159 114.731 47.1669 117.888 47.1669C121.077 47.1669 123.628 44.5841 123.628 41.4272C123.66 38.2385 121.077 35.6875 117.888 35.6875ZM117.888 44.8392C116.007 44.8392 114.476 43.3086 114.476 41.4272C114.476 39.5459 116.007 38.0153 117.888 38.0153C119.77 38.0153 121.3 39.5459 121.3 41.4272C121.3 43.3086 119.77 44.8392 117.888 44.8392Z" fill="white"/>
<path d="M125.796 35.8789H127.295C127.55 35.8789 127.773 36.0065 127.901 36.1978L132.875 42.7347V36.2616C132.875 36.0383 133.035 35.8789 133.258 35.8789H134.916C135.139 35.8789 135.299 36.0383 135.299 36.2616V46.6249C135.299 46.8481 135.139 47.0076 134.916 47.0076H133.609C133.354 47.0076 133.13 46.88 133.003 46.7206L127.837 39.9286V46.6249C127.837 46.8481 127.678 47.0076 127.454 47.0076H125.796C125.573 47.0076 125.414 46.8481 125.414 46.6249V36.2616C125.414 36.0383 125.605 35.8789 125.796 35.8789Z" fill="white"/>
<path d="M137.946 35.8789H145.631C145.854 35.8789 146.013 36.0383 146.013 36.2616V37.6965C146.013 37.9197 145.854 38.0791 145.631 38.0791H139.987V40.4388H144.419C144.642 40.4388 144.802 40.5982 144.802 40.8214V42.2883C144.802 42.5115 144.642 42.6709 144.419 42.6709H139.987V46.593C139.987 46.8163 139.827 46.9757 139.604 46.9757H137.914C137.691 46.9757 137.531 46.8163 137.531 46.593V36.2616C137.563 36.0383 137.754 35.8789 137.946 35.8789Z" fill="white"/>
<path d="M148.086 35.8789H149.776C149.999 35.8789 150.158 36.0383 150.158 36.2616V46.6249C150.158 46.8481 149.999 47.0076 149.776 47.0076H148.086C147.863 47.0076 147.703 46.8481 147.703 46.6249V36.2616C147.703 36.0383 147.894 35.8789 148.086 35.8789Z" fill="white"/>
<path d="M152.55 36.2616C152.55 36.0383 152.71 35.8789 152.933 35.8789H156.887C160.395 35.8789 162.786 38.2705 162.786 41.3954V41.4273C162.786 44.5523 160.363 46.9757 156.887 46.9757H152.933C152.71 46.9757 152.55 46.8163 152.55 46.593V36.2616V36.2616ZM154.974 38.0791V44.7755H156.855C158.864 44.7755 160.203 43.4362 160.203 41.4592V41.4273C160.203 39.4503 158.864 38.0791 156.855 38.0791H154.974V38.0791Z" fill="white"/>
<path d="M168.079 35.7832H169.323C169.642 35.7832 169.897 35.9745 170.024 36.2615L174.361 46.4654C174.457 46.7205 174.297 47.0075 174.01 47.0075H172.543C172.225 47.0075 171.938 46.8162 171.842 46.5292L171.013 44.5203H166.325L165.496 46.5292C165.369 46.8162 165.082 47.0075 164.795 47.0075H163.392C163.105 47.0075 162.945 46.7205 163.041 46.4654L167.378 36.2615C167.505 35.9745 167.792 35.7832 168.079 35.7832ZM170.152 42.3201L168.685 38.7168L167.218 42.3201H170.152Z" fill="white"/>
<path d="M175.254 45.0624L176.211 43.9144C176.338 43.755 176.561 43.7231 176.753 43.8506C177.677 44.5522 178.634 44.9667 179.782 44.9667C180.77 44.9667 181.376 44.5841 181.376 43.9144V43.8825C181.376 43.2767 180.994 42.9578 179.144 42.4795C176.912 41.9055 175.445 41.0765 175.445 39.0676V39.0357C175.445 37.0268 177.072 35.6875 179.336 35.6875C180.802 35.6875 182.11 36.102 183.162 36.8673C183.321 36.9949 183.385 37.2181 183.258 37.4094L182.397 38.653C182.269 38.8125 182.046 38.8762 181.887 38.7487C180.994 38.1747 180.133 37.8558 179.304 37.8558C178.379 37.8558 177.869 38.2704 177.869 38.8125V38.8443C177.869 39.5778 178.347 39.801 180.26 40.3112C182.524 40.8851 183.8 41.8736 183.8 43.6593V43.6912C183.8 45.8914 182.11 47.135 179.718 47.135C178.156 47.135 176.593 46.6248 175.318 45.6045C175.126 45.4769 175.095 45.2537 175.254 45.0624Z" fill="white"/>
<path d="M106.919 44.838C104.974 44.838 103.38 43.1798 103.507 41.2028C103.603 39.5447 104.942 38.1735 106.6 38.0141C107.653 37.9184 108.609 38.3011 109.279 38.9707C109.438 39.1301 109.661 39.0983 109.821 38.9707L110.937 37.8547C111.096 37.6952 111.096 37.472 110.937 37.3126C109.757 36.1646 108.099 35.5269 106.313 35.6863C103.571 35.9733 101.403 38.2054 101.179 40.9796C100.924 44.3597 103.603 47.1658 106.919 47.1658C108.482 47.1658 109.917 46.528 110.937 45.5076C111.096 45.3482 111.096 45.125 110.937 44.9655L109.821 43.8495C109.661 43.69 109.438 43.69 109.279 43.8495C108.673 44.4872 107.844 44.838 106.919 44.838Z" fill="white"/>
<path d="M81.9514 41.4271C81.9514 39.7371 83.1631 38.3022 84.7894 38.0152V31C82.3341 31.1594 79.9425 32.1798 78.0612 34.0293C73.9796 38.1109 73.9796 44.7115 78.0612 48.7931C79.9425 50.6745 82.3341 51.6949 84.7894 51.8224V44.8072C83.1631 44.5521 81.9514 43.1491 81.9514 41.4271Z" fill="white"/>
<path d="M88.839 40.7894H95.8861C95.7266 38.3341 94.7063 35.9106 92.8249 34.0293C90.9754 32.1798 88.552 31.1594 86.0967 31V38.0152C87.4997 38.3022 88.5839 39.3864 88.839 40.7894Z" fill="white"/>
<path d="M86.0967 44.84V51.8552C88.552 51.6957 90.9436 50.6753 92.8249 48.8259C94.7063 46.9445 95.7266 44.553 95.8542 42.0977H88.839C88.5839 43.4688 87.4997 44.5849 86.0967 44.84Z" fill="white"/>
</svg>
