<svg width="258" height="83" viewBox="0 0 258 83" fill="none" xmlns="http://www.w3.org/2000/svg">
<path d="M94.6037 45.203C94.6037 45.609 94.6772 45.9907 94.8241 46.348C94.971 46.6891 95.1669 46.9896 95.4118 47.2494C95.673 47.5093 95.975 47.7123 96.3179 47.8585C96.677 48.0046 97.0607 48.0777 97.4688 48.0777C97.8606 48.0777 98.2279 48.0046 98.5708 47.8585C98.9299 47.7123 99.2319 47.5093 99.4768 47.2494C99.738 46.9896 99.9421 46.6891 100.089 46.348C100.252 46.007 100.334 45.6415 100.334 45.2517C100.334 44.8619 100.252 44.4965 100.089 44.1555C99.9421 43.7981 99.738 43.4896 99.4768 43.2297C99.2319 42.9698 98.9299 42.7668 98.5708 42.6206C98.2279 42.4745 97.8606 42.4014 97.4688 42.4014C97.077 42.4014 96.7015 42.4745 96.3424 42.6206C95.9995 42.7668 95.6975 42.9698 95.4363 43.2297C95.1914 43.4896 94.9874 43.79 94.8241 44.1311C94.6772 44.4559 94.6037 44.8132 94.6037 45.203ZM100.187 31.268H104.644V51.4884H100.187V50.0998C99.2401 51.2854 97.9586 51.8782 96.3424 51.8782C95.4281 51.8782 94.5874 51.7077 93.8201 51.3666C93.0528 51.0255 92.3835 50.5545 91.8121 49.9536C91.2407 49.3527 90.7918 48.6462 90.4653 47.8341C90.1551 47.022 90 46.145 90 45.203C90 44.3097 90.1469 43.4652 90.4408 42.6694C90.751 41.8573 91.1836 41.1508 91.7386 40.5499C92.2937 39.949 92.9549 39.478 93.7222 39.1369C94.5058 38.7796 95.3628 38.6009 96.2934 38.6009C97.8606 38.6009 99.1585 39.145 100.187 40.2332V31.268Z" fill="white"/>
<path d="M112.092 38.9907V51.4884H107.66V38.9907H112.092ZM107.366 34.1914C107.366 33.8503 107.431 33.5336 107.562 33.2413C107.693 32.9327 107.872 32.6647 108.101 32.4374C108.329 32.21 108.591 32.0313 108.884 31.9014C109.195 31.7715 109.521 31.7065 109.864 31.7065C110.207 31.7065 110.525 31.7715 110.819 31.9014C111.129 32.0313 111.398 32.21 111.627 32.4374C111.856 32.6647 112.035 32.9327 112.166 33.2413C112.296 33.5336 112.362 33.8503 112.362 34.1914C112.362 34.5325 112.296 34.8573 112.166 35.1659C112.035 35.4582 111.856 35.7181 111.627 35.9455C111.398 36.1729 111.129 36.3515 110.819 36.4814C110.525 36.6114 110.207 36.6763 109.864 36.6763C109.521 36.6763 109.195 36.6114 108.884 36.4814C108.591 36.3515 108.329 36.1729 108.101 35.9455C107.872 35.7181 107.693 35.4582 107.562 35.1659C107.431 34.8573 107.366 34.5325 107.366 34.1914Z" fill="white"/>
<path d="M119.921 42.6694V51.4884H115.488V42.6694H113.897V38.9907H115.488V37.1148C115.488 36.0754 115.586 35.2471 115.782 34.6299C115.946 34.1102 116.207 33.6311 116.566 33.1926C116.925 32.7378 117.341 32.348 117.815 32.0232C118.305 31.6984 118.827 31.4466 119.382 31.268C119.937 31.0893 120.484 31 121.023 31C121.398 31 121.741 31.0406 122.051 31.1218C122.378 31.203 122.704 31.3167 123.031 31.4629V35.3121C122.737 35.1659 122.459 35.0603 122.198 34.9954C121.953 34.9142 121.692 34.8735 121.414 34.8735C121.235 34.8735 121.047 34.906 120.851 34.971C120.672 35.0197 120.5 35.1334 120.337 35.3121C120.174 35.4907 120.059 35.7506 119.994 36.0916C119.945 36.4165 119.921 36.8631 119.921 37.4316V38.9907H123.031V42.6694H119.921Z" fill="white"/>
<path d="M124.687 38.9907H129.119V41.0371C129.592 40.29 130.172 39.7216 130.858 39.3318C131.543 38.9258 132.343 38.7227 133.257 38.7227C133.372 38.7227 133.494 38.7227 133.625 38.7227C133.772 38.7227 133.935 38.739 134.115 38.7715V42.9861C133.527 42.6937 132.89 42.5476 132.204 42.5476C131.176 42.5476 130.401 42.8561 129.878 43.4733C129.372 44.0742 129.119 44.9594 129.119 46.1288V51.4884H124.687V38.9907Z" fill="white"/>
<path d="M136.094 38.9907H140.526V40.5742C141.13 39.8434 141.742 39.3561 142.363 39.1125C142.983 38.8527 143.709 38.7227 144.542 38.7227C145.424 38.7227 146.174 38.8689 146.795 39.1613C147.432 39.4374 147.97 39.8353 148.411 40.355C148.77 40.7773 149.015 41.2483 149.146 41.768C149.276 42.2877 149.342 42.8805 149.342 43.5464V51.4884H144.909V45.1787C144.909 44.5615 144.86 44.0661 144.762 43.6926C144.681 43.3028 144.526 42.9942 144.297 42.7668C144.101 42.5719 143.881 42.4339 143.636 42.3527C143.391 42.2715 143.13 42.2309 142.852 42.2309C142.101 42.2309 141.522 42.4582 141.114 42.913C140.722 43.3515 140.526 43.9849 140.526 44.8132V51.4884H136.094V38.9907Z" fill="white"/>
<path d="M157.302 42.6694V51.4884H152.869V42.6694H151.4V38.9907H152.869V35.239H157.302V38.9907H159.824V42.6694H157.302Z" fill="white"/>
<path d="M161.27 49.1497C161.27 48.7599 161.343 48.3944 161.49 48.0534C161.637 47.6961 161.841 47.3875 162.102 47.1276C162.364 46.8677 162.666 46.6647 163.008 46.5186C163.368 46.3724 163.743 46.2993 164.135 46.2993C164.527 46.2993 164.894 46.3724 165.237 46.5186C165.596 46.6647 165.906 46.8677 166.167 47.1276C166.429 47.3875 166.633 47.6961 166.78 48.0534C166.927 48.3944 167 48.7599 167 49.1497C167 49.5394 166.927 49.913 166.78 50.2703C166.633 50.6114 166.429 50.9118 166.167 51.1717C165.906 51.4316 165.596 51.6346 165.237 51.7807C164.894 51.9269 164.527 52 164.135 52C163.743 52 163.368 51.9269 163.008 51.7807C162.666 51.6346 162.364 51.4316 162.102 51.1717C161.841 50.9118 161.637 50.6114 161.49 50.2703C161.343 49.913 161.27 49.5394 161.27 49.1497Z" fill="white"/>
</svg>
