<svg width="138" height="139" viewBox="0 0 138 139" fill="none" xmlns="http://www.w3.org/2000/svg">
<circle cx="68.8657" cy="69.4209" r="53.126" stroke="white" stroke-width="1.83193" stroke-dasharray="4.58 4.58"/>
<path d="M44.5998 62.1H47.3998C47.3998 71.9 47.3998 83 47.3998 93.6C47.3998 94 47.6998 94.4 48.1998 94.4H56.5998C56.9998 94.4 57.3998 94.1 57.3998 93.6V90C57.3998 89.3 57.6998 88.5 58.1998 88C58.6998 87.5 59.3998 87.2 60.1998 87.2C61.6998 87.2 62.9998 88.5 62.9998 90V93.6C62.9998 94 63.2998 94.4 63.7998 94.4C69.4998 94.4 74.2998 94.4 79.7998 94.4V97.2C79.7998 99.5 81.6998 101.5 84.0998 101.5C86.4998 101.5 88.3998 99.6 88.3998 97.2V94.4H95.9998C96.3998 94.4 96.7998 94.1 96.7998 93.6V85.2C96.7998 84.8 96.4998 84.4 95.9998 84.4H92.3998C90.8998 84.4 89.5998 83.1 89.5998 81.6C89.5998 80 90.8998 78.8 92.3998 78.8H95.9998C96.3998 78.8 96.7998 78.5 96.7998 78V69.6C96.7998 69.2 96.4998 68.8 95.9998 68.8H72.7998V61.2C72.7998 60.8 72.4998 60.4 71.9998 60.4H68.3998C66.8998 60.4 65.5998 59.1 65.5998 57.6C65.5998 56 66.8998 54.8 68.3998 54.8H71.9998C72.3998 54.8 72.7998 54.5 72.7998 54V45.8C72.7998 45.4 72.4998 45 71.9998 45H64.3998V42.3C64.3998 39.9 62.4998 38 60.0998 38C57.6998 38 55.7998 39.9 55.7998 42.3V45.1H48.1998C47.7998 45.1 47.3998 45.4 47.3998 45.9V53.5H44.5998C42.2998 53.5 40.2998 55.4 40.2998 57.8C40.2998 60.1 42.1998 62.1 44.5998 62.1ZM71.2998 85.2V92.8H64.3998V90C64.3998 87.6 62.4998 85.7 60.0998 85.7C58.8998 85.7 57.8998 86.1 57.0998 87C56.2998 87.8 55.7998 88.9 55.7998 90V92.8H48.8998V70.5H55.7998V73.3C55.7998 75.6 57.7998 77.6 60.0998 77.6C62.4998 77.6 64.3998 75.7 64.3998 73.3V70.5H71.2998V78.1C71.2998 78.5 71.5998 78.9 72.0998 78.9H75.6998C77.1998 78.9 78.4998 80.1 78.4998 81.7C78.4998 83.2 77.1998 84.5 75.6998 84.5H71.9998C71.5998 84.5 71.2998 84.8 71.2998 85.2ZM95.1998 77.3H92.3998C90.0998 77.3 88.0998 79.2 88.0998 81.6C88.0998 84 89.9998 85.9 92.3998 85.9H95.1998V92.8H87.5998C87.1998 92.8 86.7998 93.1 86.7998 93.6V97.2C86.7998 98.7 85.4998 100 83.9998 100C82.3998 100 81.1998 98.7 81.1998 97.2V93.6C81.1998 93.2 80.8998 92.8 80.3998 92.8H72.7998V85.9H75.5998C77.9998 85.9 79.8998 84 79.8998 81.6C79.8998 79.2 77.8998 77.3 75.5998 77.3H72.7998V70.4H95.1998V77.3ZM44.5998 55H48.1998C48.5998 55 48.9998 54.7 48.9998 54.2V46.6H56.5998C56.9998 46.6 57.3998 46.3 57.3998 45.8V42.3C57.3998 40.8 58.6998 39.5 60.1998 39.5C61.7998 39.5 62.9998 40.8 62.9998 42.3V45.9C62.9998 46.3 63.2998 46.7 63.7998 46.7H71.3998V53.6H68.5998C66.2998 53.6 64.2998 55.5 64.2998 57.9C64.2998 60.3 66.1998 62.2 68.5998 62.2H71.3998V69.1H63.7998C63.3998 69.1 62.9998 69.4 62.9998 69.9V73.5C62.9998 75 61.7998 76.3 60.1998 76.3C58.6998 76.3 57.3998 75 57.3998 73.5V69.9C57.3998 69.5 57.0998 69.1 56.5998 69.1H48.9998V61.5C48.9998 61.1 48.6998 60.7 48.1998 60.7H44.5998C43.0998 60.7 41.7998 59.4 41.7998 57.9C41.7998 56.2 43.0998 55 44.5998 55Z" fill="white" stroke="white" stroke-width="0.3"/>
<circle cx="68.8654" cy="69.4201" r="67.3235" stroke="white" stroke-width="2.7479"/>
</svg>
