<svg width="258" height="83" viewBox="0 0 258 83" fill="none" xmlns="http://www.w3.org/2000/svg">
<path d="M104.633 32.9517L111.84 25.7441C116.833 20.752 125.001 20.752 129.993 25.7441C132.015 27.7661 133.218 30.3094 133.602 32.9517H104.633Z" fill="white"/>
<path fill-rule="evenodd" clip-rule="evenodd" d="M104 35.3281H132.866H141.417C148.477 35.3281 154.253 41.104 154.253 48.1638C154.253 55.2236 148.477 60.9995 141.417 60.9995H118.523L104 35.3281ZM122.365 46.9298H120.715V44.9295H122.365V43.496C122.365 43.0516 122.404 42.6318 122.482 42.2373C122.559 41.8427 122.709 41.4956 122.931 41.1954C123.154 40.8951 123.473 40.6591 123.89 40.4867C124.307 40.3144 124.854 40.2285 125.532 40.2285C125.788 40.2285 126.037 40.2399 126.282 40.2621C126.526 40.2844 126.765 40.3234 126.999 40.3786L126.882 42.4955C126.738 42.4403 126.604 42.3982 126.482 42.3706C126.36 42.343 126.221 42.3292 126.066 42.3292C125.666 42.3292 125.365 42.415 125.165 42.5874C124.965 42.7597 124.865 43.1129 124.865 43.6455V44.9289H126.715V46.9292H124.865V53.03H122.365V46.9298ZM130.949 40.4258H128.449V53.0273H130.949V40.4258ZM132.667 42.378C132.667 41.9781 132.808 41.6364 133.092 41.3529C133.375 41.0695 133.717 40.9277 134.117 40.9277C134.517 40.9277 134.858 41.0695 135.142 41.3529C135.425 41.6364 135.567 41.9781 135.567 42.378C135.567 42.778 135.425 43.1197 135.142 43.4031C134.858 43.6866 134.517 43.8283 134.117 43.8283C133.717 43.8283 133.375 43.6866 133.092 43.4031C132.808 43.1197 132.667 42.778 132.667 42.378ZM132.866 44.9285H135.366V53.0296H132.866V44.9285ZM139.783 44.9259H137.484V56.8266H139.984V52.1593H140.017C140.306 52.5484 140.675 52.8235 141.126 52.9844C141.576 53.146 142.062 53.2264 142.584 53.2264C143.162 53.2264 143.678 53.1069 144.134 52.8679C144.589 52.6289 144.976 52.3094 145.293 51.9095C145.609 51.5095 145.854 51.0513 146.026 50.5343C146.198 50.0178 146.284 49.4761 146.284 48.9092C146.284 48.2985 146.189 47.737 146.001 47.226C145.812 46.7155 145.542 46.2735 145.192 45.9012C144.842 45.5295 144.423 45.2406 143.934 45.0346C143.445 44.8293 142.9 44.7266 142.3 44.7266C142.011 44.7266 141.739 44.7656 141.484 44.8431C141.228 44.9205 140.992 45.0208 140.775 45.1427C140.558 45.2652 140.369 45.401 140.208 45.5511C140.047 45.7012 139.917 45.8489 139.816 45.9931H139.783V44.9259ZM140.308 50.4598C139.958 50.0821 139.783 49.5878 139.783 48.9765C139.783 48.3652 139.959 47.8709 140.308 47.4932C140.658 47.1155 141.15 46.9263 141.784 46.9263C142.417 46.9263 142.909 47.1155 143.259 47.4932C143.609 47.8709 143.784 48.3652 143.784 48.9765C143.784 49.5878 143.609 50.0821 143.259 50.4598C142.909 50.8381 142.417 51.0267 141.784 51.0267C141.15 51.0267 140.658 50.8375 140.308 50.4598Z" fill="white"/>
</svg>
