<svg width="258" height="83" viewBox="0 0 258 83" fill="none" xmlns="http://www.w3.org/2000/svg">
<g clip-path="url(#clip0)">
<path d="M121.064 63.111C123.615 61.5232 126.104 59.913 128.818 58.5838C131.664 57.2019 134.599 56.0091 137.603 55.0135C140.653 53.9912 143.813 52.9689 147.033 52.6723C150.183 52.3609 153.349 53.088 156.04 54.7411C158.868 56.4496 161 58.8597 163.421 61.0439C163.475 61.0909 163.545 61.1156 163.617 61.1132C163.689 61.1108 163.757 61.0815 163.808 61.0311C163.859 60.9807 163.888 60.913 163.891 60.8418C163.893 60.7706 163.868 60.7011 163.821 60.6474C160.045 56.2996 154.862 52.062 148.804 52.0276C145.462 52.0103 142.179 52.9913 139.025 53.9912C135.97 54.9495 132.979 56.0964 130.068 57.4253C126.872 58.8976 123.57 60.5888 120.897 62.8972C120.779 62.9989 120.932 63.1937 121.071 63.111H121.064Z" fill="#333333"/>
<path d="M107.253 43.556C109.278 42.7233 111.116 44.8266 112.25 46.2023C113.513 47.7349 114.387 49.4158 115.399 51.1139C116.518 52.9896 117.739 54.8015 118.939 56.6306C119.491 57.4754 120.04 58.3236 120.564 59.1873C121.139 60.1337 121.606 61.1854 122.277 62.0629C122.414 62.2353 122.748 62.1508 122.673 61.8905C122.35 60.813 121.671 59.832 121.087 58.877C120.464 57.8564 119.808 56.8582 119.145 55.8617C117.746 53.7516 116.344 51.6449 115.1 49.4399C114.147 47.7522 113.094 46.1851 111.744 44.7731C110.553 43.5302 108.855 42.4492 107.118 43.2319C106.944 43.3129 107.067 43.6284 107.253 43.5526V43.556Z" fill="#333333"/>
<path d="M107.106 43.4457C108.917 47.6471 110.642 51.8932 112.319 56.148C113.116 58.1823 113.892 60.224 114.645 62.2733C115.255 63.9248 115.771 65.654 116.629 67.2021C117.387 68.5675 118.466 69.7053 119.942 70.3052C121.586 70.9655 123.417 70.9173 125.155 70.7035C129.052 70.2225 132.887 69.1864 136.67 68.1779C141.279 66.9504 145.881 65.7919 150.53 64.7627C150.878 64.6885 150.718 64.2093 150.389 64.2541C146.437 64.8006 142.537 65.9988 138.699 67.0435C134.933 68.0693 131.161 69.1123 127.315 69.8018C125.463 70.138 123.52 70.4725 121.636 70.1794C119.709 69.8794 118.221 68.8002 117.244 67.1452C116.299 65.5402 115.769 63.6973 115.128 61.9733C114.411 60.0309 113.669 58.0961 112.903 56.1687C111.183 51.826 109.308 47.5591 107.316 43.3337C107.252 43.1975 107.057 43.3164 107.114 43.4509L107.106 43.4457Z" fill="#333333"/>
<path d="M98.5155 42.7448C100.554 41.9293 101.842 43.4861 103.013 44.8704C104.136 46.1979 105.251 47.5311 106.358 48.87C107.466 50.209 108.567 51.5543 109.66 52.9059C110.58 54.0489 111.433 55.2729 112.453 56.3279C112.493 56.3602 112.542 56.3781 112.594 56.3787C112.645 56.3794 112.695 56.3627 112.735 56.3314C112.776 56.3001 112.804 56.2561 112.816 56.2066C112.828 56.1571 112.823 56.105 112.801 56.059C112.014 54.7022 110.915 53.5024 109.93 52.287C108.665 50.7273 107.386 49.1758 106.093 47.6322C104.895 46.2065 103.703 44.7704 102.466 43.3775C101.423 42.1965 99.838 41.6397 98.3712 42.4086C98.1974 42.5017 98.3191 42.8137 98.512 42.7379L98.5155 42.7448Z" fill="#333333"/>
<path d="M98.3188 42.651C101.291 48.8125 104.551 54.8688 107.721 60.9251C108.485 62.3893 109.257 63.849 110.036 65.304C110.703 66.5487 111.318 67.89 112.237 68.9761C114.073 71.1466 116.997 70.9742 119.495 70.1432C119.56 70.1206 119.613 70.0744 119.645 70.014C119.677 69.9536 119.684 69.8835 119.666 69.8178C119.648 69.7521 119.605 69.6958 119.546 69.6602C119.488 69.6246 119.418 69.6124 119.351 69.626C117.844 69.8984 116.328 70.3828 114.794 69.9708C113.315 69.5743 112.434 68.3727 111.714 67.1176C110.218 64.5127 108.864 61.8147 107.479 59.1494C104.582 53.5793 101.866 47.8488 98.616 42.4717C98.5896 42.4405 98.5528 42.4196 98.5123 42.4127C98.4718 42.4057 98.4302 42.4133 98.3948 42.434C98.3593 42.4546 98.3324 42.4871 98.3189 42.5256C98.3053 42.564 98.3059 42.606 98.3205 42.6441L98.3188 42.651Z" fill="#333333"/>
<path d="M105.213 54.9886C103.385 53.156 101.238 51.5407 99.0852 50.0994C98.1087 49.4182 97.0366 48.8832 95.9031 48.5117C94.452 48.0617 93.2476 48.2996 92.0937 49.2857C92.0336 49.3472 92 49.4294 92 49.515C92 49.6006 92.0336 49.6829 92.0937 49.7443C95.3922 53.0773 98.7329 56.3735 102.116 59.633C103.766 61.2225 105.425 62.8028 107.093 64.3739C108.831 66.01 110.531 67.765 112.396 69.2614C112.693 69.4993 113.091 69.1235 112.823 68.8356C111.214 67.1444 109.386 65.6238 107.684 64.024C105.983 62.4241 104.28 60.7984 102.582 59.171C99.1975 55.9161 95.855 52.621 92.5542 49.2857V49.7443C94.7335 47.8583 97.5211 49.7339 99.471 51.0873C101.358 52.3913 103.171 53.7974 104.902 55.2989C105.112 55.4834 105.414 55.192 105.213 54.9886V54.9886Z" fill="#333333"/>
<path d="M100.617 57.4941C99.8536 57.1264 98.9957 56.9982 98.1573 57.1266C97.3189 57.2551 96.54 57.634 95.9244 58.213C95.8917 58.2465 95.8671 58.2868 95.8523 58.3311C95.8375 58.3753 95.833 58.4222 95.839 58.4684C95.845 58.5146 95.8614 58.5589 95.887 58.5979C95.9126 58.637 95.9468 58.6698 95.9869 58.694C98.8214 60.7628 101.736 62.7264 104.69 64.6245C107.645 66.5226 110.55 68.5775 113.684 70.117C113.71 70.1324 113.74 70.1425 113.77 70.1466C113.801 70.1506 113.832 70.1487 113.862 70.1409C113.892 70.133 113.92 70.1194 113.944 70.1008C113.969 70.0823 113.99 70.0591 114.005 70.0326C114.021 70.0061 114.031 69.9768 114.035 69.9465C114.039 69.9161 114.037 69.8852 114.029 69.8556C114.021 69.826 114.008 69.7982 113.989 69.7739C113.97 69.7495 113.947 69.729 113.92 69.7136C111.126 67.6138 107.964 65.9537 105.015 64.0711C102.066 62.1885 99.1307 60.2352 96.2858 58.1665L96.3484 58.6475C96.8826 58.1494 97.5528 57.8185 98.2753 57.6959C98.9979 57.5732 99.7409 57.6643 100.412 57.9579C100.679 58.0682 100.872 57.6131 100.61 57.4907L100.617 57.4941Z" fill="#333333"/>
<path d="M99.1372 60.6548C99.6585 60.16 99.7628 59.4963 99.311 58.9308C98.8921 58.4136 98.0684 57.6844 97.368 57.6758C97.3245 57.6766 97.2821 57.6899 97.2461 57.7142C97.2101 57.7385 97.182 57.7726 97.1652 57.8125C97.1485 57.8523 97.1438 57.8962 97.1517 57.9386C97.1596 57.9811 97.1798 58.0203 97.2099 58.0516C97.5731 58.4067 98.124 58.5688 98.522 58.905C98.7192 59.0495 98.8877 59.2289 99.019 59.4342C99.1928 59.7928 98.953 60.1428 98.8313 60.4686C98.7653 60.6496 99.0138 60.7669 99.1407 60.641L99.1372 60.6548Z" fill="#333333"/>
<path d="M95.0256 52.3297C95.8164 52.4349 95.8633 51.4005 95.6078 50.9057C95.2151 50.1506 94.2992 49.1662 93.4824 48.8835C93.2652 48.8094 93.1626 49.0852 93.2791 49.2283C93.7448 49.8041 96.1031 51.2057 94.9526 52.0642C94.927 52.0811 94.9073 52.1055 94.8965 52.134C94.8856 52.1626 94.8841 52.1938 94.8922 52.2232C94.9003 52.2527 94.9176 52.2788 94.9415 52.2979C94.9655 52.3171 94.9949 52.3282 95.0256 52.3297V52.3297Z" fill="#333333"/>
<path d="M100.191 45.7989C100.771 46.1248 101.225 45.4541 101.22 44.9283C101.22 44.5249 100.995 44.1456 100.825 43.7905C100.58 43.2836 100.368 42.7561 100.003 42.3182C99.8727 42.1596 99.6433 42.3337 99.6815 42.5044C99.8431 43.2319 101.315 45.0748 100.227 45.5196C100.199 45.5285 100.173 45.5453 100.154 45.568C100.135 45.5907 100.123 45.6183 100.119 45.6477C100.115 45.6771 100.12 45.7069 100.133 45.7337C100.145 45.7605 100.165 45.7831 100.191 45.7989V45.7989Z" fill="#333333"/>
<path d="M108.677 46.7174C109.353 46.8467 109.785 46.3071 109.772 45.6641C109.763 45.2606 109.575 44.8814 109.424 44.5124C109.25 44.078 109.125 43.6263 108.831 43.2591C108.799 43.2292 108.76 43.209 108.716 43.2011C108.673 43.1931 108.629 43.1977 108.588 43.2143C108.548 43.2309 108.513 43.2587 108.488 43.2945C108.463 43.3303 108.449 43.3725 108.447 43.416C108.489 43.8608 108.696 44.2538 108.866 44.6659C109.005 45.0107 109.648 46.2502 108.734 46.2606C108.479 46.2606 108.404 46.6674 108.671 46.7174H108.677Z" fill="#333333"/>
<path d="M115.367 50.533C116.396 49.9107 117.307 49.0487 118.235 48.2919L121.278 45.8042C122.29 44.9767 123.304 44.1469 124.317 43.3148C125.289 42.5183 126.417 41.277 127.81 41.5236C128.97 41.727 129.925 42.6872 130.787 43.4079C131.78 44.2377 132.76 45.0818 133.728 45.9404C134.616 46.7265 135.494 47.5241 136.359 48.3333C137.228 49.147 138.052 50.0865 139.028 50.7744C139.214 50.9054 139.484 50.6434 139.348 50.4589C138.578 49.4245 137.501 48.5625 136.55 47.6885C135.519 46.7392 134.473 45.8065 133.412 44.8905C132.369 43.9854 131.31 43.082 130.224 42.2235C129.48 41.6373 128.639 41.0374 127.661 40.9529C126.742 40.8736 125.975 41.2977 125.27 41.8425C124.137 42.7045 123.057 43.6561 121.955 44.5629L118.53 47.3885C117.409 48.3143 116.141 49.197 115.162 50.271C115.039 50.4072 115.197 50.6365 115.365 50.533H115.367Z" fill="#333333"/>
<path d="M131.53 43.4593C133.259 41.2854 134.832 39.0046 136.629 36.8772C137.524 35.8141 138.446 34.7728 139.394 33.7533C140.263 32.819 141.53 31.0881 143.015 31.426C144.26 31.7087 144.927 33.2396 145.495 34.2309C146.191 35.4446 146.882 36.6628 147.569 37.8857C148.978 40.4182 150.349 42.9783 151.628 45.5746C153.079 48.5088 154.411 51.4971 155.625 54.5393C155.78 54.9289 156.421 54.7634 156.267 54.3669C153.973 48.4606 151.029 42.8232 147.918 37.3065C147.153 35.9491 146.377 34.5987 145.588 33.2551C145.066 32.3759 144.465 31.3587 143.457 30.9777C142.449 30.5967 141.474 31.0122 140.69 31.6535C139.543 32.5897 138.572 33.7999 137.597 34.9067C135.313 37.4926 132.976 40.251 131.222 43.2249C131.115 43.4093 131.396 43.6369 131.53 43.4593V43.4593Z" fill="#333333"/>
<path d="M104.547 45.5202C106.869 39.6139 108.939 33.6248 111.499 27.815C112.116 26.4135 112.729 25.005 113.402 23.6292C113.777 22.8621 114.377 21.9415 115.4 22.5173C116.095 22.9052 116.526 23.6637 116.964 24.2912C118.738 26.8312 120.431 29.4229 122.044 32.0664C122.92 33.5042 123.772 34.9563 124.601 36.4228C125.47 37.9744 126.236 39.626 127.207 41.1241C127.35 41.3431 127.765 41.2034 127.656 40.9362C127.037 39.4174 126.153 37.9848 125.348 36.5573C124.493 35.0437 123.612 33.5455 122.706 32.0629C120.894 29.1029 119.01 26.16 116.966 23.3586C116.393 22.5759 115.532 21.5708 114.425 21.8449C113.237 22.1397 112.787 23.7189 112.349 24.6757C110.902 27.8087 109.541 30.9843 108.266 34.2024C106.8 37.8899 105.361 41.6327 104.321 45.4651C104.317 45.4798 104.316 45.4951 104.318 45.5103C104.32 45.5254 104.325 45.5399 104.333 45.5532C104.348 45.5798 104.374 45.5993 104.404 45.6073C104.434 45.6153 104.466 45.6112 104.493 45.5958C104.52 45.5805 104.539 45.5551 104.547 45.5254V45.5202Z" fill="#333333"/>
<path d="M122.63 61.6687C123.952 59.1345 123.82 55.8606 122.364 53.4126C122.358 53.4022 122.35 53.3931 122.34 53.3858C122.33 53.3785 122.319 53.3732 122.307 53.3702C122.296 53.3671 122.283 53.3664 122.271 53.3681C122.259 53.3697 122.248 53.3737 122.237 53.3798C122.227 53.386 122.218 53.3941 122.21 53.4037C122.203 53.4133 122.197 53.4243 122.194 53.436C122.191 53.4477 122.191 53.4598 122.192 53.4718C122.194 53.4838 122.198 53.4953 122.204 53.5057C122.86 54.7458 123.226 56.1161 123.277 57.5155C123.327 58.9149 123.061 60.3077 122.496 61.5911C122.458 61.679 122.583 61.7635 122.63 61.6687Z" fill="#333333"/>
<path d="M123.049 60.352C123.327 59.62 123.669 58.9139 124.072 58.2418C124.507 57.5908 125.022 56.9956 125.603 56.4696C125.687 56.392 125.563 56.2713 125.478 56.3454C124.316 57.335 123.266 58.8159 122.958 60.3261C122.955 60.338 122.956 60.3507 122.962 60.3616C122.968 60.3724 122.979 60.3804 122.991 60.3838C123.003 60.3873 123.015 60.3858 123.026 60.3799C123.037 60.3739 123.045 60.3638 123.049 60.352V60.352Z" fill="#333333"/>
<path d="M121.929 52.9658C121.841 52.9197 121.744 52.8937 121.644 52.8899C121.594 52.8878 121.545 52.8994 121.501 52.9234C121.457 52.9475 121.421 52.983 121.396 53.0261C121.374 53.0869 121.375 53.1533 121.397 53.2138C121.42 53.2742 121.463 53.3249 121.519 53.3571C121.636 53.4166 121.768 53.44 121.898 53.4244C122.029 53.4197 122.157 53.3911 122.277 53.3399C122.398 53.2889 122.495 53.1956 122.551 53.0778C122.579 53.0187 122.59 52.9533 122.584 52.8885C122.577 52.8236 122.554 52.7617 122.515 52.7089C122.475 52.6588 122.418 52.6239 122.355 52.6101C122.291 52.5963 122.225 52.6044 122.167 52.6331C122.14 52.65 122.117 52.6724 122.098 52.6989C122.08 52.7254 122.068 52.7554 122.062 52.7869C122.057 52.8184 122.058 52.8508 122.065 52.8819C122.073 52.913 122.087 52.9421 122.107 52.9675" fill="#333333"/>
<path d="M121.975 52.9204C121.721 52.6894 121.147 52.817 121.297 53.2359C121.446 53.6548 122.129 53.5807 122.423 53.3945C122.717 53.2083 122.849 52.6739 122.44 52.5118C122.126 52.3877 121.735 52.7825 122.044 53.029C122.107 53.0773 122.218 53.029 122.188 52.9463C122.154 52.8308 122.173 52.7842 122.281 52.7584C122.427 52.7256 122.486 52.8584 122.454 52.9859C122.425 53.0617 122.377 53.1286 122.314 53.1802C122.251 53.2319 122.175 53.2665 122.095 53.2807C121.94 53.3393 121.768 53.3393 121.613 53.2807C121.469 53.2445 121.478 53.148 121.641 52.9894L121.763 53.0032C121.817 53.0157 121.871 53.0255 121.926 53.0325C121.939 53.0324 121.951 53.0286 121.961 53.0216C121.972 53.0145 121.98 53.0046 121.985 52.993C121.99 52.9814 121.991 52.9687 121.989 52.9564C121.986 52.9441 121.98 52.9328 121.971 52.9239L121.975 52.9204Z" fill="#333333"/>
<path d="M125.744 56.0567C125.772 56.0454 125.796 56.0282 125.815 56.0063C125.834 55.9844 125.848 55.9585 125.856 55.9304C125.864 55.9023 125.865 55.8728 125.86 55.8442C125.854 55.8156 125.842 55.7886 125.824 55.7653C125.784 55.7208 125.728 55.6928 125.668 55.6868C125.608 55.6807 125.548 55.697 125.499 55.7326C125.452 55.7697 125.416 55.8188 125.395 55.8747C125.374 55.9306 125.369 55.9911 125.379 56.0498C125.405 56.1599 125.462 56.2602 125.545 56.3386C125.627 56.4169 125.73 56.4699 125.842 56.4911C125.895 56.4988 125.949 56.4936 126 56.4759C126.051 56.4581 126.097 56.4285 126.134 56.3894C126.169 56.3489 126.189 56.298 126.192 56.2446C126.195 56.1913 126.18 56.1385 126.149 56.0946C126.133 56.0743 126.112 56.0576 126.089 56.0455C126.066 56.0334 126.04 56.0263 126.014 56.0245C125.987 56.0227 125.961 56.0263 125.936 56.0351C125.911 56.0439 125.889 56.0577 125.87 56.0756" fill="#333333"/>
<path d="M125.767 56.1387C125.83 56.1136 125.883 56.0674 125.915 56.008C125.948 55.9486 125.958 55.8799 125.945 55.8136C125.932 55.7473 125.896 55.6877 125.843 55.645C125.79 55.6024 125.724 55.5794 125.656 55.5801C125.575 55.5801 125.496 55.6057 125.431 55.6532C125.366 55.7006 125.318 55.7674 125.294 55.8439C125.269 55.9304 125.266 56.022 125.285 56.11C125.305 56.1981 125.347 56.2797 125.407 56.3473C125.616 56.6024 126.12 56.7507 126.276 56.3645C126.309 56.2947 126.316 56.2159 126.297 56.1414C126.278 56.0669 126.233 56.0014 126.17 55.9559C126.14 55.9333 126.106 55.9169 126.069 55.9078C126.033 55.8987 125.995 55.8971 125.957 55.9031C125.92 55.9091 125.885 55.9225 125.853 55.9425C125.821 55.9626 125.794 55.9888 125.772 56.0197C125.729 56.0956 125.802 56.2145 125.896 56.18C125.939 56.1628 125.988 56.1283 126.035 56.1525C126.12 56.1956 126.061 56.3145 126.005 56.349C125.876 56.4317 125.717 56.349 125.619 56.2576C125.564 56.2154 125.523 56.1569 125.502 56.0904C125.482 56.0239 125.484 55.9527 125.506 55.887C125.619 55.6732 125.876 55.887 125.699 55.9835C125.612 56.0266 125.673 56.1731 125.765 56.1387H125.767Z" fill="#333333"/>
<path d="M121.573 52.8646C121.133 52.6286 120.768 52.2744 120.52 51.8423C120.448 51.7277 120.395 51.6026 120.362 51.4717C120.351 51.4241 120.355 51.3744 120.374 51.3291C120.392 51.2837 120.423 51.2448 120.463 51.2172C120.504 51.1896 120.552 51.1746 120.601 51.1742C120.65 51.1738 120.698 51.1879 120.739 51.2148C120.941 51.3165 121.172 51.6113 121.337 51.763C121.352 51.7818 121.373 51.7947 121.397 51.7993C121.42 51.804 121.445 51.8002 121.466 51.7885C121.487 51.7769 121.503 51.7582 121.511 51.7358C121.519 51.7134 121.519 51.6888 121.511 51.6665C121.484 51.5504 121.469 51.432 121.466 51.3131L121.987 51.0993C122.062 51.1321 122.06 51.5924 122.072 51.6958C122.1 52.0099 122.145 52.3224 122.206 52.6319C122.209 52.6548 122.221 52.6755 122.239 52.6896C122.258 52.7036 122.281 52.7099 122.304 52.7069C122.327 52.7039 122.348 52.692 122.362 52.6737C122.376 52.6555 122.383 52.6324 122.38 52.6095C122.36 52.1544 122.309 51.7012 122.229 51.2527C122.196 51.0372 122.138 50.7924 121.902 50.7166C121.285 50.5218 121.254 51.3562 121.325 51.7199L121.499 51.6234C121.25 51.3941 120.852 50.8338 120.477 50.8166C120.206 50.8045 120.108 51.051 120.129 51.282C120.187 52.0199 120.873 52.744 121.539 53.006C121.619 53.0388 121.665 52.9129 121.596 52.8715L121.573 52.8646Z" fill="#333333"/>
<path d="M122.18 51.5513C122.167 51.3245 122.19 51.097 122.248 50.8773C122.283 50.7482 122.332 50.6233 122.394 50.5049C122.434 50.3446 122.526 50.3325 122.672 50.4566C122.877 50.4566 122.934 50.5325 122.846 50.6945L122.78 51.0255C122.735 51.2445 122.691 51.4651 122.646 51.6841C122.627 51.7806 122.771 51.8565 122.82 51.7565C122.958 51.4308 123.154 51.1323 123.398 50.8755C123.447 50.822 123.5 50.7713 123.555 50.7238C123.729 50.4997 123.923 50.5152 124.151 50.7704C124.151 50.8928 123.977 51.1152 123.908 51.2014C123.524 51.7149 123.061 52.1657 122.536 52.5375C122.453 52.603 122.561 52.7323 122.649 52.6823C123.139 52.3902 123.565 52.0053 123.904 51.5496C124.097 51.2996 124.481 50.8704 124.344 50.5152C124.207 50.1601 123.776 50.2963 123.544 50.4687C123.144 50.7863 122.835 51.2024 122.648 51.6755L122.821 51.7255C122.903 51.2858 123.096 50.7635 123.065 50.3152C123.07 50.2289 123.044 50.1436 122.991 50.075C122.938 50.0063 122.862 49.9588 122.776 49.9411C122.519 49.9136 122.344 50.2291 122.246 50.4135C122.068 50.762 121.995 51.1541 122.036 51.5427C122.036 51.6306 122.178 51.6341 122.175 51.5427L122.18 51.5513Z" fill="#333333"/>
<path d="M121.439 52.9271C121.134 52.591 120.783 52.2927 120.449 51.9858C120.259 51.8134 120.011 51.5186 119.712 51.5807C119.636 51.5946 119.568 51.6329 119.516 51.6897C119.465 51.7465 119.434 51.8185 119.429 51.8945C119.429 52.1376 119.735 52.2169 119.856 52.3806L119.941 52.2324C119.512 52.2324 118.98 51.9514 118.589 52.2565C118.533 52.3049 118.488 52.364 118.455 52.4304C118.423 52.4968 118.404 52.569 118.401 52.6427C118.398 52.7163 118.409 52.7899 118.435 52.859C118.461 52.928 118.501 52.9911 118.553 53.0444C118.834 53.3892 119.401 53.4788 119.811 53.5133C120.457 53.5504 121.104 53.4745 121.723 53.2892C121.811 53.2633 121.799 53.1168 121.7 53.1168C121.022 53.203 120.352 53.3685 119.663 53.2771C119.47 53.2544 119.28 53.2081 119.099 53.1392C119.017 53.1151 118.939 53.0803 118.867 53.0357C118.636 52.576 118.669 52.3398 118.966 52.3272C119.234 52.2479 119.644 52.4255 119.934 52.4255C119.952 52.4249 119.969 52.4199 119.984 52.411C119.999 52.4021 120.011 52.3895 120.02 52.3745C120.029 52.3595 120.033 52.3425 120.034 52.3251C120.034 52.3078 120.03 52.2907 120.021 52.2755C119.983 52.2255 119.888 52.16 119.863 52.1031L119.785 52.0496L120.133 51.9479C120.218 51.96 120.371 52.16 120.433 52.2151C120.737 52.4841 121.036 52.7668 121.365 53.0082C121.422 53.0513 121.481 52.9633 121.438 52.9151L121.439 52.9271Z" fill="#333333"/>
<path d="M121.311 55.2928C121.349 55.5207 121.438 55.7371 121.573 55.9258C121.707 56.1145 121.883 56.2706 122.086 56.3823C122.29 56.4941 122.517 56.5587 122.749 56.5712C122.982 56.5838 123.214 56.5439 123.429 56.4547C123.509 56.422 123.481 56.2944 123.391 56.3203C123.193 56.3866 122.983 56.4114 122.774 56.393C122.566 56.3746 122.364 56.3135 122.18 56.2135C121.997 56.1135 121.837 55.9768 121.709 55.8121C121.582 55.6473 121.491 55.4582 121.441 55.2565C121.435 55.2403 121.424 55.2267 121.408 55.2187C121.393 55.2107 121.375 55.2088 121.359 55.2134C121.342 55.2181 121.328 55.2289 121.319 55.2436C121.31 55.2584 121.307 55.276 121.311 55.2928Z" fill="#333333"/>
<path d="M121.335 55.2577C121.668 55.1688 122.017 55.157 122.355 55.2232C122.684 55.3094 122.891 55.5094 123.169 55.6801C123.181 55.6877 123.196 55.691 123.21 55.6894C123.224 55.6878 123.238 55.6813 123.248 55.6711C123.259 55.6609 123.265 55.6475 123.267 55.6332C123.268 55.6188 123.265 55.6044 123.257 55.5921C122.922 55.0129 121.848 54.8215 121.292 55.1577C121.281 55.1647 121.272 55.1755 121.269 55.188C121.265 55.2005 121.265 55.214 121.271 55.226C121.276 55.238 121.285 55.2478 121.297 55.2536C121.309 55.2594 121.322 55.2609 121.335 55.2577Z" fill="#333333"/>
<path d="M122.18 55.8021C122.289 55.8868 122.415 55.9478 122.549 55.9811C122.683 56.0144 122.823 56.0192 122.959 55.9951C123.058 55.9745 123.033 55.8227 122.934 55.8227C122.701 55.8341 122.469 55.7739 122.271 55.6504C122.173 55.5866 122.097 55.7348 122.18 55.8021V55.8021Z" fill="#333333"/>
<path d="M125.807 55.6683C125.717 54.9184 125.55 54.1753 126.038 53.5133C126.147 53.3587 126.286 53.2284 126.448 53.1306L126.643 53.0358C126.857 53.1461 126.905 53.2823 126.792 53.4426C126.747 53.7874 126.501 54.1874 126.377 54.5029C126.339 54.5994 126.473 54.6511 126.537 54.596C126.782 54.3814 127.071 54.2231 127.385 54.1322C127.475 54.1047 127.567 54.0857 127.66 54.0753L127.703 54.4994C127.675 54.5805 127.42 54.7667 127.356 54.8253C126.921 55.2166 126.431 55.5321 125.99 55.9131C125.91 55.9803 126.012 56.0993 126.099 56.0527C126.563 55.7773 126.993 55.4486 127.38 55.0735C127.597 54.8787 128.134 54.515 128.075 54.1512C127.945 53.434 126.647 54.2598 126.408 54.4615L126.57 54.5529L126.954 53.5685C127.015 53.4116 127.128 53.2065 127.081 53.0289C126.97 52.6669 126.523 52.8565 126.309 52.9996C125.451 53.5599 125.341 54.8063 125.699 55.6838C125.72 55.739 125.823 55.739 125.814 55.6683H125.807Z" fill="#333333"/>
<path d="M125.678 55.6066C125.691 55.1258 125.645 54.6454 125.541 54.1757C125.477 53.8809 125.416 53.3361 125.162 53.1309C125.133 53.1028 125.097 53.0813 125.059 53.0681C125.02 53.0548 124.979 53.0501 124.938 53.0542C124.898 53.0583 124.858 53.0711 124.823 53.0918C124.788 53.1125 124.758 53.1406 124.735 53.174C124.547 53.4343 124.735 53.9826 124.813 54.2429L124.987 54.1705C124.797 53.8981 124.554 53.5757 124.177 53.6016C124.11 53.6049 124.045 53.6217 123.986 53.651C123.926 53.6803 123.873 53.7215 123.83 53.7719C123.788 53.8224 123.756 53.8811 123.737 53.9443C123.718 54.0075 123.712 54.0739 123.72 54.1394C123.749 54.5601 124.206 54.9566 124.505 55.2083C124.879 55.538 125.32 55.7838 125.798 55.9289C125.896 55.9548 125.972 55.8048 125.87 55.7565C125.414 55.5699 124.986 55.3203 124.601 55.0152C124.429 54.8698 124.272 54.7075 124.133 54.5308C124.046 54.4353 123.978 54.3233 123.935 54.2015L124.431 53.8567C124.582 53.8757 124.749 54.1636 124.822 54.2687C124.895 54.3739 125.03 54.3049 124.995 54.1963C124.961 54.0939 124.931 53.9897 124.907 53.8843C124.879 53.7603 124.865 53.6337 124.865 53.5067C124.837 53.4016 124.884 53.3809 125.008 53.4481C125.247 53.4774 125.275 53.8584 125.329 54.0739C125.443 54.579 125.514 55.093 125.539 55.61C125.542 55.6266 125.551 55.6418 125.563 55.6527C125.576 55.6637 125.593 55.6697 125.61 55.6697C125.627 55.6697 125.643 55.6637 125.656 55.6527C125.669 55.6418 125.677 55.6266 125.68 55.61L125.678 55.6066Z" fill="#333333"/>
<path d="M126.109 56.0976C126.471 55.8114 126.804 55.489 127.232 55.2976C127.33 55.2418 127.437 55.2033 127.548 55.1839C127.565 55.1752 127.583 55.17 127.602 55.1687C127.62 55.1673 127.639 55.1698 127.657 55.1759C127.674 55.1821 127.69 55.1918 127.704 55.2044C127.718 55.2171 127.729 55.2324 127.736 55.2494C127.877 55.2873 127.896 55.3321 127.797 55.3821C127.743 55.5235 127.371 55.7407 127.255 55.839C127.173 55.9079 127.255 56.0286 127.354 56.0114C127.496 55.9688 127.645 55.9524 127.793 55.9631C128.1 55.9309 128.198 56.0746 128.087 56.3941C127.997 56.4596 127.609 56.3751 127.498 56.3665C127.069 56.3338 126.648 56.2527 126.222 56.1941C126.097 56.1786 126.078 56.3665 126.193 56.4062C126.672 56.5278 127.163 56.5966 127.658 56.6113C127.915 56.6251 128.329 56.6837 128.49 56.42C128.883 55.7735 127.599 55.7304 127.3 55.8114L127.399 55.9838C127.573 55.8407 128.643 55.0477 127.842 54.9494C127.169 54.8718 126.426 55.558 126.012 55.9976C125.949 56.0631 126.042 56.1476 126.109 56.0924V56.0976Z" fill="#333333"/>
<path d="M127.393 56.614C127.536 56.6847 127.567 56.8123 127.494 56.995C127.479 56.9863 127.461 56.9818 127.443 56.9819C127.425 56.982 127.408 56.9867 127.392 56.9956C127.377 57.0045 127.364 57.0172 127.355 57.0326C127.346 57.0479 127.341 57.0653 127.341 57.083C127.342 57.144 127.351 57.2047 127.366 57.264C127.38 57.315 127.397 57.3651 127.418 57.414L127.195 57.6657C127.055 57.707 126.66 57.364 126.563 57.2795C126.247 56.9819 126.008 56.6128 125.868 56.2037C125.86 56.1863 125.847 56.1722 125.83 56.164C125.812 56.1558 125.793 56.154 125.774 56.1591C125.756 56.1642 125.74 56.1757 125.73 56.1916C125.72 56.2074 125.715 56.2264 125.718 56.2451C125.782 56.5709 125.921 56.8777 126.123 57.142C126.326 57.4062 126.587 57.6208 126.886 57.7691C127.07 57.8639 127.324 57.9674 127.515 57.8294C127.783 57.6364 127.56 57.3278 127.541 57.083L127.386 57.1709C127.423 57.1989 127.465 57.2177 127.51 57.2254C127.556 57.2332 127.602 57.2298 127.645 57.2155C127.689 57.2011 127.728 57.1763 127.76 57.1433C127.791 57.1102 127.814 57.07 127.826 57.0261C127.911 56.7606 127.663 56.5675 127.437 56.4968C127.362 56.4727 127.333 56.5727 127.388 56.614H127.393Z" fill="#333333"/>
<path d="M123.918 58.434C124.202 58.2007 124.532 58.0296 124.887 57.9318C125.242 57.8341 125.614 57.8119 125.979 57.8668C126.067 57.8754 126.081 57.7392 126 57.7168C125.613 57.6235 125.209 57.6316 124.826 57.7404C124.444 57.8493 124.096 58.055 123.819 58.3375C123.753 58.4064 123.852 58.4978 123.923 58.4409L123.918 58.434Z" fill="#333333"/>
<path d="M123.532 59.1393C124.55 59.3117 125.661 58.679 126.196 57.848C126.259 57.7497 126.109 57.6756 126.043 57.7584C125.397 58.5997 124.575 58.8996 123.551 59.0048C123.48 59.0048 123.448 59.1255 123.532 59.1393Z" fill="#333333"/>
<path d="M123.794 58.6347C123.948 58.651 124.103 58.6278 124.244 58.5675C124.405 58.5207 124.561 58.4577 124.708 58.3796C124.799 58.333 124.736 58.1761 124.637 58.2072C124.489 58.2623 124.34 58.3158 124.191 58.364C124.046 58.3868 123.907 58.4322 123.777 58.4985C123.765 58.5058 123.755 58.5164 123.749 58.5291C123.743 58.5417 123.741 58.5558 123.743 58.5696C123.745 58.5835 123.75 58.5965 123.76 58.6071C123.769 58.6178 123.781 58.6255 123.794 58.6295V58.6347Z" fill="#333333"/>
<path d="M124.397 56.3536C124.279 56.5005 124.215 56.6829 124.215 56.8708C124.215 57.0588 124.279 57.2411 124.397 57.388C124.455 57.4535 124.547 57.3691 124.514 57.2984C124.444 57.1636 124.407 57.014 124.407 56.8622C124.407 56.7104 124.444 56.5609 124.514 56.4261C124.543 56.364 124.462 56.2847 124.408 56.3468L124.397 56.3536Z" fill="#333333"/>
<path d="M124.411 56.4255C124.527 56.4871 124.624 56.5789 124.691 56.691C124.758 56.8031 124.793 56.9313 124.792 57.0617C124.793 57.0773 124.799 57.0922 124.81 57.1037C124.821 57.1152 124.835 57.1226 124.851 57.1246C124.866 57.1267 124.882 57.1232 124.896 57.1149C124.909 57.1065 124.919 57.0938 124.924 57.0789C124.962 56.9151 124.936 56.7431 124.851 56.5976C124.766 56.4521 124.629 56.3438 124.467 56.2945C124.45 56.2911 124.433 56.2934 124.418 56.3012C124.403 56.309 124.391 56.3218 124.385 56.3373C124.378 56.3528 124.377 56.37 124.382 56.3862C124.387 56.4023 124.397 56.4162 124.411 56.4255Z" fill="#333333"/>
<path d="M124.439 56.7002C124.484 56.8425 124.542 56.9804 124.613 57.1123C124.621 57.125 124.633 57.1343 124.648 57.1387C124.663 57.1431 124.678 57.1422 124.692 57.1362C124.706 57.1302 124.718 57.1195 124.724 57.106C124.731 57.0924 124.733 57.0769 124.729 57.0623C124.683 56.9192 124.625 56.7802 124.555 56.6468C124.546 56.6337 124.533 56.6242 124.517 56.6198C124.502 56.6155 124.485 56.6165 124.471 56.6228C124.456 56.6291 124.444 56.6402 124.437 56.6543C124.429 56.6685 124.427 56.6847 124.43 56.7002H124.439Z" fill="#333333"/>
<path d="M119.94 52.7048C119.966 52.9858 120.267 53.0668 120.508 53.122C121.014 53.2314 121.535 53.2466 122.046 53.1668C122.128 53.1547 122.109 53.022 122.027 53.0254C121.379 53.0547 120.524 53.0978 119.987 52.6806C119.97 52.6686 119.938 52.6806 119.94 52.6996V52.7048Z" fill="#333333"/>
<path d="M121.191 52.0346C121.376 52.3803 121.537 52.7386 121.671 53.1069C121.676 53.1249 121.688 53.1403 121.704 53.1495C121.721 53.1587 121.74 53.161 121.759 53.156C121.777 53.151 121.792 53.139 121.802 53.1227C121.811 53.1063 121.813 53.087 121.808 53.0689C121.726 52.6638 121.544 52.2852 121.278 51.9673C121.236 51.9173 121.163 51.9811 121.191 52.0346Z" fill="#333333"/>
<path d="M121.709 51.8537C121.713 52.0747 121.762 52.2927 121.854 52.494C121.946 52.6954 122.079 52.8759 122.244 53.0243C122.258 53.0382 122.278 53.046 122.297 53.046C122.317 53.046 122.336 53.0382 122.35 53.0243C122.364 53.0103 122.372 52.9914 122.372 52.9717C122.372 52.9519 122.364 52.933 122.35 52.9191C122.104 52.5972 121.927 52.2288 121.829 51.8364C121.825 51.8209 121.816 51.8074 121.803 51.7984C121.79 51.7893 121.774 51.7855 121.758 51.7877C121.742 51.7899 121.727 51.7978 121.717 51.81C121.707 51.8222 121.702 51.8378 121.702 51.8537H121.709Z" fill="#333333"/>
<path d="M122.613 51.8721C122.519 52.0203 122.468 52.1945 122.381 52.3496C122.294 52.5043 122.199 52.6539 122.095 52.7978C122.044 52.8685 122.157 52.9547 122.216 52.8909C122.454 52.6341 122.715 52.2651 122.738 51.9031C122.738 51.8376 122.649 51.8204 122.616 51.8721H122.613Z" fill="#333333"/>
<path d="M124.9 54.5879C125.1 55.1186 125.371 55.6202 125.706 56.0791C125.77 56.1636 125.911 56.0895 125.856 55.9929C125.572 55.5068 125.289 55.031 125.025 54.5345C124.988 54.4672 124.872 54.5138 124.9 54.5879Z" fill="#333333"/>
<path d="M126.038 54.7392C125.776 55.1327 125.623 55.5874 125.593 56.0581C125.593 56.1305 125.711 56.1494 125.724 56.0753C125.794 55.6314 125.946 55.2042 126.172 54.8151C126.222 54.7306 126.092 54.6565 126.038 54.7392Z" fill="#333333"/>
<path d="M126.507 54.8447C126.215 55.1913 125.974 55.5773 125.791 55.9912C125.758 56.067 125.862 56.1342 125.906 56.0584C126.116 55.6739 126.356 55.3067 126.625 54.9602C126.69 54.8792 126.575 54.7619 126.507 54.8447V54.8447Z" fill="#333333"/>
<path d="M126.066 56.258C126.48 56.2441 126.885 56.1374 127.251 55.946C127.35 55.896 127.263 55.7581 127.166 55.8012C126.808 55.9527 126.432 56.0599 126.047 56.1201C125.967 56.1339 125.986 56.2598 126.066 56.258V56.258Z" fill="#333333"/>
<path d="M125.896 56.2548C125.986 56.5074 126.163 56.7206 126.395 56.857C126.628 56.9934 126.901 57.0445 127.168 57.0012C127.282 56.984 127.255 56.7995 127.142 56.803C126.919 56.823 126.695 56.7751 126.5 56.6658C126.306 56.5564 126.149 56.3908 126.052 56.191C126.007 56.1082 125.864 56.1634 125.896 56.2548V56.2548Z" fill="#333333"/>
<path d="M103.472 37.8223C103.187 39.1532 103.128 40.5219 103.298 41.872C103.451 43.0632 103.729 44.3958 104.299 45.4664C104.309 45.4825 104.324 45.4945 104.342 45.5003C104.36 45.5061 104.379 45.5052 104.397 45.4979C104.414 45.4905 104.428 45.4772 104.437 45.4603C104.445 45.4434 104.447 45.4242 104.442 45.4061C104.282 44.8217 104.037 44.2597 103.87 43.6735C103.317 41.7831 103.226 39.7891 103.604 37.8568C103.618 37.7758 103.496 37.7396 103.479 37.8223H103.472Z" fill="#333333"/>
<path d="M103.338 41.9604C104.241 41.2419 104.981 40.3411 105.507 39.3176C105.516 39.2976 105.518 39.2747 105.512 39.2535C105.505 39.2323 105.491 39.2144 105.471 39.2033C105.452 39.1921 105.429 39.1887 105.407 39.1936C105.385 39.1985 105.366 39.2113 105.354 39.2296C104.748 40.1778 104.05 41.0643 103.268 41.8759C103.228 41.9173 103.282 42.0001 103.334 41.9604H103.338Z" fill="#333333"/>
<path d="M103.876 41.1659C104.022 40.7131 104.167 40.2597 104.311 39.8057H104.158C104.196 40.0126 104.236 40.2194 104.276 40.428C104.281 40.4441 104.29 40.4584 104.303 40.4692C104.316 40.4801 104.332 40.4869 104.349 40.4889C104.366 40.4909 104.383 40.488 104.398 40.4806C104.413 40.4731 104.426 40.4615 104.434 40.447L105.225 38.8403L105.06 38.8196L105.138 39.1385C105.142 39.1537 105.15 39.1675 105.162 39.1785C105.173 39.1896 105.187 39.1975 105.202 39.2016C105.218 39.2056 105.234 39.2055 105.249 39.2014C105.264 39.1973 105.278 39.1893 105.289 39.1782C105.68 38.6834 106.15 38.1938 106.461 37.6473C106.467 37.6335 106.469 37.6178 106.466 37.6028C106.462 37.5879 106.454 37.5746 106.441 37.5651C106.429 37.5556 106.414 37.5506 106.399 37.5508C106.383 37.551 106.368 37.5565 106.356 37.5663C105.905 37.9955 105.545 38.5627 105.162 39.0523L105.314 39.092L105.234 38.7713C105.228 38.7549 105.218 38.7403 105.205 38.7293C105.191 38.7183 105.175 38.7114 105.158 38.7092C105.14 38.707 105.123 38.7098 105.107 38.7171C105.091 38.7244 105.078 38.7361 105.069 38.7506L104.28 40.3608L104.438 40.3815C104.394 40.1763 104.349 39.9695 104.306 39.7643C104.301 39.7481 104.291 39.7338 104.277 39.7237C104.263 39.7136 104.246 39.7081 104.229 39.7081C104.212 39.7081 104.195 39.7136 104.182 39.7237C104.168 39.7338 104.158 39.7481 104.153 39.7643C104.017 40.224 103.883 40.6803 103.751 41.1331C103.727 41.2107 103.847 41.2418 103.871 41.1659H103.876Z" fill="#333333"/>
<path d="M103.896 41.3976C104.353 41.0201 104.813 40.646 105.269 40.2667L105.147 40.146L104.777 40.4908C104.706 40.5563 104.801 40.6873 104.883 40.627C105.383 40.2609 105.775 39.7686 106.018 39.2013C106.228 38.6944 106.282 38.1497 106.463 37.6394C106.487 37.5687 106.372 37.5187 106.339 37.5876C106.165 37.9324 106.115 38.3427 105.992 38.7151C105.787 39.4204 105.361 40.0424 104.775 40.4908L104.881 40.627L105.25 40.2822C105.331 40.2046 105.211 40.0926 105.128 40.1615C104.674 40.5425 104.224 40.927 103.772 41.3097C103.699 41.3718 103.804 41.4821 103.877 41.4131L103.896 41.3976Z" fill="#333333"/>
<path d="M103.43 42.5861C103.885 42.0482 102.964 41.531 102.602 41.2672C101.841 40.7104 101.019 40.0932 100.14 39.7381C100.058 39.7053 100.025 39.8243 100.084 39.8674C100.621 40.257 101.228 40.5569 101.784 40.9276C102.05 41.1 102.314 41.2862 102.573 41.4741C102.92 41.7206 103.534 42.0309 103.371 42.5516C103.368 42.5592 103.368 42.5676 103.37 42.5753C103.373 42.583 103.378 42.5895 103.385 42.5936C103.392 42.5977 103.401 42.5992 103.409 42.5979C103.417 42.5965 103.424 42.5923 103.43 42.5861V42.5861Z" fill="#333333"/>
<path d="M103.411 41.8094C103.283 41.1332 102.984 40.5004 102.542 39.9699C102.483 39.894 102.384 39.9802 102.398 40.0526C102.436 40.2767 102.476 40.4991 102.516 40.7215L102.662 40.6371C102.382 40.3457 102.106 40.0526 101.828 39.7596C101.762 39.6906 101.67 39.7596 101.682 39.844L101.769 40.4405L101.93 40.3733C101.635 39.6837 100.757 39.5251 100.095 39.7147C100.074 39.7238 100.057 39.7402 100.047 39.7608C100.037 39.7814 100.035 39.8049 100.041 39.827C100.047 39.849 100.061 39.8681 100.08 39.8807C100.1 39.8934 100.123 39.8987 100.146 39.8958C100.735 39.7234 101.512 39.844 101.777 40.4612C101.821 40.5595 101.951 40.4819 101.939 40.394L101.85 39.7992L101.704 39.8837L102.542 40.7543C102.606 40.8215 102.702 40.7543 102.686 40.6698C102.648 40.4474 102.608 40.225 102.568 40.0026L102.422 40.0854C102.822 40.6091 103.121 41.2018 103.303 41.8335C103.309 41.8456 103.318 41.8554 103.33 41.861C103.342 41.8667 103.356 41.8678 103.369 41.8643C103.382 41.8607 103.393 41.8527 103.4 41.8417C103.408 41.8306 103.411 41.8173 103.409 41.8042L103.411 41.8094Z" fill="#333333"/>
<path d="M103.395 42.0349C102.749 41.766 102.048 41.597 101.381 41.3919L101.36 41.5471L102.014 41.5315C102.032 41.5312 102.049 41.525 102.063 41.514C102.078 41.503 102.088 41.4876 102.093 41.4703C102.097 41.4531 102.096 41.4347 102.089 41.4181C102.083 41.4014 102.071 41.3874 102.055 41.3781C101.242 40.9437 100.538 40.4937 100.032 39.7076C99.9925 39.6472 99.8761 39.6852 99.9056 39.761C100.253 40.623 101.186 41.1074 101.972 41.5195L102.014 41.366L101.36 41.3884C101.342 41.39 101.324 41.3979 101.311 41.4106C101.297 41.4234 101.289 41.4403 101.286 41.4586C101.284 41.4769 101.288 41.4954 101.297 41.5112C101.307 41.527 101.322 41.539 101.339 41.5453C102.008 41.7436 102.684 41.9918 103.369 42.1246C103.381 42.128 103.394 42.1266 103.405 42.1206C103.416 42.1146 103.424 42.1046 103.427 42.0927C103.431 42.0808 103.429 42.068 103.423 42.0572C103.417 42.0464 103.407 42.0384 103.395 42.0349V42.0349Z" fill="#333333"/>
<path d="M103.812 37.3053C103.383 37.2285 102.993 37.009 102.705 36.6829L102.577 36.5105L102.858 36.3295C102.891 36.3295 102.921 36.3967 102.956 36.4019C103.056 36.4174 103.062 36.4778 103.182 36.4623C103.253 36.446 103.318 36.4092 103.368 36.3564C103.419 36.3037 103.452 36.2373 103.465 36.1657C103.514 36.0123 103.503 35.8451 103.548 35.6916C103.56 35.6173 103.592 35.5473 103.639 35.4882C103.7 35.2693 103.812 35.2831 103.986 35.5313C104.325 35.7554 104.287 35.7158 104.132 36.0485C104.124 36.0629 104.121 36.0793 104.122 36.0957C104.123 36.1121 104.13 36.1277 104.14 36.1407C104.15 36.1537 104.164 36.1635 104.179 36.1689C104.195 36.1742 104.212 36.1749 104.228 36.1709C104.402 36.1192 104.791 35.9589 104.947 36.0468C105.484 36.3485 104.81 36.6157 104.6 36.695C104.579 36.7009 104.562 36.7139 104.55 36.7316C104.538 36.7494 104.534 36.7707 104.537 36.7917C104.539 36.8126 104.55 36.8318 104.566 36.8457C104.582 36.8596 104.603 36.8673 104.624 36.8674C104.972 36.8226 105.074 37.007 104.93 37.4225C104.828 37.4467 104.722 37.4467 104.621 37.4225C104.39 37.381 104.169 37.2968 103.969 37.1743C103.892 37.1363 103.807 37.2346 103.873 37.2967C104.188 37.5846 104.942 37.838 105.279 37.4346C105.658 36.9794 104.966 36.7174 104.624 36.6933L104.647 36.8657C104.888 36.7726 105.571 36.4398 105.437 36.0692C105.304 35.6985 104.433 35.9382 104.188 36.014L104.283 36.1364C104.431 35.8089 104.603 35.1451 104.058 35.0624C103.953 35.0541 103.848 35.074 103.753 35.1202C103.659 35.1663 103.579 35.2369 103.522 35.3244C103.348 35.571 103.395 36.3674 102.966 36.2019C102.815 36.145 102.74 35.9744 102.546 36.0451C102.467 36.0826 102.405 36.1481 102.373 36.2286C102.341 36.3091 102.34 36.3987 102.372 36.4795C102.533 37.0312 103.281 37.3415 103.79 37.4053C103.847 37.4139 103.861 37.3139 103.804 37.3036L103.812 37.3053Z" fill="#333333"/>
<path d="M103.616 37.1814C103.52 37.071 103.366 36.9124 103.378 36.7504C103.454 36.4883 103.552 36.4469 103.682 36.628C103.689 36.671 103.702 36.7128 103.72 36.7521C103.736 36.7877 103.762 36.8177 103.795 36.8383C103.828 36.8589 103.867 36.8691 103.906 36.8676C103.953 36.8574 103.997 36.8381 104.036 36.8109C104.075 36.7837 104.108 36.749 104.134 36.709C104.179 36.6436 104.228 36.5814 104.282 36.5228C104.614 36.5228 104.692 36.6124 104.518 36.7797C104.419 36.8457 104.314 36.9034 104.205 36.9521C104.153 36.9865 104.165 37.0917 104.24 37.0831C104.534 37.0469 104.899 36.7831 104.773 36.4469C104.636 36.0763 104.221 36.3056 104.059 36.5107C104.016 36.5642 103.984 36.6555 103.908 36.6452C103.831 36.6349 103.861 36.578 103.83 36.5125C103.809 36.4661 103.776 36.4262 103.734 36.3969C103.68 36.3608 103.616 36.3415 103.551 36.3415C103.486 36.3415 103.422 36.3608 103.367 36.3969C103.02 36.6349 103.307 37.0624 103.507 37.2796C103.573 37.3538 103.68 37.2451 103.616 37.1727V37.1814Z" fill="#333333"/>
<path d="M103.157 37.0695C102.839 37.185 102.843 37.5867 103.091 37.785C103.552 38.1453 104.217 37.7005 104.666 37.5488C104.737 37.5264 104.73 37.4074 104.648 37.4126C104.405 37.4514 104.17 37.5301 103.953 37.6453C103.78 37.7371 103.582 37.7738 103.387 37.7505C103.105 37.6936 102.905 37.3626 103.192 37.1488C103.229 37.123 103.209 37.0506 103.157 37.0695V37.0695Z" fill="#333333"/>
<path d="M103.65 22.0586C104.438 21.1155 104.792 19.8174 104.855 18.6106C104.853 18.5891 104.845 18.5688 104.83 18.553C104.815 18.5373 104.795 18.5271 104.774 18.5243C104.752 18.5214 104.73 18.5261 104.712 18.5374C104.693 18.5487 104.679 18.5661 104.672 18.5865C104.463 19.6109 104.588 20.6747 105.029 21.6241C105.114 21.7418 105.158 21.8842 105.154 22.0293C105.1 22.1638 105.031 22.2922 104.949 22.412C104.843 22.6382 104.758 22.8737 104.695 23.1154C104.565 23.6402 104.535 24.1847 104.608 24.7204L104.815 24.6928C104.641 23.7343 104.325 22.6964 103.746 21.8965C103.733 21.8772 103.713 21.8636 103.69 21.8585C103.667 21.8534 103.643 21.8572 103.623 21.8691C103.603 21.881 103.588 21.9001 103.581 21.9225C103.575 21.9449 103.577 21.9689 103.588 21.9896C104.035 22.8947 104.431 23.7446 104.613 24.748C104.634 24.8617 104.836 24.8376 104.82 24.7204C104.689 23.7763 104.897 22.8167 105.406 22.0086C105.415 21.9934 105.421 21.9757 105.421 21.9577C105.421 21.9397 105.415 21.9221 105.406 21.9069C104.837 20.9142 104.641 19.7536 104.853 18.6313L104.669 18.6072C104.613 19.8622 104.175 20.9104 103.586 22.0017C103.565 22.0413 103.619 22.0879 103.65 22.0517V22.0586Z" fill="#333333"/>
<path d="M107.029 26.846C107.474 26.3547 107.561 25.7047 107.633 25.0703H107.438C107.382 25.6151 107.533 26.0151 107.74 26.5047C107.902 26.8839 107.712 26.9908 107.594 27.308C107.507 27.5462 107.476 27.8008 107.502 28.0528L107.725 28.0235C107.628 27.4861 107.332 27.0044 106.894 26.6736C106.817 26.6202 106.755 26.7288 106.802 26.7908C107.133 27.1628 107.375 27.6051 107.507 28.0838C107.535 28.2045 107.74 28.1804 107.73 28.0528C107.701 27.7202 107.778 27.3869 107.949 27.0994C108.031 26.994 108.079 26.8656 108.084 26.7322C108.067 26.4857 107.808 26.215 107.737 25.9909C107.639 25.6943 107.606 25.3806 107.639 25.0703C107.65 24.9479 107.455 24.9479 107.445 25.0703C107.387 25.6789 107.304 26.265 106.946 26.7771C106.908 26.8288 106.993 26.8926 107.036 26.846H107.029Z" fill="#333333"/>
<path d="M133.917 23.6861C134.573 23.057 135.077 22.2897 135.393 21.441C135.71 20.5923 135.829 19.6839 135.744 18.7831C135.744 18.7557 135.733 18.7294 135.713 18.71C135.694 18.6906 135.667 18.6797 135.639 18.6797C135.612 18.6797 135.585 18.6906 135.566 18.71C135.546 18.7294 135.535 18.7557 135.535 18.7831C135.452 19.6917 135.361 20.614 135.535 21.5191C135.596 21.8828 135.702 22.2377 135.85 22.5759C135.926 22.7497 136.015 22.9174 136.117 23.0775C136.192 23.193 136.354 23.3396 136.335 23.4758C136.315 23.612 136.095 23.843 136.022 23.9706C135.924 24.143 135.836 24.3154 135.754 24.4878C135.596 24.8287 135.467 25.1822 135.368 25.5445C135.154 26.3303 135.083 27.1475 135.156 27.9581C135.168 28.1081 135.4 28.1115 135.393 27.9581C135.32 26.4755 134.809 24.8067 133.728 23.7309C133.657 23.6602 133.526 23.7533 133.585 23.8413C134.002 24.4722 134.418 25.067 134.692 25.779C134.962 26.4766 135.118 27.2121 135.156 27.9581H135.387C135.248 26.3667 135.684 24.7781 136.616 23.4758C136.629 23.4549 136.634 23.4307 136.632 23.4066C136.63 23.3825 136.62 23.3596 136.604 23.3413C135.504 22.0776 135.62 20.3468 135.752 18.79H135.544C135.63 19.6664 135.52 20.5508 135.222 21.3803C134.924 22.2098 134.446 22.9641 133.822 23.5896C133.808 23.6033 133.8 23.6219 133.8 23.6413C133.8 23.6607 133.808 23.6793 133.822 23.693C133.835 23.7067 133.854 23.7144 133.874 23.7144C133.893 23.7144 133.912 23.7067 133.926 23.693L133.917 23.6861Z" fill="#333333"/>
<path d="M127.72 32.6616C128.652 32.2806 129.211 31.2445 129.319 30.2946H129.116C129.145 31.2014 129.239 32.1806 130.071 32.722L130.047 32.5392C129.327 33.0981 128.83 33.8922 128.645 34.7804L128.879 34.8114C128.844 34.0443 128.483 33.0426 127.741 32.6789C127.721 32.669 127.698 32.6664 127.676 32.6714C127.654 32.6765 127.635 32.6889 127.621 32.7065C127.607 32.7242 127.6 32.7461 127.601 32.7684C127.601 32.7907 127.61 32.812 127.625 32.8289C127.864 33.1116 128.146 33.346 128.32 33.6684C128.513 34.02 128.621 34.4113 128.636 34.8114C128.636 34.939 128.843 34.9838 128.872 34.8424C129.045 33.9916 129.52 33.2305 130.21 32.6978C130.223 32.685 130.232 32.6695 130.238 32.6525C130.244 32.6355 130.245 32.6175 130.243 32.5998C130.241 32.5821 130.234 32.5651 130.225 32.5501C130.215 32.5352 130.202 32.5226 130.186 32.5134C129.423 32.0272 129.355 31.1049 129.317 30.2877C129.314 30.2632 129.302 30.2408 129.283 30.2245C129.264 30.2082 129.24 30.1992 129.216 30.1992C129.191 30.1992 129.167 30.2082 129.148 30.2245C129.129 30.2408 129.117 30.2632 129.114 30.2877C129.017 31.2928 128.448 31.9548 127.671 32.5444C127.621 32.5806 127.647 32.684 127.718 32.6547L127.72 32.6616Z" fill="#333333"/>
<path d="M130.815 36.1329C131.145 35.564 131.41 34.9537 131.707 34.3658C131.72 34.343 131.723 34.3159 131.716 34.2907C131.709 34.2655 131.692 34.2441 131.669 34.2313C131.646 34.2185 131.618 34.2153 131.593 34.2225C131.567 34.2296 131.546 34.2464 131.533 34.2693C131.246 34.7485 131.556 35.1606 131.672 35.6381C131.827 36.2639 131.288 36.6725 131.364 37.2742L131.592 37.2431C131.492 36.8691 131.291 36.529 131.012 36.2587C130.989 36.2398 130.961 36.2299 130.931 36.2311C130.902 36.2323 130.874 36.2446 130.853 36.2653C130.833 36.286 130.821 36.3138 130.82 36.3429C130.819 36.3721 130.829 36.4005 130.848 36.4225C131.098 36.6657 131.278 36.9703 131.37 37.3052C131.404 37.4241 131.615 37.4052 131.597 37.2742C131.538 36.8225 131.915 36.4863 131.945 36.0484C131.994 35.4623 131.403 34.9468 131.696 34.3658L131.523 34.2693C131.241 34.8709 130.921 35.4623 130.676 36.0812C130.648 36.1536 130.761 36.1967 130.8 36.1329H130.815Z" fill="#333333"/>
<path d="M152.478 29.6235C152.98 29.1908 153.263 28.4581 153.456 27.8427C153.672 27.0974 153.825 26.3357 153.913 25.5653L153.71 25.5377C153.672 26.6997 154.026 27.6479 154.522 28.6754C154.834 29.3253 154.388 29.927 154.284 30.5803C154.203 31.1153 154.23 31.6606 154.362 32.1854C154.398 32.3388 154.631 32.2733 154.598 32.1216C154.353 31.0217 153.637 29.9787 152.589 29.4994C152.566 29.4887 152.54 29.4868 152.516 29.4943C152.492 29.5017 152.471 29.5179 152.459 29.5396C152.446 29.5613 152.442 29.5869 152.448 29.6114C152.453 29.6359 152.468 29.6575 152.488 29.6718C153.429 30.2752 154.111 31.0837 154.362 32.1854L154.598 32.1216C154.434 31.4865 154.439 30.82 154.612 30.1873C154.744 29.7218 155.001 29.3253 154.834 28.8305C154.668 28.3357 154.344 27.8944 154.179 27.3858C153.988 26.7888 153.9 26.1639 153.919 25.5377C153.919 25.4257 153.729 25.3946 153.714 25.5119C153.634 26.2127 153.506 26.9074 153.331 27.591C153.126 28.3271 152.759 28.8977 152.377 29.546C152.369 29.5593 152.366 29.5751 152.369 29.5904C152.372 29.6056 152.381 29.6193 152.393 29.6288C152.405 29.6383 152.421 29.643 152.436 29.6421C152.452 29.6411 152.467 29.6345 152.478 29.6235V29.6235Z" fill="#333333"/>
<path d="M150.288 35.6167C151.112 35.1461 151.534 34.1582 151.505 33.2428C151.505 33.2167 151.494 33.1917 151.476 33.1733C151.457 33.1549 151.432 33.1445 151.406 33.1445C151.38 33.1445 151.354 33.1549 151.336 33.1733C151.317 33.1917 151.307 33.2167 151.307 33.2428C151.278 33.6704 151.325 34.0997 151.444 34.5116C151.499 34.6991 151.568 34.8819 151.653 35.0581C151.727 35.2168 152.016 35.5322 152.014 35.6908C152.014 35.7891 151.774 35.9994 151.712 36.096C151.559 36.3367 151.457 36.6056 151.412 36.8865C151.367 37.1674 151.38 37.4544 151.449 37.7303L151.672 37.67C151.454 36.912 151.016 36.2341 150.413 35.7202C150.297 35.6202 150.128 35.7874 150.24 35.8926C150.813 36.3775 151.232 37.018 151.444 37.7355C151.452 37.7647 151.472 37.7896 151.498 37.8047C151.525 37.8197 151.556 37.8236 151.586 37.8156C151.615 37.8076 151.64 37.7883 151.655 37.762C151.671 37.7356 151.675 37.7044 151.666 37.6751C151.582 37.3379 151.593 36.9841 151.697 36.6524C151.802 36.3207 151.996 36.0238 152.259 35.7943C152.279 35.7743 152.29 35.7474 152.29 35.7193C152.29 35.6912 152.279 35.6643 152.259 35.6443C151.722 34.963 151.452 34.1116 151.5 33.248H151.302C151.336 34.191 150.897 34.9185 150.201 35.5236C150.148 35.5719 150.217 35.6564 150.278 35.6219L150.288 35.6167Z" fill="#333333"/>
<path d="M140.681 44.9976C140.339 46.2246 139.846 47.4048 139.211 48.5111C139.201 48.5287 139.197 48.5487 139.198 48.5687C139.2 48.5887 139.207 48.6078 139.22 48.6237C139.232 48.6396 139.249 48.6516 139.268 48.6583C139.287 48.6649 139.308 48.6659 139.327 48.6611C139.625 48.6116 139.908 48.496 140.154 48.3228C140.401 48.1497 140.605 47.9235 140.75 47.6612L140.552 47.5767C140.251 49.1114 139.679 50.5814 138.863 51.9194C138.85 51.942 138.845 51.9682 138.849 51.994C138.852 52.0197 138.864 52.0436 138.883 52.062C138.901 52.0803 138.925 52.0922 138.951 52.0957C138.977 52.0992 139.004 52.0942 139.027 52.0814C139.767 51.7181 140.42 51.1992 140.938 50.5609L140.737 50.4437C140.505 51.225 140.192 51.9802 139.802 52.6969C139.428 53.3865 138.894 53.9606 138.517 54.6329C138.509 54.6518 138.506 54.673 138.511 54.6931C138.516 54.7133 138.528 54.7311 138.545 54.7438C138.561 54.7564 138.582 54.7631 138.603 54.7627C138.624 54.7623 138.644 54.7548 138.66 54.7415C139.258 54.2468 139.694 53.4296 140.05 52.7555C140.431 52.041 140.738 51.2901 140.966 50.5144C140.999 50.4057 140.843 50.3023 140.764 50.3988C140.259 51.023 139.623 51.5302 138.9 51.8849L139.063 52.047C139.892 50.6917 140.461 49.196 140.742 47.6353C140.761 47.5215 140.608 47.4388 140.544 47.5508C140.412 47.7903 140.227 47.997 140.003 48.1553C139.779 48.3135 139.522 48.4193 139.251 48.4645L139.367 48.6145C140.007 47.4934 140.495 46.2935 140.818 45.0459C140.821 45.0272 140.817 45.0082 140.806 44.9923C140.796 44.9765 140.78 44.965 140.762 44.9599C140.744 44.9548 140.724 44.9565 140.707 44.9648C140.69 44.973 140.676 44.9871 140.669 45.0045L140.681 44.9976Z" fill="#333333"/>
<path d="M140.648 45.0953C141.246 46.2448 142.218 47.1602 143.406 47.6933V47.4882C143.15 47.6436 142.864 47.7439 142.566 47.7825C142.268 47.8211 141.965 47.7972 141.677 47.7123C141.65 47.7056 141.622 47.7076 141.597 47.7181C141.571 47.7286 141.55 47.747 141.536 47.7706C141.522 47.7941 141.516 47.8215 141.52 47.8486C141.523 47.8757 141.535 47.9011 141.554 47.9209C142.46 48.9154 143.639 49.6269 144.946 49.969L144.915 49.7345C144.587 49.9679 144.212 50.1263 143.816 50.1985C143.419 50.2706 143.012 50.2547 142.622 50.1517C142.595 50.1452 142.566 50.1477 142.54 50.1588C142.514 50.1699 142.492 50.1891 142.477 50.2135C142.463 50.2379 142.457 50.2662 142.461 50.2942C142.464 50.3222 142.476 50.3484 142.496 50.369C143.253 51.3361 144.407 52.1981 145.674 52.3084C145.777 52.317 145.784 52.1688 145.697 52.136C144.515 51.7223 143.472 51.2327 142.701 50.2086L142.553 50.3983C142.975 50.5159 143.419 50.5368 143.851 50.4594C144.282 50.3821 144.691 50.2085 145.045 49.9517C145.066 49.9385 145.083 49.9196 145.093 49.8972C145.104 49.8748 145.108 49.8499 145.104 49.8255C145.101 49.801 145.091 49.7779 145.075 49.7591C145.059 49.7402 145.038 49.7263 145.014 49.719C143.739 49.4155 142.592 48.7241 141.733 47.7416L141.609 47.9502C141.928 48.0451 142.264 48.071 142.594 48.0261C142.923 47.9811 143.24 47.8665 143.521 47.6899C143.539 47.6794 143.554 47.6644 143.564 47.6464C143.575 47.6284 143.58 47.6081 143.58 47.5873C143.58 47.5666 143.575 47.5462 143.564 47.5282C143.554 47.5102 143.539 47.4952 143.521 47.4847C142.367 46.9692 141.411 46.0987 140.794 45.0022C140.737 44.904 140.591 44.9902 140.641 45.0919L140.648 45.0953Z" fill="#333333"/>
<path d="M145.511 39.0494C145.249 40.5438 144.732 41.9828 143.982 43.3042C143.973 43.3204 143.968 43.3387 143.968 43.3571C143.969 43.3756 143.973 43.3937 143.983 43.4098C143.992 43.4258 144.005 43.4393 144.021 43.4489C144.037 43.4585 144.055 43.4638 144.074 43.4645C144.792 43.4194 145.471 43.1197 145.985 42.6198L145.794 42.5095C145.382 44.0507 144.964 45.6023 143.883 46.8332C143.863 46.8526 143.851 46.8778 143.848 46.9048C143.844 46.9318 143.85 46.9592 143.864 46.9827C143.878 47.0062 143.899 47.0246 143.924 47.0349C143.95 47.0453 143.978 47.0471 144.004 47.0401C144.999 46.8863 145.924 46.4381 146.658 45.754L146.451 45.635C146.007 46.9669 145.347 48.2182 144.498 49.3398C144.423 49.4398 144.546 49.5467 144.645 49.5295C145.609 49.3683 146.485 48.875 147.118 48.1365L146.905 48.0141C146.322 49.3401 145.629 50.6157 144.833 51.8275C144.757 51.9517 144.941 52.0482 145.026 51.9396C145.921 50.7759 146.59 49.4312 147.15 48.0813C147.198 47.9641 147.018 47.8641 146.938 47.9572C146.337 48.6662 145.498 49.1363 144.576 49.2812L144.722 49.4709C145.582 48.3277 146.245 47.0506 146.684 45.6919C146.69 45.6661 146.687 45.639 146.677 45.6147C146.666 45.5904 146.648 45.5701 146.625 45.5568C146.602 45.5435 146.575 45.5379 146.548 45.5408C146.522 45.5437 146.497 45.555 146.477 45.573C145.792 46.2326 144.914 46.661 143.969 46.797L144.058 47.009C145.17 45.7798 145.622 44.1369 146.006 42.5698C146.013 42.5457 146.011 42.5202 146.001 42.4972C145.992 42.4742 145.975 42.4549 145.953 42.4424C145.931 42.4299 145.906 42.4248 145.881 42.4278C145.856 42.4309 145.833 42.442 145.815 42.4595C145.351 42.9236 144.734 43.2053 144.077 43.2525L144.169 43.4111C144.961 42.0805 145.468 40.6022 145.659 39.0684C145.667 38.9874 145.53 38.9701 145.514 39.0494H145.511Z" fill="#333333"/>
<path d="M145.613 39.0728C145.969 39.7713 146.476 40.3828 147.099 40.8631C147.721 41.3434 148.444 41.6805 149.214 41.8501L149.164 41.6605C148.917 41.8681 148.628 42.0216 148.317 42.1107C148.007 42.1998 147.68 42.2227 147.36 42.1777C147.334 42.1712 147.307 42.1732 147.283 42.1833C147.259 42.1934 147.238 42.2111 147.225 42.2336C147.212 42.2562 147.206 42.2824 147.209 42.3084C147.212 42.3344 147.223 42.3587 147.242 42.3776C148.089 43.3433 149.176 44.0735 150.394 44.4964L150.338 44.2878C150.093 44.571 149.78 44.7881 149.427 44.9192C149.075 45.0503 148.695 45.0911 148.322 45.0377C148.295 45.0314 148.266 45.0341 148.239 45.0454C148.213 45.0566 148.191 45.0759 148.177 45.1003C148.163 45.1247 148.157 45.1531 148.16 45.1812C148.163 45.2094 148.175 45.2358 148.194 45.2567C149.063 46.3599 150.292 47.1294 151.67 47.434L151.638 47.1875C151.296 47.3723 150.917 47.4787 150.528 47.499C150.139 47.5193 149.751 47.4529 149.391 47.3047C149.277 47.2582 149.171 47.4134 149.233 47.5082C150.45 49.3683 151.696 51.282 153.133 52.9887C153.222 53.0938 153.404 52.9559 153.324 52.8421C152.055 51.0044 150.691 49.2425 149.475 47.3685L149.317 47.572C149.711 47.735 150.138 47.8062 150.564 47.7799C150.99 47.7536 151.405 47.6305 151.776 47.4203C151.798 47.4065 151.816 47.3865 151.828 47.3627C151.839 47.339 151.843 47.3124 151.84 47.2864C151.836 47.2603 151.825 47.2358 151.808 47.2158C151.791 47.1958 151.768 47.1812 151.743 47.1737C150.408 46.8814 149.219 46.1348 148.382 45.0636L148.253 45.2825C148.669 45.3481 149.096 45.3066 149.491 45.162C149.887 45.0174 150.238 44.7746 150.512 44.4567C150.527 44.441 150.538 44.4216 150.544 44.4005C150.549 44.3794 150.549 44.3572 150.544 44.3362C150.538 44.3151 150.527 44.2957 150.512 44.28C150.497 44.2643 150.478 44.2527 150.457 44.2464C149.281 43.8369 148.233 43.1325 147.414 42.2018L147.295 42.4018C147.656 42.4569 148.024 42.4335 148.375 42.3332C148.725 42.2328 149.05 42.058 149.325 41.8208C149.339 41.8067 149.349 41.7893 149.354 41.7704C149.358 41.7515 149.358 41.7317 149.353 41.7128C149.348 41.6939 149.338 41.6766 149.325 41.6626C149.311 41.6486 149.294 41.6384 149.275 41.6329C148.532 41.467 147.834 41.1454 147.227 40.6895C146.62 40.2337 146.118 39.6542 145.756 38.99C145.704 38.8969 145.566 38.9797 145.613 39.0728V39.0728Z" fill="#333333"/>
<path d="M152.341 47.3211C153.408 48.3193 154.6 49.1726 155.667 50.1812C156.784 51.2437 157.821 52.3851 158.771 53.5963C159.691 54.7687 160.521 56.0083 161.253 57.3046C161.995 58.6183 162.528 60.0371 163.283 61.3404C163.507 61.7301 164.082 61.4611 163.992 61.0439C163.674 59.5854 162.914 58.2166 162.177 56.9271C161.407 55.5821 160.535 54.2964 159.57 53.0809C158.602 51.8598 157.534 50.7193 156.378 49.6709C155.264 48.6623 154.02 47.5814 152.655 46.9211C152.41 46.8022 152.134 47.109 152.35 47.3142L152.341 47.3211Z" fill="#333333"/>
<path d="M118.52 8.21094C116.667 8.91432 114.804 10.7572 114.163 12.6191C113.844 13.5544 113.75 14.5506 113.889 15.5282C114.027 16.5059 114.394 17.4378 114.961 18.2496C115.542 19.0498 116.317 19.6921 117.214 20.1175C118.111 20.5429 119.102 20.7376 120.094 20.6839C121.886 20.5563 123.521 19.5788 124.835 18.3634C123.752 18.6512 122.625 18.7423 121.509 18.6324C120.389 18.5194 119.324 18.0904 118.442 17.3963C117.166 16.3619 116.481 14.6931 116.469 13.0536C116.457 11.4141 117.338 9.85906 118.284 8.51953" fill="#333333"/>
<path d="M118.48 8.06744C114.519 9.47765 112.274 14.3203 114.558 18.0182C115.058 18.8174 115.737 19.4922 116.542 19.9907C117.347 20.4891 118.256 20.7981 119.199 20.8938C121.412 21.1093 123.438 19.9715 125.021 18.5406C125.218 18.3682 125.009 18.0665 124.774 18.1199C122.136 18.7233 119.005 18.4527 117.507 15.8943C116.049 13.4049 116.949 10.8275 118.513 8.65359C118.704 8.38637 118.254 8.1226 118.068 8.39499C116.41 10.8275 115.433 13.6997 117.199 16.3787C118.897 18.9647 122.124 19.2836 124.914 18.6199L124.667 18.1992C123.243 19.4836 121.457 20.58 119.453 20.48C118.515 20.428 117.604 20.1479 116.8 19.6645C115.996 19.1811 115.325 18.5092 114.844 17.7079C112.696 14.041 115.055 9.96036 118.596 8.34327C118.748 8.27259 118.64 8.01572 118.48 8.07261V8.06744Z" fill="#333333"/>
<path d="M118.459 8.65635C118.528 8.60621 118.587 8.54363 118.633 8.47189C118.659 8.4359 118.677 8.39384 118.683 8.34957C118.689 8.3053 118.684 8.26022 118.668 8.21846C118.663 8.2024 118.654 8.18762 118.643 8.17522C118.631 8.16283 118.617 8.15313 118.602 8.14684C118.586 8.14055 118.569 8.13784 118.552 8.13889C118.535 8.13995 118.519 8.14476 118.504 8.15295C118.435 8.1821 118.379 8.2363 118.348 8.30466C118.317 8.3719 118.277 8.43396 118.25 8.50292C118.207 8.6167 118.355 8.71497 118.452 8.65635H118.459Z" fill="#333333"/>
<path d="M118.643 8.39945C118.756 8.33911 118.916 8.20464 118.807 8.065C118.697 7.92536 118.527 8.04087 118.433 8.13051C118.405 8.16046 118.388 8.19936 118.386 8.24027C118.385 8.28117 118.397 8.32139 118.423 8.35375C118.448 8.3861 118.484 8.40846 118.524 8.41684C118.565 8.42521 118.607 8.41905 118.643 8.39945V8.39945Z" fill="#333333"/>
<path d="M118.452 8.37823C118.372 8.48512 118.296 8.59373 118.22 8.70234C118.162 8.78336 118.289 8.87473 118.357 8.8075L118.621 8.51615C118.63 8.50483 118.636 8.49195 118.639 8.47824C118.643 8.46453 118.644 8.45027 118.642 8.43626C118.64 8.42225 118.635 8.40878 118.628 8.3966C118.62 8.38443 118.611 8.37379 118.599 8.3653C118.588 8.35681 118.575 8.35063 118.561 8.34712C118.547 8.34361 118.533 8.34283 118.519 8.34483C118.505 8.34683 118.491 8.35157 118.479 8.35878C118.467 8.36599 118.456 8.37553 118.447 8.38685L118.452 8.37823Z" fill="#333333"/>
<path d="M118.619 8.11693C118.525 8.17583 118.444 8.2526 118.381 8.34277C118.311 8.43077 118.249 8.52482 118.197 8.62378C118.183 8.65025 118.179 8.68061 118.186 8.70961C118.192 8.7386 118.209 8.76443 118.233 8.78261C118.256 8.8008 118.286 8.81021 118.315 8.80923C118.345 8.80824 118.374 8.79692 118.397 8.77721C118.482 8.70652 118.56 8.62803 118.631 8.54275C118.708 8.46111 118.767 8.36493 118.805 8.26002C118.811 8.23537 118.81 8.20949 118.801 8.18552C118.793 8.16155 118.778 8.14052 118.757 8.125C118.737 8.10948 118.713 8.10013 118.687 8.09808C118.662 8.09604 118.636 8.10139 118.614 8.11348L118.619 8.11693Z" fill="#333333"/>
</g>
<defs>
<clipPath id="clip0">
<rect x="92" y="8" width="72" height="68" fill="white"/>
</clipPath>
</defs>
</svg>
