<svg width="138" height="138" viewBox="0 0 138 138" fill="none" xmlns="http://www.w3.org/2000/svg">
<path d="M61.4962 70.0004C60.981 70.02 60.5806 70.4549 60.6011 70.9701L61.5176 93.8955L59.6668 95.7463L57.816 93.8955L58.7326 70.9701C58.7531 70.4549 58.3527 70.02 57.8375 70.0004C57.3344 69.964 56.8883 70.3793 56.8678 70.8954L55.9344 94.2287C55.9232 94.4891 56.0231 94.742 56.207 94.9259L59.007 97.7259C59.189 97.9079 59.4279 97.9994 59.6668 97.9994C59.9058 97.9994 60.1447 97.9079 60.3267 97.7259L63.1267 94.9259C63.3106 94.742 63.4104 94.4891 63.3992 94.2287L62.4659 70.8954C62.4454 70.3793 62.0002 69.963 61.4962 70.0004Z" fill="white" stroke="white" stroke-width="0.2"/>
<path d="M48.7375 96.4045C48.5685 96.5809 48.4668 96.8245 48.4668 97.0672C48.4668 97.3098 48.5685 97.5525 48.7375 97.7298C48.9139 97.8978 49.1472 98.0005 49.4001 98.0005C49.6428 98.0005 49.8855 97.8978 50.0628 97.7298C50.2308 97.5525 50.3335 97.3098 50.3335 97.0672C50.3335 96.8245 50.2308 96.5809 50.0628 96.4045C49.7081 96.0592 49.0828 96.0592 48.7375 96.4045Z" fill="white" stroke="white" stroke-width="0.2"/>
<path d="M80.4733 44.1409L75.5331 49.081L74.3263 47.8742C73.9614 47.5093 73.3715 47.5093 73.0066 47.8742C72.6417 48.2391 72.6417 48.829 73.0066 49.1939L74.8733 51.0606C75.0553 51.2426 75.2942 51.3341 75.5331 51.3341C75.7721 51.3341 76.011 51.2426 76.193 51.0606L81.793 45.4606C82.1579 45.0957 82.1579 44.5058 81.793 44.1409C81.4281 43.776 80.8382 43.776 80.4733 44.1409Z" fill="white" stroke="white" stroke-width="0.2"/>
<path d="M96.0665 45.7334H88.5998C88.0837 45.7334 87.6665 46.1506 87.6665 46.6667C87.6665 47.1829 88.0837 47.6001 88.5998 47.6001H96.0665C96.5826 47.6001 96.9998 47.1829 96.9998 46.6667C96.9998 46.1506 96.5826 45.7334 96.0665 45.7334Z" fill="white" stroke="white" stroke-width="0.2"/>
<path d="M88.5998 51.3335H94.1998C94.7159 51.3335 95.1331 50.9163 95.1331 50.4001C95.1331 49.884 94.7159 49.4668 94.1998 49.4668H88.5998C88.0837 49.4668 87.6665 49.884 87.6665 50.4001C87.6665 50.9163 88.0837 51.3335 88.5998 51.3335Z" fill="white" stroke="white" stroke-width="0.2"/>
<path d="M84.2038 46.0041C84.0348 46.1805 83.9331 46.4241 83.9331 46.6668C83.9331 46.9094 84.0348 47.1521 84.2038 47.3294C84.3802 47.4974 84.6238 47.6001 84.8664 47.6001C85.1184 47.6001 85.3518 47.4974 85.5291 47.3294C85.6971 47.1521 85.7998 46.9094 85.7998 46.6668C85.7998 46.4241 85.6971 46.1805 85.5291 46.0041C85.1838 45.6588 84.5491 45.6588 84.2038 46.0041Z" fill="white" stroke="white" stroke-width="0.2"/>
<path d="M80.4733 55.3401L75.5331 60.2802L74.3263 59.0734C73.9614 58.7085 73.3715 58.7085 73.0066 59.0734C72.6417 59.4384 72.6417 60.0282 73.0066 60.3932L74.8733 62.2598C75.0553 62.4418 75.2942 62.5333 75.5331 62.5333C75.7721 62.5333 76.011 62.4418 76.193 62.2598L81.793 56.6598C82.1579 56.2949 82.1579 55.705 81.793 55.3401C81.4281 54.9752 80.8382 54.9752 80.4733 55.3401Z" fill="white" stroke="white" stroke-width="0.2"/>
<path d="M96.0665 56.9336H88.5998C88.0837 56.9336 87.6665 57.3508 87.6665 57.8669C87.6665 58.3831 88.0837 58.8003 88.5998 58.8003H96.0665C96.5826 58.8003 96.9998 58.3831 96.9998 57.8669C96.9998 57.3508 96.5826 56.9336 96.0665 56.9336Z" fill="white" stroke="white" stroke-width="0.2"/>
<path d="M88.5998 62.5337H94.1998C94.7159 62.5337 95.1331 62.1165 95.1331 61.6003C95.1331 61.0842 94.7159 60.667 94.1998 60.667H88.5998C88.0837 60.667 87.6665 61.0842 87.6665 61.6003C87.6665 62.1165 88.0837 62.5337 88.5998 62.5337Z" fill="white" stroke="white" stroke-width="0.2"/>
<path d="M84.2038 57.2043C84.0348 57.3807 83.9331 57.6243 83.9331 57.867C83.9331 58.1096 84.0348 58.3523 84.2038 58.5296C84.3802 58.6976 84.6238 58.8003 84.8664 58.8003C85.1091 58.8003 85.3518 58.6976 85.5291 58.5203C85.6971 58.3523 85.7998 58.1096 85.7998 57.867C85.7998 57.6243 85.6971 57.3807 85.5291 57.2043C85.1744 56.859 84.5584 56.859 84.2038 57.2043Z" fill="white" stroke="white" stroke-width="0.2"/>
<path d="M80.4733 66.5403L75.5331 71.4804L74.3263 70.2736C73.9614 69.9087 73.3715 69.9087 73.0066 70.2736C72.6417 70.6386 72.6417 71.2284 73.0066 71.5934L74.8733 73.46C75.0553 73.642 75.2942 73.7335 75.5331 73.7335C75.7721 73.7335 76.011 73.642 76.193 73.46L81.793 67.86C82.1579 67.4951 82.1579 66.9052 81.793 66.5403C81.4281 66.1754 80.8382 66.1754 80.4733 66.5403Z" fill="white" stroke="white" stroke-width="0.2"/>
<path d="M96.0665 68.1338H88.5998C88.0837 68.1338 87.6665 68.551 87.6665 69.0671C87.6665 69.5833 88.0837 70.0005 88.5998 70.0005H96.0665C96.5826 70.0005 96.9998 69.5833 96.9998 69.0671C96.9998 68.551 96.5826 68.1338 96.0665 68.1338Z" fill="white" stroke="white" stroke-width="0.2"/>
<path d="M96.0665 71.8662H88.5998C88.0837 71.8662 87.6665 72.2834 87.6665 72.7995C87.6665 73.3157 88.0837 73.7329 88.5998 73.7329H96.0665C96.5826 73.7329 96.9998 73.3157 96.9998 72.7995C96.9998 72.2834 96.5826 71.8662 96.0665 71.8662Z" fill="white" stroke="white" stroke-width="0.2"/>
<path d="M84.2038 68.4045C84.0348 68.5809 83.9331 68.8245 83.9331 69.0672C83.9331 69.3192 84.0348 69.5525 84.2038 69.7298C84.3802 69.8978 84.6135 70.0005 84.8664 70.0005C85.1184 70.0005 85.3518 69.8978 85.5291 69.7298C85.6971 69.5525 85.7998 69.3192 85.7998 69.0672C85.7998 68.8245 85.6971 68.5809 85.5291 68.4045C85.1838 68.0592 84.5491 68.0592 84.2038 68.4045Z" fill="white" stroke="white" stroke-width="0.2"/>
<path d="M80.4733 77.7405L75.5331 82.6806L74.3263 81.4738C73.9614 81.1089 73.3715 81.1089 73.0066 81.4738C72.6417 81.8388 72.6417 82.4286 73.0066 82.7935L74.8733 84.6602C75.0553 84.8422 75.2942 84.9337 75.5331 84.9337C75.7721 84.9337 76.011 84.8422 76.193 84.6602L81.793 79.0602C82.1579 78.6953 82.1579 78.1054 81.793 77.7405C81.4281 77.3756 80.8382 77.3756 80.4733 77.7405Z" fill="white" stroke="white" stroke-width="0.2"/>
<path d="M96.0665 79.333H88.5998C88.0837 79.333 87.6665 79.7502 87.6665 80.2663C87.6665 80.7825 88.0837 81.1997 88.5998 81.1997H96.0665C96.5826 81.1997 96.9998 80.7825 96.9998 80.2663C96.9998 79.7502 96.5826 79.333 96.0665 79.333Z" fill="white" stroke="white" stroke-width="0.2"/>
<path d="M88.5998 84.9331H92.3332C92.8493 84.9331 93.2665 84.5159 93.2665 83.9997C93.2665 83.4836 92.8493 83.0664 92.3332 83.0664H88.5998C88.0837 83.0664 87.6665 83.4836 87.6665 83.9997C87.6665 84.5159 88.0837 84.9331 88.5998 84.9331Z" fill="white" stroke="white" stroke-width="0.2"/>
<path d="M84.2038 79.6037C84.0348 79.7801 83.9331 80.0135 83.9331 80.2664C83.9331 80.5184 84.0348 80.7517 84.2038 80.9291C84.3802 81.0971 84.6135 81.1997 84.8664 81.1997C85.1091 81.1997 85.3518 81.0971 85.5291 80.9291C85.6971 80.7517 85.7998 80.5091 85.7998 80.2664C85.7998 80.0237 85.6971 79.7801 85.5291 79.6037C85.1744 79.2584 84.5491 79.2584 84.2038 79.6037Z" fill="white" stroke="white" stroke-width="0.2"/>
<path d="M80.4733 88.9407L75.5331 93.8808L74.3263 92.674C73.9614 92.3091 73.3715 92.3091 73.0066 92.674C72.6417 93.0389 72.6417 93.6288 73.0066 93.9937L74.8733 95.8604C75.0553 96.0424 75.2942 96.1339 75.5331 96.1339C75.7721 96.1339 76.011 96.0424 76.193 95.8604L81.793 90.2604C82.1579 89.8955 82.1579 89.3056 81.793 88.9407C81.4281 88.5758 80.8382 88.5758 80.4733 88.9407Z" fill="white" stroke="white" stroke-width="0.2"/>
<path d="M96.0665 90.5332H88.5998C88.0837 90.5332 87.6665 90.9504 87.6665 91.4665C87.6665 91.9827 88.0837 92.3999 88.5998 92.3999H96.0665C96.5826 92.3999 96.9998 91.9827 96.9998 91.4665C96.9998 90.9504 96.5826 90.5332 96.0665 90.5332Z" fill="white" stroke="white" stroke-width="0.2"/>
<path d="M94.1998 94.2666H88.5998C88.0837 94.2666 87.6665 94.6838 87.6665 95.1999C87.6665 95.7161 88.0837 96.1333 88.5998 96.1333H94.1998C94.7159 96.1333 95.1331 95.7161 95.1331 95.1999C95.1331 94.6838 94.7159 94.2666 94.1998 94.2666Z" fill="white" stroke="white" stroke-width="0.2"/>
<path d="M84.2038 90.8039C84.0348 90.9803 83.9331 91.2137 83.9331 91.4666C83.9331 91.7093 84.0348 91.9519 84.2038 92.1292C84.3802 92.2972 84.6238 92.3999 84.8664 92.3999C85.1091 92.3999 85.3518 92.2972 85.5291 92.1292C85.6971 91.9519 85.7998 91.7093 85.7998 91.4666C85.7998 91.2239 85.6971 90.9803 85.5291 90.8039C85.1744 90.4586 84.5584 90.4586 84.2038 90.8039Z" fill="white" stroke="white" stroke-width="0.2"/>
<path d="M70.3056 68.1781L64.4546 65.6338V63.489C65.2405 62.8963 66.661 61.4189 67.6345 58.0598C67.9714 57.6473 68.7442 56.5833 69.0092 55.2477C69.1791 54.4105 69.2174 52.8864 68.4549 52.0678C68.593 50.7556 68.7554 47.5599 67.3815 45.5C65.6595 42.9165 62.1493 42 59.6666 42C57.184 42 53.6737 42.9165 51.9508 45.5C50.5769 47.5599 50.7384 50.7556 50.8774 52.0678C50.1158 52.8864 50.1541 54.4096 50.3221 55.244C50.5872 56.5824 51.36 57.6464 51.6978 58.0598C52.6713 61.4198 54.0918 62.8973 54.8777 63.489V65.6338L44.3899 70.195C42.4896 71.02 41 73.2899 41 75.3638V97.0665C41 97.5826 41.4172 97.9998 41.9333 97.9998H45.6667C46.1828 97.9998 46.6 97.5826 46.6 97.0665C46.6 96.5504 46.1828 96.1332 45.6667 96.1332H42.8667V75.3638C42.8667 74.0468 43.926 72.4303 45.1337 71.9067L56.1834 67.1019C56.5241 66.9535 56.7453 66.6175 56.7453 66.2461V62.9803C56.7453 62.6285 56.5269 62.2962 56.2124 62.1375C56.1956 62.1291 54.5202 61.2434 53.4404 57.3608C53.4002 57.2198 53.3265 57.0864 53.2266 56.9781C53.2182 56.9688 52.3848 56.0457 52.1542 54.879C52.0245 54.2406 52.1113 53.5612 52.2373 53.3652C52.633 53.199 52.8673 52.7818 52.7964 52.3525C52.6209 51.2922 52.4081 48.1824 53.5057 46.5369C54.9085 44.4295 58.0389 43.8667 59.6666 43.8667C61.2943 43.8667 64.4247 44.4295 65.8294 46.5351C66.9223 48.174 66.7114 51.2894 66.5387 52.3516C66.4687 52.78 66.703 53.1972 67.0978 53.3633C67.2238 53.5593 67.3106 54.2388 67.1799 54.8809C66.9503 56.0438 66.1159 56.9669 66.1103 56.9744C66.0095 57.0826 65.9349 57.2152 65.8957 57.3589C64.8167 61.2397 63.1423 62.1263 63.1442 62.1263C62.8082 62.2757 62.5907 62.6107 62.5907 62.9785V66.2442C62.5907 66.6157 62.811 66.9526 63.1526 67.1001L69.5646 69.8879C69.6859 69.9411 69.8119 69.9654 69.9351 69.9654C70.2963 69.9654 70.6388 69.7554 70.7919 69.4035C70.9963 68.9331 70.7788 68.3834 70.3056 68.1781Z" fill="white" stroke="white" stroke-width="0.2"/>
<circle cx="68.916" cy="69.1592" r="53.126" stroke="white" stroke-width="1.83193" stroke-dasharray="4.58 4.58"/>
<circle cx="68.9157" cy="69.1594" r="67.3235" stroke="white" stroke-width="2.7479"/>
</svg>
