<svg width="138" height="138" viewBox="0 0 138 138" fill="none" xmlns="http://www.w3.org/2000/svg">
<path d="M53.5167 55.8829C52.522 62.936 57.7666 63.9306 58.3996 67.0955C57.857 67.0955 57.4953 67.4572 57.4953 67.9997C57.4953 68.5422 57.857 68.9039 58.3996 68.9039C62.2878 68.9039 64.5484 68.9039 67.5323 68.9039C68.0749 68.9039 68.4366 68.5422 68.4366 67.9997C68.4366 67.4572 68.0749 67.0955 67.5323 67.0955C68.1653 64.0211 72.5056 63.3881 72.5056 57.2393C72.5056 51.633 67.6228 47.1119 61.8357 47.7448C57.5858 48.1969 54.0592 51.633 53.5167 55.8829ZM62.1069 49.5533C66.809 49.0108 70.7876 52.7181 70.7876 57.2393C70.7876 63.0264 66.4473 62.5743 65.7239 67.0955H60.2985C59.6655 62.5743 54.4209 62.4839 55.3252 56.1542C55.7773 52.6277 58.5804 49.915 62.1069 49.5533Z" fill="white"/>
<path d="M67.5326 70.7129H58.3998C57.8573 70.7129 57.4956 71.0746 57.4956 71.6171C57.4956 72.1597 57.8573 72.5214 58.3998 72.5214H67.5326C68.0752 72.5214 68.4369 72.1597 68.4369 71.6171C68.4369 71.0746 67.9847 70.7129 67.5326 70.7129Z" fill="white"/>
<path d="M95.4735 71.6162H90.7715C90.5002 71.6162 90.2289 71.7066 90.0481 71.9779L86.7928 75.9565L83.5376 71.9779C83.3567 71.7971 83.0854 71.6162 82.8142 71.6162H78.1122C76.1228 71.6162 74.5856 73.2438 74.5856 75.1427V76.7704L72.325 75.7757C71.7825 75.5948 71.24 75.8661 71.0591 76.3182L67.3517 89.7913L66.8092 81.8341L67.8943 79.2118C67.9847 79.0309 67.9847 78.7597 67.8943 78.5788L66.7188 75.1427C66.6284 74.781 66.2667 74.5098 65.905 74.5098H60.1179C59.7562 74.5098 59.3945 74.781 59.304 75.1427L58.1285 78.5788C58.0381 78.7597 58.0381 79.0309 58.1285 79.2118L59.2136 81.8341L58.6711 89.7913L54.9637 76.4087C54.7829 75.8661 54.2403 75.5948 53.6978 75.8661L45.4692 79.4831C42.847 80.5681 41.1289 83.1904 41.1289 86.084V95.1263C41.1289 95.6689 41.4906 96.0306 42.0331 96.0306C57.6764 96.0306 68.6177 96.0306 83.8993 96.0306C84.4418 96.0306 84.8035 95.6689 84.8035 95.1263V88.7967H98.0958C98.6383 88.7967 99 88.435 99 87.8925V75.1427C99 73.1534 97.3724 71.6162 95.4735 71.6162ZM60.7508 76.2278H65.1816L65.9954 78.7597L65.1816 80.749H60.6604L59.8466 78.7597L60.7508 76.2278ZM42.9374 94.2221V86.084C42.9374 83.9138 44.2033 82.0149 46.1926 81.1107L53.5169 77.8554L58.0381 94.1317H42.9374V94.2221ZM60.1179 94.2221L60.9317 82.5575H65.0007L65.8145 94.2221H60.1179ZM82.995 94.2221H67.9847L72.5059 77.9459L79.8302 81.2011C81.8195 82.1053 83.0854 84.0042 83.0854 86.1744V94.2221H82.995ZM97.1915 86.9882H94.4788V79.3926C94.4788 78.8501 94.1171 78.4884 93.5746 78.4884C93.032 78.4884 92.6703 78.8501 92.6703 79.3926V86.9882H84.8035C84.7131 86.8074 85.4365 81.6532 80.5536 79.4831L76.3941 77.5842V75.1427C76.3941 74.1481 77.2079 73.4247 78.1122 73.4247H82.4525L86.1599 77.9459C86.5215 78.398 87.2449 78.398 87.6066 77.9459L91.314 73.4247H95.6543C96.649 73.4247 97.3724 74.2385 97.3724 75.1427V86.9882H97.1915Z" fill="white"/>
<path d="M86.7926 70.3508C89.7766 70.3508 92.218 67.9094 92.218 64.9254C92.218 61.9414 89.7766 59.5 86.7926 59.5C83.8086 59.5 81.3672 61.9414 81.3672 64.9254C81.2768 67.9094 83.7182 70.3508 86.7926 70.3508ZM86.7926 61.218C88.7819 61.218 90.4095 62.8457 90.4095 64.835C90.4095 66.8243 88.7819 68.4519 86.7926 68.4519C84.8033 68.4519 83.1757 66.8243 83.1757 64.835C83.0852 62.8457 84.7129 61.218 86.7926 61.218Z" fill="white"/>
<path d="M61.2027 56.4256L63.192 57.0586L61.8357 60.3138C61.6548 60.7659 61.8357 61.3085 62.2878 61.4893C62.7399 61.6702 63.2825 61.4893 63.4633 61.0372L65.1814 56.9682C65.3622 56.516 65.1814 55.8831 64.6388 55.7926L62.8303 55.0693L63.7346 53.5321C64.0059 53.0799 63.825 52.5374 63.3729 52.2661C62.9208 51.9949 62.3782 52.1757 62.107 52.6278L60.7506 55.1597C60.4793 55.7022 60.6602 56.2448 61.2027 56.4256Z" fill="white"/>
<path d="M62.9213 44.4899C63.4639 44.4899 63.8256 44.1282 63.8256 43.5857V40.873C63.8256 40.3304 63.4639 39.9688 62.9213 39.9688C62.3788 39.9688 62.0171 40.3304 62.0171 40.873V43.5857C62.0171 44.1282 62.4692 44.4899 62.9213 44.4899Z" fill="white"/>
<path d="M67.6228 45.3938C68.075 45.5747 68.6175 45.3938 68.7984 44.9417L69.793 42.4098C69.9739 41.9577 69.793 41.4152 69.3409 41.2343C68.8888 41.0535 68.3462 41.2343 68.1654 41.6865L67.1707 44.2183C66.8995 44.6704 67.1707 45.1226 67.6228 45.3938Z" fill="white"/>
<path d="M72.8678 47.9254L74.7667 46.0265C75.1284 45.6648 75.1284 45.1222 74.7667 44.7605C74.405 44.3988 73.8624 44.3988 73.5007 44.7605L71.6018 46.6594C71.2401 47.0211 71.2401 47.5637 71.6018 47.9254C71.8731 48.287 72.5061 48.287 72.8678 47.9254Z" fill="white"/>
<path d="M53.2454 48.1968C53.6071 48.5585 54.1496 48.5585 54.5113 48.1968C54.873 47.8351 54.873 47.2926 54.5113 46.9309L52.6124 45.032C52.2507 44.6703 51.7082 44.6703 51.3465 45.032C50.9848 45.3937 50.9848 45.9362 51.3465 46.2979L53.2454 48.1968Z" fill="white"/>
<path d="M57.2245 45.0324C57.4053 45.4845 57.9479 45.7558 58.4 45.4845C58.8521 45.3037 59.1234 44.7611 58.8521 44.309L57.8574 41.7771C57.6766 41.325 57.134 41.0538 56.6819 41.325C56.2298 41.5059 55.9585 42.0484 56.2298 42.5005L57.2245 45.0324Z" fill="white"/>
<circle cx="69.1343" cy="69.168" r="53.126" stroke="white" stroke-width="1.83193" stroke-dasharray="4.58 4.58"/>
<circle cx="69.1345" cy="69.1682" r="67.3235" stroke="white" stroke-width="2.7479"/>
</svg>
