<svg width="194" height="50" viewBox="0 0 194 50" fill="none" xmlns="http://www.w3.org/2000/svg">
<path d="M57.4 4.73586H56.7184C56.7431 3.98795 56.6982 3.39141 56.5839 2.94622C56.4695 2.50104 56.2543 2.16938 55.9381 1.94901C55.622 1.72865 55.1579 1.61958 54.548 1.61958L53.0234 1.63739L52.4315 11.3246C52.3956 12.0012 52.353 12.4709 52.3059 12.7313L53.7947 12.6601L53.7588 13.4436H49.6154L49.6513 12.856C50.0212 12.8449 50.297 12.7425 50.4764 12.5533C50.6557 12.3641 50.779 12.1259 50.8441 11.841C50.9091 11.5561 50.9539 11.1643 50.9786 10.6657L51.5346 1.63739L49.6871 1.65519C48.945 1.65519 48.4047 1.90227 48.0639 2.3942C47.7231 2.88612 47.5235 3.66742 47.463 4.73586H46.7993L47.1042 0.978516H57.4897L57.4 4.73586Z" fill="#17242A"/>
<path d="M61.1668 0.890365C60.9763 2.03003 60.8619 2.74233 60.826 3.02724C60.7431 3.63269 60.6444 4.50747 60.5301 5.65382C60.4157 6.80017 60.335 7.68608 60.2879 8.31601H60.3417C60.9045 6.80907 61.4695 5.76957 62.0368 5.19973C62.604 4.6299 63.2184 4.34498 63.8753 4.34498C64.5457 4.34498 65.0412 4.5609 65.3641 4.99495C65.6869 5.429 65.8484 5.98325 65.8484 6.65993C65.8484 7.45458 65.7475 8.59425 65.5434 10.0789C65.4111 11.016 65.3461 11.6348 65.3461 11.9309C65.3461 12.1913 65.3798 12.3939 65.4448 12.5363C65.5098 12.6788 65.6398 12.75 65.8304 12.75C66.0569 12.75 66.29 12.6098 66.53 12.3316C66.7699 12.0533 66.9716 11.617 67.1398 11.0227L67.5882 11.1474C67.4806 11.7172 67.2317 12.2759 66.8438 12.8213C66.456 13.3666 65.9448 13.6404 65.3102 13.6404C64.7721 13.6404 64.3955 13.5002 64.1802 13.2219C63.965 12.9437 63.8574 12.5119 63.8574 11.9309C63.8574 11.479 63.9358 10.6911 64.0905 9.56252C64.1152 9.40894 64.169 8.96598 64.252 8.23588C64.3349 7.50578 64.3775 6.84914 64.3775 6.26817C64.3775 5.99439 64.3125 5.74508 64.1802 5.52027C64.0479 5.29545 63.8282 5.18193 63.5166 5.18193C63.0031 5.18193 62.4762 5.56256 61.9381 6.32159C61.4 7.08063 60.9583 8.03332 60.6108 9.17967C60.2633 10.326 60.0906 11.4323 60.0906 12.5007C60.0906 12.7255 60.1018 13.0416 60.1265 13.4445H58.6557C58.6445 13.3377 58.6377 13.1841 58.6377 12.9815C58.6377 12.1023 58.7386 10.3906 58.9427 7.84412C59.1467 5.29767 59.344 3.37226 59.5346 2.06565C59.5592 1.92319 59.6131 1.60934 59.696 1.12186L58.4404 1.19309L58.5122 0.480797C59.2297 0.480797 59.7431 0.438505 60.0547 0.356146C60.3664 0.273787 60.6108 0.153588 60.7902 0H61.3103L61.1668 0.890365Z" fill="#17242A"/>
<path d="M74.6733 4.84431C75.1509 5.17597 75.3908 5.69238 75.3908 6.39354C75.3908 7.27278 74.8594 7.95391 73.7944 8.44138C72.7294 8.92886 71.4985 9.24939 70.0994 9.40298C70.0994 10.5182 70.2676 11.3551 70.6017 11.9138C70.9358 12.4725 71.4514 12.7508 72.1442 12.7508C72.6936 12.7508 73.2272 12.5705 73.7406 12.2076C74.2541 11.8448 74.7025 11.3084 75.0859 10.5961L75.6778 10.9344C75.1756 11.8715 74.6128 12.5571 73.9917 12.9912C73.3707 13.4252 72.6532 13.6411 71.8393 13.6411C70.7384 13.6411 69.9111 13.3006 69.3551 12.6172C68.799 11.9338 68.521 10.9945 68.521 9.79474C68.521 8.83315 68.6847 7.94055 69.0143 7.11474C69.3439 6.28893 69.8371 5.62115 70.4941 5.11142C71.151 4.60168 71.9469 4.3457 72.8797 4.3457C73.5971 4.3457 74.1935 4.51265 74.6733 4.84431ZM70.8528 6.0552C70.4335 6.79198 70.1891 7.69348 70.1174 8.76192C71.1577 8.61946 72.0478 8.33454 72.79 7.90716C73.5321 7.47979 73.9021 6.94557 73.9021 6.30451C73.9021 5.91275 73.7922 5.58999 73.5702 5.33401C73.3483 5.07803 73.0344 4.95115 72.6285 4.95115C71.8617 4.95115 71.2698 5.32065 70.8528 6.0552Z" fill="#17242A"/>
<path d="M47.1401 28.6607C47.5594 28.6495 47.8576 28.5538 48.037 28.3758C48.2163 28.1977 48.3172 27.9862 48.3419 27.7436C48.3666 27.501 48.3778 27.0758 48.3778 26.4704V18.7776C48.3778 18.279 48.3957 17.8516 48.4316 17.4955L47.1401 17.5667V16.7832H55.7678L55.8574 19.8995H55.2655C55.2655 18.9268 55.0525 18.2612 54.6288 17.9051C54.205 17.5489 53.6086 17.382 52.844 17.4065L51.3015 17.4421C50.871 17.4532 50.5593 17.5333 50.3688 17.6825C50.1782 17.8316 50.0571 18.0386 50.01 18.3057C49.9629 18.5728 49.9383 18.9913 49.9383 19.5611V22.4103L53.3104 22.4281L53.1848 20.8967H53.9741V24.6362H53.3822C53.3822 24.1977 53.3283 23.8616 53.2207 23.6301C53.1131 23.3986 52.9494 23.245 52.7275 23.1671C52.5055 23.0892 52.1983 23.0514 51.8037 23.0514L51.2477 23.0692L49.9383 23.1226V27.2005C49.9383 27.817 49.9203 28.28 49.8845 28.5894L53.3104 28.536C54.1467 28.5249 54.7879 28.3134 55.2296 27.9039C55.6713 27.4943 55.8933 26.7842 55.8933 25.7759H56.5032L56.3955 29.2483H47.1401V28.6607Z" fill="#17242A"/>
<path d="M58.0997 28.7149C58.4472 28.7149 58.6938 28.6281 58.8441 28.4567C58.9943 28.2853 59.0795 28.0716 59.1041 27.8156C59.1288 27.5597 59.1467 27.1367 59.158 26.5424L59.1759 22.4823C59.1759 21.9837 59.2006 21.5987 59.2476 21.3249L57.9741 21.3961V20.6482C58.6804 20.6482 59.1647 20.6103 59.427 20.5324C59.6893 20.4545 59.9113 20.3343 60.0907 20.1674H60.6108C60.6355 20.3922 60.6579 20.755 60.6826 21.2536C61.0884 20.8975 61.5525 20.6103 62.0727 20.39C62.5929 20.1696 63.1041 20.0605 63.6063 20.0605C64.6466 20.0605 65.4067 20.3833 65.8843 21.031C66.3618 21.6788 66.6017 22.6849 66.6017 24.0494V27.3616C66.6017 27.8958 66.5771 28.2987 66.53 28.5724L67.66 28.519V29.2491H64.0009V28.7149C64.3484 28.7149 64.5951 28.6281 64.7453 28.4567C64.8955 28.2853 64.9852 28.0649 65.0143 27.7978C65.0435 27.5307 65.0592 27.1122 65.0592 26.5424V24.0494C65.048 23.0277 64.8798 22.2598 64.5569 21.7433C64.2341 21.2269 63.7251 20.9687 63.0323 20.9687C62.6018 20.9687 62.1736 21.0756 61.7498 21.2893C61.3261 21.5029 60.9763 21.7812 60.7005 22.1262C60.7117 22.2575 60.7185 22.489 60.7185 22.8207L60.7005 27.3616C60.7005 27.8958 60.6759 28.2987 60.6288 28.5724L61.7588 28.519V29.2491H58.0997V28.7149Z" fill="#17242A"/>
<path d="M69.7583 26.2586L69.7942 21.0944L68.4131 21.1123V20.3465C68.9871 20.3354 69.4736 20.0772 69.8749 19.5719C70.2763 19.0666 70.5722 18.4946 70.7628 17.8535H71.3727V20.3465H74.386V21.041L71.3727 21.0744C71.3614 22.8908 71.3525 24.1484 71.3458 24.8496C71.339 25.5507 71.3368 25.9425 71.3368 26.0248C71.3368 26.8685 71.4377 27.4939 71.6417 27.9035C71.8457 28.3131 72.1978 28.5179 72.7 28.5179C73.0116 28.5179 73.3188 28.4222 73.6237 28.233C73.9287 28.0438 74.1955 27.7811 74.4219 27.4494L74.9062 27.8412C74.4399 28.529 73.9802 28.9831 73.5251 29.2035C73.0699 29.4238 72.6282 29.5329 72.1978 29.5329C70.5588 29.5329 69.7471 28.4422 69.7583 26.2586Z" fill="#17242A"/>
<path d="M75.767 28.7149C76.1146 28.7149 76.3612 28.6281 76.5114 28.4567C76.6616 28.2853 76.7513 28.0649 76.7805 27.7978C76.8096 27.5307 76.8253 27.1122 76.8253 26.5424V22.4823C76.8253 21.9837 76.85 21.5987 76.8971 21.3249L75.6235 21.3783V20.6482H76.1796C76.6347 20.6482 76.9621 20.6103 77.1661 20.5324C77.3701 20.4545 77.5607 20.3343 77.7401 20.1674H78.2602C78.3073 20.6304 78.3387 21.218 78.3499 21.9303C78.6481 21.4428 79.0764 21.011 79.6324 20.6304C80.1885 20.2497 80.7647 20.0605 81.3633 20.0605C81.7221 20.0605 82.0203 20.1563 82.2602 20.3455C82.5001 20.5347 82.6189 20.8151 82.6189 21.1824C82.6189 21.3716 82.5449 21.563 82.3947 21.7522C82.2445 21.9414 82.0337 22.0372 81.7579 22.0372C81.4956 22.0372 81.2804 21.9392 81.1122 21.7433C80.9441 21.5475 80.879 21.3137 80.9149 21.0399C80.4598 21.0288 80.0024 21.2002 79.5427 21.5564C79.0831 21.9125 78.6907 22.3866 78.3679 22.9809L78.3858 27.3616C78.3858 27.8958 78.3611 28.2987 78.3141 28.5724L79.4441 28.519V29.2491H75.767V28.7149Z" fill="#17242A"/>
<path d="M85.516 28.9553C84.8523 28.5702 84.3299 28.0182 83.9465 27.2992C83.5631 26.5802 83.3726 25.7522 83.3726 24.8151C83.3726 23.9848 83.5631 23.2035 83.9465 22.4734C84.3299 21.7433 84.8636 21.1579 85.5519 20.7194C86.2402 20.2809 87.0205 20.0605 87.8926 20.0605C88.5742 20.0605 89.1908 20.2097 89.7401 20.5057C90.2894 20.8018 90.7267 21.2447 91.0495 21.8324C91.3724 22.42 91.5338 23.1412 91.5338 23.996L85.2201 24.1028C85.2088 25.5274 85.4443 26.6381 85.9286 27.4328C86.4129 28.2274 87.164 28.6259 88.1796 28.6259C88.7289 28.6259 89.294 28.4834 89.8747 28.1985C90.4554 27.9136 90.8993 27.5641 91.211 27.1479L91.6414 27.504C91.1863 28.1918 90.5989 28.7038 89.8747 29.0354C89.1505 29.3671 88.442 29.534 87.7491 29.534C86.924 29.534 86.1797 29.3426 85.516 28.9553ZM89.8478 23.3549C89.8478 22.6426 89.6863 22.0305 89.3635 21.5207C89.0406 21.011 88.5563 20.755 87.9106 20.755C86.4285 20.755 85.5496 21.6209 85.2739 23.3549H89.8478Z" fill="#17242A"/>
<path d="M92.9685 33.2558C93.316 33.2558 93.5626 33.169 93.7128 32.9976C93.8631 32.8262 93.9483 32.6125 93.9729 32.3565C93.9976 32.1005 94.0155 31.6776 94.0267 31.0833L94.0626 22.4823C94.0626 21.9837 94.0873 21.5987 94.1344 21.3249L92.8608 21.3961V20.6482C93.5671 20.6482 94.0514 20.6103 94.3137 20.5324C94.576 20.4545 94.7913 20.3343 94.9594 20.1674H95.4976C95.5446 20.7484 95.5693 21.0689 95.5693 21.129C95.928 20.8085 96.3585 20.5502 96.8608 20.3544C97.363 20.1585 97.8585 20.0605 98.3495 20.0605C99.0558 20.0605 99.706 20.2408 100.305 20.6037C100.903 20.9665 101.383 21.4829 101.749 22.1529C102.114 22.8229 102.296 23.5975 102.296 24.4768C102.296 25.4628 102.087 26.3376 101.668 27.1033C101.249 27.8691 100.69 28.4656 99.9907 28.893C99.2912 29.3204 98.5356 29.534 97.7217 29.534C96.8966 29.534 96.1792 29.3382 95.5693 28.9464V31.9024C95.5693 32.4366 95.5446 32.8395 95.4976 33.1133L96.6276 33.0599V33.79H92.9685V33.2558ZM99.1477 28.3053C99.5602 27.9603 99.8809 27.4795 100.107 26.8629C100.334 26.2464 100.448 25.5452 100.448 24.7617C100.448 23.6932 100.217 22.7873 99.7576 22.0461C99.2979 21.3048 98.6118 20.9331 97.7038 20.9331C97.3092 20.9331 96.9258 21.0288 96.5558 21.218C96.1859 21.4072 95.863 21.6454 95.5872 21.9303C95.5984 22.0127 95.6052 22.3755 95.6052 23.0166L95.5872 28.1273C96.1971 28.5903 96.8966 28.8217 97.6858 28.8217C98.2464 28.8217 98.7352 28.6504 99.1477 28.3053Z" fill="#17242A"/>
<path d="M103.838 28.7149C104.186 28.7149 104.432 28.6281 104.583 28.4567C104.733 28.2853 104.823 28.0649 104.852 27.7978C104.881 27.5307 104.897 27.1122 104.897 26.5424V22.4823C104.897 21.9837 104.921 21.5987 104.968 21.3249L103.695 21.3783V20.6482H104.251C104.706 20.6482 105.033 20.6103 105.237 20.5324C105.441 20.4545 105.632 20.3343 105.811 20.1674H106.332C106.379 20.6304 106.41 21.218 106.421 21.9303C106.719 21.4428 107.148 21.011 107.704 20.6304C108.26 20.2497 108.836 20.0605 109.435 20.0605C109.793 20.0605 110.092 20.1563 110.331 20.3455C110.571 20.5347 110.69 20.8151 110.69 21.1824C110.69 21.3716 110.616 21.563 110.466 21.7522C110.316 21.9414 110.105 22.0372 109.829 22.0372C109.567 22.0372 109.352 21.9392 109.184 21.7433C109.015 21.5475 108.95 21.3137 108.986 21.0399C108.531 21.0288 108.074 21.2002 107.614 21.5564C107.154 21.9125 106.762 22.3866 106.439 22.9809L106.457 27.3616C106.457 27.8958 106.432 28.2987 106.385 28.5724L107.515 28.519V29.2491H103.838V28.7149Z" fill="#17242A"/>
<path d="M113.587 28.9553C112.924 28.5702 112.401 28.0182 112.018 27.2992C111.634 26.5802 111.444 25.7522 111.444 24.8151C111.444 23.9848 111.634 23.2035 112.018 22.4734C112.401 21.7433 112.935 21.1579 113.623 20.7194C114.312 20.2809 115.092 20.0605 115.964 20.0605C116.646 20.0605 117.262 20.2097 117.811 20.5057C118.361 20.8018 118.798 21.2447 119.121 21.8324C119.444 22.42 119.605 23.1412 119.605 23.996L113.291 24.1028C113.28 25.5274 113.516 26.6381 114 27.4328C114.484 28.2274 115.235 28.6259 116.251 28.6259C116.8 28.6259 117.365 28.4834 117.946 28.1985C118.527 27.9136 118.971 27.5641 119.282 27.1479L119.713 27.504C119.258 28.1918 118.67 28.7038 117.946 29.0354C117.222 29.3671 116.513 29.534 115.82 29.534C114.995 29.534 114.251 29.3426 113.587 28.9553ZM117.919 23.3549C117.919 22.6426 117.758 22.0305 117.435 21.5207C117.112 21.011 116.628 20.755 115.982 20.755C114.5 20.755 113.621 21.6209 113.345 23.3549H117.919Z" fill="#17242A"/>
<path d="M121.201 28.7149C121.549 28.7149 121.795 28.6281 121.946 28.4567C122.096 28.2853 122.181 28.0716 122.206 27.8156C122.23 27.5597 122.248 27.1367 122.26 26.5424L122.277 22.4823C122.277 21.9837 122.302 21.5987 122.349 21.3249L121.076 21.3961V20.6482C121.782 20.6482 122.266 20.6103 122.529 20.5324C122.791 20.4545 123.013 20.3343 123.192 20.1674H123.712C123.737 20.3922 123.759 20.755 123.784 21.2536C124.19 20.8975 124.654 20.6103 125.174 20.39C125.694 20.1696 126.206 20.0605 126.708 20.0605C127.748 20.0605 128.508 20.3833 128.986 21.031C129.463 21.6788 129.703 22.6849 129.703 24.0494V27.3616C129.703 27.8958 129.679 28.2987 129.632 28.5724L130.762 28.519V29.2491H127.102V28.7149C127.45 28.7149 127.697 28.6281 127.847 28.4567C127.997 28.2853 128.087 28.0649 128.116 27.7978C128.145 27.5307 128.161 27.1122 128.161 26.5424V24.0494C128.15 23.0277 127.981 22.2598 127.658 21.7433C127.336 21.2269 126.827 20.9687 126.134 20.9687C125.703 20.9687 125.275 21.0756 124.851 21.2893C124.428 21.5029 124.078 21.7812 123.802 22.1262C123.813 22.2575 123.82 22.489 123.82 22.8207L123.802 27.3616C123.802 27.8958 123.777 28.2987 123.73 28.5724L124.86 28.519V29.2491H121.201V28.7149Z" fill="#17242A"/>
<path d="M134.197 28.9553C133.533 28.5702 133.011 28.0182 132.627 27.2992C132.244 26.5802 132.053 25.7522 132.053 24.8151C132.053 23.9848 132.244 23.2035 132.627 22.4734C133.011 21.7433 133.544 21.1579 134.233 20.7194C134.921 20.2809 135.701 20.0605 136.573 20.0605C137.255 20.0605 137.871 20.2097 138.421 20.5057C138.97 20.8018 139.407 21.2447 139.73 21.8324C140.053 22.42 140.214 23.1412 140.214 23.996L133.901 24.1028C133.89 25.5274 134.125 26.6381 134.609 27.4328C135.094 28.2274 135.845 28.6259 136.86 28.6259C137.41 28.6259 137.975 28.4834 138.555 28.1985C139.136 27.9136 139.58 27.5641 139.892 27.1479L140.322 27.504C139.867 28.1918 139.28 28.7038 138.555 29.0354C137.831 29.3671 137.123 29.534 136.43 29.534C135.605 29.534 134.86 29.3426 134.197 28.9553ZM138.528 23.3549C138.528 22.6426 138.367 22.0305 138.044 21.5207C137.721 21.011 137.237 20.755 136.591 20.755C135.109 20.755 134.23 21.6209 133.955 23.3549H138.528Z" fill="#17242A"/>
<path d="M143.362 28.6601C142.889 28.0791 142.654 27.0752 142.654 25.6507V22.481C142.654 21.9824 142.678 21.5973 142.725 21.3235L141.488 21.3769V20.6468H142.044C142.51 20.6468 142.862 20.6045 143.102 20.5222C143.342 20.4398 143.544 20.3196 143.712 20.166H144.232V25.5972C144.232 26.6412 144.378 27.4069 144.672 27.8944C144.965 28.3819 145.452 28.6245 146.133 28.6245C146.575 28.6245 147.01 28.4931 147.434 28.2327C147.858 27.9723 148.203 27.6451 148.465 27.2533V22.6768C148.465 22.1181 148.494 21.6685 148.555 21.3235L147.263 21.3769V20.6468H147.819C148.286 20.6468 148.638 20.6045 148.878 20.5222C149.118 20.4398 149.319 20.3196 149.488 20.166H150.008L149.99 26.8972C149.99 27.585 149.965 28.1437 149.918 28.5711L151.21 28.4998V29.2477H148.645C148.584 28.8805 148.544 28.5243 148.519 28.1793C148.124 28.5711 147.665 28.8938 147.138 29.1498C146.611 29.4058 146.098 29.5326 145.595 29.5326C144.577 29.5326 143.833 29.2433 143.362 28.6601Z" fill="#17242A"/>
<path d="M152.517 28.7149C152.864 28.7149 153.111 28.6281 153.261 28.4567C153.411 28.2853 153.501 28.0649 153.53 27.7978C153.559 27.5307 153.575 27.1122 153.575 26.5424V22.4823C153.575 21.9837 153.599 21.5987 153.647 21.3249L152.373 21.3783V20.6482H152.929C153.384 20.6482 153.712 20.6103 153.916 20.5324C154.12 20.4545 154.31 20.3343 154.49 20.1674H155.01C155.057 20.6304 155.088 21.218 155.099 21.9303C155.398 21.4428 155.826 21.011 156.382 20.6304C156.938 20.2497 157.514 20.0605 158.113 20.0605C158.472 20.0605 158.77 20.1563 159.01 20.3455C159.25 20.5347 159.368 20.8151 159.368 21.1824C159.368 21.3716 159.294 21.563 159.144 21.7522C158.994 21.9414 158.783 22.0372 158.507 22.0372C158.245 22.0372 158.03 21.9392 157.862 21.7433C157.694 21.5475 157.629 21.3137 157.664 21.0399C157.209 21.0288 156.752 21.2002 156.292 21.5564C155.833 21.9125 155.44 22.3866 155.117 22.9809L155.135 27.3616C155.135 27.8958 155.111 28.2987 155.064 28.5724L156.194 28.519V29.2491H152.517V28.7149Z" fill="#17242A"/>
<path d="M162.42 29.3114C161.954 29.1623 161.552 28.9753 161.218 28.7505L161.29 29.3738H160.534L160.427 26.3109H160.983C161.007 26.7984 161.142 27.2302 161.386 27.6108C161.631 27.9915 161.954 28.2897 162.355 28.5101C162.756 28.7305 163.182 28.8396 163.637 28.8396C164.151 28.8396 164.608 28.7171 165.01 28.4745C165.411 28.2319 165.611 27.8846 165.611 27.4328C165.611 27.1011 165.512 26.8206 165.315 26.5958C165.117 26.371 164.873 26.184 164.579 26.0349C164.285 25.8858 163.877 25.7121 163.35 25.5096C162.716 25.2714 162.209 25.0488 161.826 24.8418C161.442 24.6348 161.115 24.3521 160.839 23.996C160.564 23.6398 160.427 23.188 160.427 22.6426C160.427 22.2508 160.523 21.8591 160.714 21.4673C160.904 21.0756 161.227 20.7439 161.682 20.4701C162.137 20.1963 162.741 20.0605 163.494 20.0605C163.864 20.0605 164.245 20.1206 164.633 20.2386C165.021 20.3566 165.384 20.5525 165.718 20.8263L165.682 20.1496H166.436V23.2659H165.862C165.826 22.5781 165.613 21.9815 165.225 21.4762C164.837 20.9709 164.29 20.7194 163.584 20.7194C163.046 20.7194 162.617 20.853 162.301 21.1201C161.985 21.3872 161.826 21.7055 161.826 22.0728C161.826 22.4178 161.931 22.7072 162.14 22.9453C162.348 23.1835 162.608 23.3838 162.92 23.5508C163.232 23.7177 163.649 23.9002 164.176 24.1028C164.797 24.3521 165.299 24.5836 165.682 24.7973C166.066 25.011 166.391 25.2937 166.66 25.6431C166.929 25.9926 167.063 26.4178 167.063 26.9164C167.063 27.4862 166.918 27.967 166.624 28.3588C166.33 28.7505 165.949 29.0443 165.476 29.2402C165.003 29.4361 164.498 29.534 163.96 29.534C163.4 29.534 162.886 29.4606 162.42 29.3114Z" fill="#17242A"/>
<path d="M168.409 28.715C168.756 28.715 169.007 28.6282 169.162 28.4568C169.317 28.2854 169.411 28.0628 169.44 27.789C169.469 27.5152 169.485 27.1012 169.485 26.5425V18.1196C169.485 17.6678 169.503 17.2827 169.539 16.9622L168.265 17.0334V16.2855C168.983 16.2855 169.494 16.2432 169.799 16.1608C170.104 16.0785 170.339 15.9583 170.507 15.8047H171.027V21.2359C171.447 20.8909 171.918 20.6104 172.444 20.3901C172.971 20.1697 173.478 20.0606 173.969 20.0606C174.998 20.0606 175.745 20.3812 176.211 21.0222C176.678 21.6633 176.917 22.6716 176.929 24.0495L176.947 27.3616C176.947 27.8959 176.922 28.2987 176.875 28.5725L178.005 28.5191V29.2492H174.346V28.715C174.693 28.715 174.94 28.6282 175.09 28.4568C175.24 28.2854 175.33 28.065 175.359 27.7979C175.388 27.5308 175.404 27.1123 175.404 26.5425V24.0495C175.404 23.0278 175.243 22.2665 174.92 21.7612C174.597 21.256 174.088 21.0044 173.395 21.0044C172.953 21.0044 172.514 21.109 172.077 21.3161C171.64 21.5231 171.29 21.7879 171.027 22.1085V27.3616C171.027 27.8246 170.998 28.2275 170.938 28.5725L172.068 28.5191V29.2492H168.409V28.715Z" fill="#17242A"/>
<path d="M179.332 28.7147C179.68 28.7147 179.927 28.6278 180.077 28.4564C180.227 28.2851 180.317 28.0647 180.346 27.7976C180.375 27.5305 180.391 27.112 180.391 26.5422V22.4821C180.391 22.1371 180.415 21.752 180.462 21.3246L179.189 21.3959V20.6479C179.895 20.6479 180.4 20.6057 180.705 20.5233C181.01 20.4409 181.245 20.3207 181.413 20.1671H181.933V27.3613C181.933 27.8955 181.909 28.2984 181.862 28.5722L182.992 28.5188V29.2489H179.332V28.7147ZM180.445 18.0926C180.254 17.8856 180.158 17.6385 180.158 17.3536C180.158 17.0687 180.256 16.8194 180.454 16.6057C180.651 16.392 180.875 16.2852 181.126 16.2852C181.402 16.2852 181.631 16.3898 181.817 16.5968C182.003 16.8038 182.095 17.0575 182.095 17.3536C182.095 17.6385 181.996 17.8856 181.799 18.0926C181.601 18.2996 181.371 18.4042 181.108 18.4042C180.857 18.4042 180.637 18.3018 180.445 18.0926Z" fill="#17242A"/>
<path d="M184.211 33.2558C184.559 33.2558 184.805 33.169 184.956 32.9976C185.106 32.8262 185.191 32.6125 185.216 32.3565C185.24 32.1005 185.258 31.6776 185.269 31.0833L185.305 22.4823C185.305 21.9837 185.33 21.5987 185.377 21.3249L184.104 21.3961V20.6482C184.81 20.6482 185.294 20.6103 185.556 20.5324C185.819 20.4545 186.034 20.3343 186.202 20.1674H186.74C186.787 20.7484 186.812 21.0689 186.812 21.129C187.171 20.8085 187.601 20.5502 188.103 20.3544C188.606 20.1585 189.101 20.0605 189.592 20.0605C190.298 20.0605 190.949 20.2408 191.547 20.6037C192.146 20.9665 192.626 21.4829 192.991 22.1529C193.357 22.8229 193.538 23.5975 193.538 24.4768C193.538 25.4628 193.33 26.3376 192.911 27.1033C192.491 27.8691 191.933 28.4656 191.233 28.893C190.534 29.3204 189.778 29.534 188.964 29.534C188.139 29.534 187.422 29.3382 186.812 28.9464V31.9024C186.812 32.4366 186.787 32.8395 186.74 33.1133L187.87 33.0599V33.79H184.211V33.2558ZM190.39 28.3053C190.803 27.9603 191.124 27.4795 191.35 26.8629C191.576 26.2464 191.691 25.5452 191.691 24.7617C191.691 23.6932 191.46 22.7873 191 22.0461C190.541 21.3048 189.855 20.9331 188.946 20.9331C188.552 20.9331 188.168 21.0288 187.799 21.218C187.429 21.4072 187.106 21.6454 186.83 21.9303C186.841 22.0127 186.848 22.3755 186.848 23.0166L186.83 28.1273C187.44 28.5903 188.139 28.8217 188.929 28.8217C189.491 28.8217 189.978 28.6504 190.39 28.3053Z" fill="#17242A"/>
<path d="M46.0459 44.4639C46.3441 44.4639 46.584 44.3949 46.7634 44.2591C46.9427 44.1233 47.0885 43.9452 47.2028 43.7249C47.3172 43.5045 47.4517 43.1751 47.6064 42.7366L47.7858 42.2379L51.4808 32.248H51.9112L55.9112 42.3804C56.0434 42.7009 56.1555 43.0482 56.252 43.4221C56.3484 43.7961 56.3887 44.101 56.3775 44.3392L57.5972 44.268V45.0515H53.4897V44.4639C54.1959 44.4527 54.548 44.1678 54.548 43.6091C54.548 43.3843 54.4874 43.1038 54.3686 42.7722L53.7408 41.0983L49.0772 41.2051C48.8979 41.6926 48.6893 42.327 48.4494 43.1105C48.3306 43.5023 48.1804 43.9118 48.001 44.3392L49.4001 44.268V45.0515H46.0459V44.4639ZM53.4897 40.4394L52.2162 37.0382L51.409 34.8479H51.3731L50.6198 36.8601L49.6512 39.5669L49.3463 40.4394H53.4897Z" fill="#17242A"/>
<path d="M60.3145 44.7847C59.6396 44.4175 59.1037 43.8877 58.7091 43.1999C58.3145 42.5121 58.1172 41.6974 58.1172 40.7603C58.1172 39.93 58.3167 39.1376 58.7181 38.383C59.1194 37.6284 59.6754 37.0208 60.3862 36.5578C61.0969 36.0948 61.9019 35.8633 62.7987 35.8633C63.4444 35.8633 64.0184 35.9634 64.5206 36.166C65.0229 36.3686 65.4152 36.6357 65.6955 36.9673C65.9758 37.299 66.117 37.6618 66.117 38.0536C66.117 38.3274 66.0385 38.5522 65.8838 38.7303C65.7291 38.9083 65.5139 38.9974 65.2381 38.9974C64.9758 38.9974 64.7785 38.9106 64.6462 38.7392C64.5139 38.5678 64.4489 38.3852 64.4489 38.196C64.4489 37.9 64.5386 37.6618 64.7179 37.4837C64.5857 37.1165 64.3323 36.8627 63.9556 36.7269C63.579 36.5912 63.2045 36.5221 62.8346 36.5221C62.2853 36.5221 61.792 36.6713 61.3548 36.9673C60.9176 37.2634 60.5745 37.6974 60.3234 38.2673C60.0723 38.8371 59.9467 39.5205 59.9467 40.3151C59.9467 41.1098 60.0745 41.8176 60.3324 42.4342C60.5902 43.0508 60.9512 43.536 61.4176 43.8855C61.8839 44.2349 62.422 44.4108 63.0319 44.4108C63.57 44.4108 64.0991 44.2661 64.6193 43.9745C65.1395 43.6829 65.5498 43.3179 65.848 42.8794L66.3143 43.2355C65.8726 43.9233 65.3009 44.4464 64.6014 44.8026C63.9018 45.1587 63.218 45.3368 62.5476 45.3368C61.7337 45.3368 60.9893 45.1542 60.3145 44.7847Z" fill="#17242A"/>
<path d="M68.1891 44.7491C67.7295 44.3574 67.4985 43.8476 67.4985 43.2177C67.4985 42.5299 67.7766 41.9467 68.3326 41.4726C68.8886 40.9985 69.5882 40.6445 70.4312 40.413C71.2742 40.1816 72.1195 40.0725 72.9693 40.0836V38.9796C72.9693 38.2072 72.8549 37.6062 72.6285 37.1721C72.402 36.7381 71.9177 36.5221 71.1756 36.5221C70.8056 36.5221 70.4514 36.6001 70.1173 36.7536C69.7832 36.9072 69.5366 37.1387 69.3819 37.4481C69.5366 37.6151 69.6151 37.8399 69.6151 38.1248C69.6151 38.3029 69.5501 38.4721 69.4178 38.6323C69.2855 38.7926 69.0949 38.8727 68.8438 38.8727C68.5927 38.8727 68.3954 38.7926 68.2519 38.6323C68.1084 38.4721 68.0366 38.2606 68.0366 38.0002C68.0366 37.6084 68.1891 37.25 68.494 36.9228C68.799 36.5956 69.2227 36.3374 69.7675 36.1482C70.3124 35.959 70.9177 35.8633 71.5881 35.8633C72.5926 35.8633 73.3347 36.1282 73.8123 36.6557C74.2899 37.1832 74.523 38.018 74.5118 39.1576L74.4939 43.1643C74.4939 43.5449 74.4692 43.9478 74.4222 44.3752L75.6957 44.3039V45.0519H73.1307C73.0948 44.8738 73.0522 44.5354 73.0051 44.0368C72.133 44.9027 71.1935 45.3368 70.1891 45.3368C69.3146 45.3368 68.6487 45.1431 68.1891 44.7491ZM71.8393 44.0635C72.2092 43.8922 72.5859 43.6273 72.9693 43.2711C72.9581 43.093 72.9513 42.7903 72.9513 42.3629L72.9693 40.6891C71.9895 40.7247 71.115 40.9228 70.3505 41.2856C69.5859 41.6484 69.2025 42.2027 69.2025 42.9506C69.2025 43.3891 69.3348 43.7274 69.5971 43.9656C69.8595 44.2038 70.1958 44.3218 70.6016 44.3218C71.0545 44.3218 71.4671 44.2372 71.8393 44.0635Z" fill="#17242A"/>
<path d="M78.7808 44.7848C78.1956 44.4176 77.7338 43.8945 77.3997 43.2178C77.0656 42.5411 76.8975 41.7509 76.8975 40.8494C76.8975 39.899 77.0948 39.0442 77.4894 38.2852C77.884 37.5261 78.4311 36.9318 79.1306 36.5044C79.8301 36.0771 80.6216 35.8634 81.5072 35.8634C81.8772 35.8634 82.2583 35.9146 82.6462 36.0147C83.0341 36.1149 83.3547 36.2306 83.6058 36.362V33.9224C83.6058 33.4705 83.6238 33.0854 83.6596 32.7649L82.3861 32.8361V32.0882C83.0924 32.0882 83.5969 32.0459 83.9018 31.9636C84.2067 31.8812 84.4421 31.761 84.6103 31.6074H85.1305V43.1644C85.1305 43.545 85.1058 43.9479 85.0587 44.3753L86.3322 44.304V45.0519H83.7673C83.7067 44.7314 83.6664 44.422 83.6417 44.126C83.2942 44.5066 82.8727 44.8026 82.3772 45.0163C81.8817 45.23 81.3458 45.3369 80.7718 45.3369C80.0297 45.3369 79.366 45.1543 78.7808 44.7848ZM82.5924 44.1349C82.9937 43.9145 83.3301 43.634 83.6058 43.289C83.5946 43.0998 83.5879 42.7726 83.5879 42.3096L83.6058 37.1811C83.0431 36.7649 82.3794 36.5579 81.6148 36.5579C80.7539 36.5579 80.0611 36.9118 79.5342 37.6174C79.0073 38.323 78.745 39.2579 78.745 40.422C78.745 41.6329 78.9781 42.6101 79.4445 43.3513C79.9108 44.0926 80.5678 44.4643 81.4175 44.4643C81.7987 44.4643 82.1911 44.3552 82.5924 44.1349Z" fill="#17242A"/>
<path d="M89.767 44.758C89.1033 44.3729 88.5809 43.8209 88.1975 43.102C87.8141 42.383 87.6235 41.5549 87.6235 40.6178C87.6235 39.7876 87.8141 39.0063 88.1975 38.2762C88.5809 37.5461 89.1145 36.9607 89.8029 36.5221C90.4912 36.0836 91.2714 35.8633 92.1436 35.8633C92.8252 35.8633 93.4418 36.0124 93.9911 36.3085C94.5404 36.6045 94.9776 37.0475 95.3005 37.6351C95.6234 38.2227 95.7848 38.9439 95.7848 39.7987L89.471 39.9055C89.4598 41.3301 89.6952 42.4409 90.1795 43.2355C90.6638 44.0302 91.4149 44.4286 92.4306 44.4286C92.9799 44.4286 93.5449 44.2861 94.1256 44.0012C94.7063 43.7163 95.1503 43.3668 95.4619 42.9506L95.8924 43.3067C95.4373 43.9945 94.8498 44.5065 94.1256 44.8382C93.4014 45.1698 92.6929 45.3368 92.0001 45.3368C91.175 45.3368 90.4307 45.1453 89.767 44.758ZM94.0987 39.1576C94.0987 38.4453 93.9373 37.8332 93.6144 37.3235C93.2916 36.8137 92.8073 36.5578 92.1616 36.5578C90.6795 36.5578 89.8006 37.4236 89.5248 39.1576H94.0987Z" fill="#17242A"/>
<path d="M97.3813 44.5176C97.7288 44.5176 97.9754 44.4308 98.1257 44.2594C98.2759 44.088 98.3656 43.8677 98.3947 43.6006C98.4239 43.3334 98.4396 42.915 98.4396 42.3451V38.2851C98.4396 37.7865 98.4642 37.4014 98.5113 37.1276L97.2378 37.1988V36.4509C97.9441 36.4509 98.4284 36.4131 98.6907 36.3352C98.953 36.2573 99.175 36.1371 99.3543 35.9701H99.8745C99.8992 36.1482 99.9216 36.4621 99.9463 36.9139C100.316 36.5934 100.735 36.3374 101.202 36.1482C101.668 35.959 102.128 35.8633 102.583 35.8633C103.168 35.8633 103.668 35.9679 104.081 36.1749C104.493 36.3819 104.814 36.6757 105.04 37.0564C105.471 36.7114 105.953 36.4264 106.484 36.2016C107.016 35.9768 107.527 35.8633 108.018 35.8633C109.069 35.8633 109.838 36.1816 110.323 36.816C110.807 37.4504 111.038 38.4631 111.013 39.8521L110.995 43.1643C110.995 43.6985 110.971 44.1014 110.924 44.3752L112.054 44.3218V45.0519H108.395V44.5176C108.742 44.5176 108.989 44.4308 109.139 44.2594C109.289 44.088 109.379 43.8677 109.408 43.6006C109.437 43.3334 109.453 42.915 109.453 42.3451V39.8521C109.453 38.8304 109.291 38.0692 108.968 37.5639C108.646 37.0586 108.137 36.8071 107.444 36.8071C107.074 36.8071 106.699 36.8872 106.323 37.0475C105.946 37.2077 105.614 37.4192 105.327 37.6796C105.446 38.0469 105.507 38.481 105.507 38.9796L105.471 43.1643C105.471 43.6985 105.446 44.1014 105.399 44.3752L106.529 44.3218V45.0519H102.87V44.5176C103.217 44.5176 103.464 44.4308 103.614 44.2594C103.765 44.088 103.85 43.8743 103.874 43.6184C103.899 43.3624 103.917 42.9395 103.928 42.3451L103.946 39.8521C103.957 38.8193 103.809 38.0469 103.498 37.5372C103.186 37.0274 102.691 36.7715 102.009 36.7715C101.639 36.7715 101.271 36.8494 100.906 37.0029C100.54 37.1565 100.227 37.3658 99.9642 37.6262L99.9821 38.5878V43.1643C99.9821 43.6985 99.9575 44.1014 99.9104 44.3752L101.04 44.3218V45.0519H97.3813V44.5176Z" fill="#17242A"/>
<path d="M113.704 49.5949C113.453 49.4057 113.327 49.1386 113.327 48.7936C113.327 48.5688 113.401 48.3684 113.551 48.197C113.702 48.0256 113.894 47.9388 114.134 47.9388C114.374 47.9388 114.549 48.0212 114.663 48.1881C114.778 48.3551 114.834 48.5265 114.834 48.7045C114.834 48.8114 114.827 48.8937 114.816 48.9538C114.852 48.9783 114.917 48.9895 115.013 48.9895C115.168 48.9895 115.327 48.9294 115.488 48.8114C115.65 48.6934 115.796 48.5198 115.928 48.295C116.204 47.8431 116.621 46.8281 117.183 45.2499L114.385 39.3023C113.883 38.2338 113.567 37.4147 113.435 36.8449L112.574 36.8805V36.1504H116.287V36.6846H116.215C115.652 36.7202 115.372 36.9584 115.372 37.3969C115.372 37.6929 115.515 38.1559 115.802 38.7859L117.901 43.2555C118.26 42.2472 118.773 40.7558 119.444 38.7859C119.849 37.6106 120.143 36.9517 120.322 36.8093L119.085 36.8805V36.1504H121.901V36.6846C121.495 36.8382 121.181 37.0853 120.959 37.4236C120.737 37.762 120.495 38.2873 120.233 38.9996L117.991 45.2143C117.56 46.4141 117.204 47.3178 116.923 47.9299C116.643 48.542 116.325 49.0184 115.973 49.3634C115.621 49.7084 115.186 49.8798 114.672 49.8798C114.278 49.8776 113.955 49.7841 113.704 49.5949Z" fill="#17242A"/>
<path d="M19.7305 3.37891C8.8339 3.37891 0 12.149 0 22.9669C0 33.7849 8.8339 42.555 19.7305 42.555C24.6273 42.555 29.1025 40.7854 32.5531 37.8539C29.8738 36.3536 29.1743 34.3325 29.1249 34.1789C29.0689 34.0052 29.0397 33.825 29.0397 33.6424V20.6564C29.0397 14.9514 24.3672 10.3126 18.6207 10.3126C16.2328 10.3126 13.8988 11.1362 12.0491 12.6276C11.289 13.2419 10.1724 13.124 9.55361 12.3716C8.93703 11.617 9.05362 10.5085 9.81145 9.89415C12.2912 7.89306 15.4212 6.79123 18.6207 6.79123C26.3223 6.79123 32.5868 13.0104 32.5868 20.6564V33.2484C32.8199 33.6357 33.5083 34.5283 35.1472 35.1872C37.8467 31.8372 39.4588 27.5902 39.4588 22.9669C39.4611 12.149 30.6272 3.37891 19.7305 3.37891ZM17.0691 17.391C22.6722 17.391 27.2304 21.9163 27.2304 27.4789V27.5879C27.2304 28.4783 26.5039 29.2017 25.6048 29.2017H13.8562C12.9594 29.2017 12.2307 28.4805 12.2307 27.5879C12.2307 26.6976 12.9571 25.9742 13.8562 25.9742H23.8112C23.1206 22.9135 20.3606 20.6164 17.0714 20.6164C13.2598 20.6164 10.1612 23.6926 10.1612 27.4766C10.1612 31.2607 13.2598 34.3369 17.0714 34.3369C18.9435 34.3369 20.6969 33.6046 22.0063 32.2779C22.6363 31.6391 23.6654 31.6302 24.3044 32.2535C24.9479 32.8789 24.9569 33.9006 24.3291 34.535C22.4009 36.4894 19.8225 37.5645 17.0714 37.5645C11.4684 37.5645 6.91017 33.0392 6.91017 27.4766C6.91017 21.9163 11.4684 17.391 17.0691 17.391Z" fill="#17242A"/>
</svg>
