<svg width="80" height="81" viewBox="0 0 80 81" fill="none" xmlns="http://www.w3.org/2000/svg">
<path d="M40.0021 79.5628C61.3007 79.5628 78.5667 62.2968 78.5667 40.9982C78.5667 19.6996 61.3007 2.43359 40.0021 2.43359C18.7035 2.43359 1.4375 19.6996 1.4375 40.9982C1.4375 62.2968 18.7035 79.5628 40.0021 79.5628Z" fill="#00007A"/>
<path d="M32.375 55.1381V26.8574L55.8229 40.9978L32.375 55.1381Z" fill="#00007A"/>
<path d="M68.1779 12.8202C64.4846 9.08744 60.0901 6.12142 55.2468 4.0926C50.4036 2.06377 45.2071 1.01216 39.9561 0.998188C34.7051 0.98422 29.5031 2.00818 24.6491 4.0112C19.7951 6.01423 15.3849 8.95683 11.6718 12.6699C7.95878 16.3829 5.01618 20.7932 3.01316 25.6471C1.01013 30.5011 -0.0138271 35.7031 0.000141003 40.9541C0.0141091 46.2051 1.06573 51.4016 3.09455 56.2449C5.12337 61.0881 8.08939 65.4827 11.8221 69.1759C15.5154 72.9087 19.9099 75.8747 24.7532 77.9035C29.5964 79.9323 34.7929 80.9839 40.0439 80.9979C45.2949 81.0119 50.4969 79.9879 55.3509 77.9849C60.2049 75.9819 64.6151 73.0393 68.3282 69.3262C72.0412 65.6132 74.9838 61.2029 76.9868 56.3489C78.9899 51.495 80.0138 46.293 79.9999 41.042C79.9859 35.7909 78.9343 30.5945 76.9054 25.7512C74.8766 20.9079 71.9106 16.5134 68.1779 12.8202ZM66.3605 67.3586C59.3693 74.3498 49.8871 78.2774 40 78.2774C30.1129 78.2774 20.6307 74.3498 13.6395 67.3586C6.64825 60.3673 2.72061 50.8852 2.72061 40.998C2.72061 31.1109 6.64825 21.6288 13.6395 14.6375C20.6307 7.64629 30.1129 3.71865 40 3.71865C49.8871 3.71865 59.3693 7.64629 66.3605 14.6375C73.3518 21.6288 77.2794 31.1109 77.2794 40.998C77.2794 50.8852 73.3518 60.3673 66.3605 67.3586Z" fill="white"/>
<path d="M28.2442 74.098C28.0811 74.0979 27.9195 74.0668 27.7681 74.0062C21.0793 71.3374 15.3444 66.7241 11.3045 60.7624C7.26459 54.8006 5.10525 47.7644 5.10547 40.5628C5.10547 40.2219 5.2409 39.8949 5.48198 39.6539C5.72305 39.4128 6.05002 39.2773 6.39096 39.2773C6.73189 39.2773 7.05886 39.4128 7.29993 39.6539C7.54101 39.8949 7.67644 40.2219 7.67644 40.5628C7.67603 47.2503 9.68107 53.7842 13.4325 59.3204C17.1839 64.8565 22.5093 69.1405 28.7207 71.6187C28.9981 71.7296 29.2282 71.9336 29.3716 72.1957C29.5149 72.4578 29.5625 72.7617 29.5061 73.0551C29.4497 73.3485 29.2929 73.613 29.0626 73.8034C28.8324 73.9937 28.543 74.0978 28.2442 74.098Z" fill="white"/>
<path d="M34.6735 75.9628C34.5936 75.9628 34.5139 75.9554 34.4354 75.9406C33.5424 75.7734 32.6452 75.5696 31.7688 75.3349C31.604 75.2929 31.4491 75.2185 31.3132 75.1163C31.1773 75.014 31.063 74.8857 30.9771 74.7389C30.8911 74.5921 30.8351 74.4298 30.8123 74.2612C30.7896 74.0926 30.8005 73.9212 30.8445 73.7569C30.8885 73.5926 30.9646 73.4386 31.0685 73.3039C31.1724 73.1692 31.302 73.0565 31.4498 72.9723C31.5976 72.8881 31.7607 72.8341 31.9295 72.8133C32.0983 72.7926 32.2696 72.8055 32.4334 72.8515C33.2469 73.0692 34.0796 73.2585 34.9088 73.4139C35.2238 73.4725 35.5057 73.6467 35.699 73.9024C35.8923 74.158 35.9831 74.4766 35.9536 74.7958C35.9242 75.1149 35.7766 75.4116 35.5398 75.6275C35.303 75.8435 34.994 75.9632 34.6735 75.9631V75.9628Z" fill="white"/>
<path d="M32.3714 56.423C32.0305 56.423 31.7035 56.2875 31.4624 56.0465C31.2214 55.8054 31.0859 55.4784 31.0859 55.1375V26.8568C31.0859 26.6291 31.1464 26.4054 31.2612 26.2088C31.376 26.0121 31.541 25.8494 31.7393 25.7375C31.9376 25.6255 32.1621 25.5682 32.3898 25.5714C32.6175 25.5747 32.8402 25.6383 33.0352 25.7559L56.4831 39.8963C56.6728 40.0107 56.8296 40.1721 56.9385 40.365C57.0474 40.5578 57.1046 40.7755 57.1046 40.997C57.1046 41.2184 57.0474 41.4361 56.9385 41.629C56.8296 41.8218 56.6728 41.9833 56.4831 42.0977L33.0352 56.238C32.8349 56.3589 32.6054 56.4229 32.3714 56.423ZM33.6569 29.1332V52.8611L53.3302 40.9971L33.6569 29.1332Z" fill="white"/>
</svg>
