<?xml version="1.0" encoding="UTF-8"?>
<svg xmlns="http://www.w3.org/2000/svg" id="Layer_1" width="186" height="106" viewBox="0 0 186 106">
  <g>
    <path d="M11.4836,84.4217h4.2294c1.0608,0,2.0024,.2228,2.8244,.6682,.8218,.4457,1.4599,1.0706,1.9139,1.8756,.454,.8047,.681,1.7288,.681,2.7712,0,1.0429-.227,1.9665-.681,2.7715-.454,.8047-1.0921,1.4299-1.9139,1.8753-.8221,.4457-1.7636,.6682-2.8244,.6682h-4.2294v-10.6299Zm4.1435,9.3089c.8121,0,1.5269-.1671,2.1432-.5011,.6166-.3342,1.0921-.8023,1.4267-1.4047,.3343-.6022,.5018-1.2983,.5018-2.0881s-.1674-1.4857-.5018-2.0881c-.3346-.6022-.8101-1.0706-1.4267-1.4044-.6163-.3342-1.331-.5011-2.1432-.5011h-2.71v7.9876h2.71Z"></path>
    <path d="M34.7955,84.4217h1.4336v10.63h-1.4336v-10.63Z"></path>
    <path d="M57.104,92.3942h-5.3334l-1.1038,2.6574h-1.4768l4.5448-10.63h1.4192l4.5594,10.63h-1.5054l-1.1041-2.6574Zm-.5018-1.2149l-2.1649-5.2086-2.1649,5.2086h4.3298Z"></path>
    <path d="M81.9784,95.0517l-.0143-7.7445-3.6272,6.4537h-.6595l-3.6273-6.4083v7.699h-1.3763v-10.63h1.1757l4.1864,7.4713,4.1289-7.4713h1.1757l.0143,10.63h-1.3764Z"></path>
    <path d="M99.6273,94.4671c-.8124-.4709-1.4505-1.1212-1.9142-1.9513-.4637-.8302-.6953-1.7564-.6953-2.7791s.2316-1.9487,.6953-2.7787c.4637-.8302,1.1018-1.4808,1.9142-1.9513,.8124-.4709,1.725-.7061,2.7383-.7061,1.0036,0,1.9116,.2353,2.724,.7061,.8124,.4705,1.4479,1.1185,1.907,1.9438,.4586,.825,.6882,1.7537,.6882,2.7864s-.2295,1.9616-.6882,2.7866c-.4591,.8253-1.0946,1.4729-1.907,1.9438-.8124,.4705-1.7204,.7061-2.724,.7061-1.0133,0-1.9259-.2356-2.7383-.7061h0Zm4.724-1.1771c.5879-.3541,1.0512-.8428,1.3907-1.4654,.3389-.6227,.5092-1.3186,.5092-2.0881s-.1703-1.4654-.5092-2.0881c-.3395-.6224-.8026-1.1109-1.3907-1.4654-.5879-.3541-1.25-.5315-1.9858-.5315-.7362,0-1.4029,.1774-2,.5315-.5977,.3544-1.066,.8428-1.4049,1.4654-.3395,.6227-.5092,1.3189-.5092,2.0881s.1697,1.4654,.5092,2.0881c.3389,.6224,.8073,1.1112,1.4049,1.4654,.5971,.3544,1.2639,.5315,2,.5315,.7357,0,1.3978-.1771,1.9858-.5315Z"></path>
    <path d="M129.9787,84.4217v10.63h-1.1754l-6.0216-7.927v7.927h-1.434v-10.63h1.1759l6.0216,7.927v-7.927h1.4335Z"></path>
    <path d="M144.4591,84.4217h4.2296c1.0609,0,2.0021,.2228,2.8242,.6682,.8221,.4457,1.4601,1.0706,1.9142,1.8756,.454,.8047,.681,1.7288,.681,2.7712,0,1.0429-.227,1.9665-.681,2.7715-.454,.8047-1.0921,1.4299-1.9142,1.8753-.8221,.4457-1.7633,.6682-2.8242,.6682h-4.2296v-10.6299Zm4.1438,9.3089c.8124,0,1.5266-.1671,2.1432-.5011,.6166-.3342,1.0921-.8023,1.4264-1.4047,.3349-.6022,.502-1.2983,.502-2.0881s-.1672-1.4857-.502-2.0881c-.3343-.6022-.8098-1.0706-1.4264-1.4044-.6166-.3342-1.3308-.5011-2.1432-.5011h-2.7097v7.9876h2.7097Z"></path>
    <path d="M168.5098,94.8012c-.7025-.248-1.2546-.5696-1.656-.9644l.5302-1.1843c.3824,.3644,.8722,.6604,1.4699,.8884,.5972,.2277,1.2112,.3414,1.842,.3414,.8318,0,1.453-.1492,1.864-.4478,.4106-.2987,.6166-.6958,.6166-1.1922,0-.3644-.1125-.6604-.3369-.8884-.2249-.2277-.502-.4024-.8318-.5239-.3297-.1213-.7956-.258-1.3978-.4099-.7551-.1923-1.3646-.3847-1.8283-.577s-.86-.4885-1.1897-.8884-.4949-.939-.4949-1.6173c0-.567,.1411-1.0782,.4233-1.5339,.2817-.4554,.7097-.8201,1.2833-1.0933,.5731-.2735,1.2853-.4099,2.1361-.4099,.5925,0,1.1754,.0809,1.749,.2428,.5736,.1622,1.0655,.3948,1.4765,.6986l-.4729,1.2149c-.4208-.2835-.8696-.4985-1.3477-.6455-.478-.1465-.9463-.2201-1.4049-.2201-.8124,0-1.4218,.1571-1.8283,.4709-.4059,.3138-.6089,.7189-.6089,1.2146,0,.3644,.1146,.6607,.3441,.8884,.229,.2279,.5133,.405,.8528,.5315,.3395,.1267,.8006,.2608,1.3835,.4027,.7551,.1923,1.362,.3847,1.8211,.577,.4586,.1925,.8528,.486,1.1826,.8808s.4949,.9262,.4949,1.5945c0,.5567-.1436,1.0655-.4305,1.526-.2863,.4609-.7214,.8253-1.3042,1.0933-.5833,.2686-1.3002,.4027-2.1509,.4027-.7551,0-1.4836-.124-2.1861-.372h0Z"></path>
  </g>
  <g>
    <path d="M27.7393,66.6419c-5.2081,0-11.8934-.6995-16.2476-.6995l.855-14.2033h2.3321c1.0111,3.3429,2.9541,11.2606,12.9824,11.2606,6.6083,0,9.4844-3.8205,9.4844-7.6296,0-15.5472-26.6639-15.3918-26.6639-31.0946,0-9.7173,8.9393-13.4487,16.4026-13.4487,4.9751,0,8.9393,.6998,12.9815,.6998l1.4001,13.859h-2.3321c-2.4881-5.5191-6.3753-10.8387-12.7495-10.8387-6.0632,0-8.7843,3.0431-8.7843,6.1526,0,11.0389,27.908,14.8478,27.908,30.8618,0,9.0173-5.4422,15.0808-17.5686,15.0808h0Z"></path>
    <path d="M72.1727,65.2016c1.4791,0,1.8686,.0779,1.8686-11.2096V15.792h-5.0602c-5.2935,0-9.2631,5.3714-9.2631,9.5749h-2.3353l.9333-13.8782h39.7013l.9343,13.8782h-2.3353c0-4.2035-3.9706-9.5749-9.2641-9.5749h-5.0602V53.9919c0,11.2875,.3896,11.2096,1.8686,11.2096v.7783h-11.988v-.7783h0Z"></path>
    <path d="M116.4733,65.2016c1.4791,0,1.8676,.0779,1.8676-11.2096V23.4767c0-11.2875-.3885-11.2096-1.8676-11.2096v-.7784h11.988v.7783c-1.4791,0-1.8686-.0779-1.8686,11.2096v30.5154c0,11.2875,.3896,11.2096,1.8686,11.2096v.7783h-11.988v-.7783h0Z"></path>
    <path d="M148.7774,23.4601c0-11.2714-.3879-11.1936-1.8649-11.1936v-.7778h11.9709v.7773c-1.477,0-1.866-.0777-1.866,11.1936V61.6827h6.9189c5.286,0,8.0059-5.3637,9.2499-9.5612h2.332l-.933,13.8584h-27.6727v-.7773c1.477,0,1.8649,.0777,1.8649-11.1937V23.4601h0Z"></path>
  </g>
</svg>
