<svg width="138" height="138" viewBox="0 0 138 138" fill="none" xmlns="http://www.w3.org/2000/svg">
<path d="M79.1926 42.8149C79.338 42.8717 79.4829 42.9297 79.6272 42.9889C79.865 43.0861 80.1317 43.0849 80.3686 42.9855C80.6054 42.8861 80.7931 42.6966 80.8903 42.4588C80.9875 42.221 80.9863 41.9544 80.8869 41.7175C80.7875 41.4806 80.598 41.2929 80.3602 41.1957C80.206 41.1328 80.0511 41.071 79.8953 41.0103C79.656 40.9171 79.3895 40.9228 79.1544 41.0262C78.9193 41.1295 78.7349 41.322 78.6417 41.5613C78.5485 41.8006 78.5542 42.0671 78.6575 42.3022C78.7608 42.5373 78.9533 42.7217 79.1926 42.8149V42.8149Z" fill="white"/>
<path d="M94.3579 81.1072C94.5081 81.6545 94.645 82.2244 94.7613 82.8236L94.9379 83C94.9489 83.0004 94.9598 83.0038 94.9708 83.0038C95.1506 83.004 95.3269 82.9541 95.4799 82.8597C95.6329 82.7653 95.7566 82.6301 95.8371 82.4694C95.9116 82.3209 95.985 82.1721 96.0572 82.023C96.1665 81.7988 96.1848 81.5411 96.1084 81.3037C96.0319 81.0663 95.8667 80.8677 95.6471 80.7494C95.4276 80.6311 95.1709 80.6023 94.9306 80.669C94.6903 80.7356 94.4851 80.8927 94.3579 81.1072Z" fill="white"/>
<path d="M75.1765 41.5908C75.3288 41.6248 75.4806 41.6603 75.6319 41.6972C75.8816 41.7576 76.1451 41.7164 76.3645 41.5826C76.5838 41.4487 76.741 41.2333 76.8014 40.9836C76.8619 40.7338 76.8207 40.4703 76.6868 40.251C76.553 40.0317 76.3375 39.8745 76.0878 39.8141C75.9266 39.7753 75.7648 39.7376 75.6026 39.701C75.4784 39.6727 75.3498 39.6691 75.2242 39.6905C75.0986 39.712 74.9784 39.758 74.8707 39.8259C74.7629 39.8938 74.6695 39.9823 74.596 40.0864C74.5225 40.1905 74.4702 40.308 74.4422 40.4323C74.4142 40.5566 74.4109 40.6852 74.4327 40.8107C74.4544 40.9363 74.5008 41.0563 74.569 41.1639C74.6372 41.2715 74.726 41.3646 74.8302 41.4379C74.9345 41.5111 75.0521 41.5631 75.1765 41.5908H75.1765Z" fill="white"/>
<path d="M71.0276 40.9817C71.1825 40.9926 71.3371 41.0049 71.4913 41.0186C71.5204 41.0209 71.5492 41.0224 71.5781 41.0224C71.8275 41.0221 72.0671 40.9256 72.2471 40.7531C72.4272 40.5806 72.5337 40.3452 72.5446 40.0961C72.5555 39.847 72.4698 39.6033 72.3055 39.4157C72.1412 39.2281 71.9109 39.1112 71.6625 39.0891C71.4965 39.0745 71.3303 39.0612 71.1638 39.0494C71.0368 39.0402 70.9092 39.0561 70.7883 39.0962C70.6674 39.1364 70.5556 39.2 70.4594 39.2834C70.3631 39.3668 70.2842 39.4683 70.2272 39.5823C70.1703 39.6962 70.1364 39.8203 70.1274 39.9473C70.1184 40.0744 70.1346 40.2019 70.1751 40.3227C70.2155 40.4435 70.2793 40.5552 70.3629 40.6513C70.4466 40.7473 70.5483 40.826 70.6624 40.8827C70.7764 40.9394 70.9006 40.973 71.0276 40.9817V40.9817Z" fill="white"/>
<path d="M40.9294 61.4092C41.0212 61.4377 41.1168 61.4522 41.2129 61.4522C41.4203 61.452 41.6222 61.3853 41.7888 61.2619C41.9555 61.1384 42.0782 60.9648 42.1389 60.7665C42.1845 60.6175 42.2313 60.469 42.2793 60.321C42.3191 60.2 42.3347 60.0723 42.3251 59.9453C42.3155 59.8183 42.2809 59.6944 42.2233 59.5807C42.1658 59.4671 42.0864 59.3659 41.9896 59.283C41.8929 59.2001 41.7808 59.137 41.6597 59.0975C41.5385 59.058 41.4108 59.0428 41.2838 59.0528C41.1568 59.0627 41.033 59.0976 40.9195 59.1555C40.806 59.2133 40.705 59.293 40.6224 59.39C40.5397 59.4869 40.477 59.5992 40.4378 59.7204C40.3858 59.8798 40.3354 60.0397 40.2865 60.2C40.2493 60.3216 40.2364 60.4493 40.2486 60.5759C40.2608 60.7025 40.2978 60.8255 40.3575 60.9377C40.4172 61.05 40.4984 61.1495 40.5965 61.2303C40.6947 61.3112 40.8078 61.372 40.9294 61.4092Z" fill="white"/>
<path d="M39.3769 64.0828C39.3502 64.2464 39.3246 64.4102 39.3 64.5742C39.2623 64.8283 39.3271 65.087 39.4801 65.2934C39.6332 65.4997 39.8619 65.6369 40.116 65.6746C40.1635 65.6816 40.2114 65.685 40.2593 65.685C40.4913 65.6847 40.7155 65.6012 40.8911 65.4496C41.0668 65.2979 41.1821 65.0883 41.2162 64.8588C41.2392 64.7042 41.2632 64.5502 41.2884 64.3968C41.3296 64.1435 41.2687 63.8841 41.1189 63.6757C40.9691 63.4673 40.7427 63.3269 40.4894 63.2853C40.2362 63.2437 39.9767 63.3043 39.7681 63.4538C39.5595 63.6034 39.4188 63.8296 39.3769 64.0828V64.0828Z" fill="white"/>
<path d="M38.9796 68.5491C38.9775 68.6981 38.9766 68.8471 38.9766 69.0102L38.9768 69.0462C38.9768 69.303 39.0788 69.5494 39.2605 69.731C39.4421 69.9126 39.6884 70.0147 39.9453 70.0147C40.2022 70.0147 40.4485 69.9126 40.6301 69.731C40.8118 69.5494 40.9138 69.303 40.9138 69.0462L40.9136 68.9965C40.9136 68.8565 40.9146 68.7169 40.9166 68.5775C40.9204 68.3207 40.822 68.0728 40.643 67.8885C40.464 67.7042 40.2192 67.5986 39.9623 67.5948C39.7055 67.5911 39.4576 67.6895 39.2733 67.8685C39.089 68.0474 38.9834 68.2923 38.9796 68.5491V68.5491Z" fill="white"/>
<path d="M97.6686 60.053C97.5923 59.8077 97.4218 59.6028 97.1944 59.4833C96.9671 59.3638 96.7016 59.3395 96.4563 59.4157C96.211 59.492 96.0061 59.6626 95.8866 59.8899C95.7671 60.1173 95.7428 60.3828 95.8191 60.628C95.8652 60.777 95.9103 60.9264 95.9545 61.0763C96.0136 61.2769 96.1359 61.453 96.3033 61.5783C96.4706 61.7036 96.674 61.7713 96.8831 61.7715C96.9758 61.7712 97.0681 61.7579 97.1571 61.7318C97.4035 61.6591 97.611 61.4915 97.7339 61.2659C97.8568 61.0403 97.8851 60.7752 97.8126 60.5287C97.7658 60.3703 97.7178 60.2117 97.6686 60.053Z" fill="white"/>
<path d="M96.0166 55.8829C95.9483 55.7424 95.847 55.6206 95.7213 55.5279C95.5956 55.4352 95.4492 55.3743 95.2949 55.3506L95.0129 57.6156C95.012 57.6228 95.0102 57.6301 95.0093 57.6374C95.1885 57.7083 95.385 57.7237 95.5731 57.6815C95.7612 57.6393 95.9323 57.5414 96.064 57.4007C96.1957 57.2599 96.282 57.0828 96.3117 56.8923C96.3414 56.7018 96.313 56.5068 96.2304 56.3326C96.1604 56.1817 96.0891 56.0318 96.0166 55.8829Z" fill="white"/>
<path d="M96.7621 64.7157C96.7858 64.8694 96.808 65.0234 96.8288 65.1778C96.8604 65.4097 96.9749 65.6223 97.1511 65.7763C97.3273 65.9304 97.5533 66.0154 97.7874 66.0157C97.8314 66.0158 97.8754 66.0128 97.9191 66.0068C98.0451 65.9897 98.1666 65.9479 98.2765 65.8839C98.3864 65.8199 98.4826 65.7348 98.5596 65.6336C98.6366 65.5323 98.6929 65.4169 98.7253 65.2939C98.7577 65.1709 98.7655 65.0427 98.7483 64.9167C98.7256 64.7512 98.7018 64.5865 98.6769 64.4225C98.638 64.1686 98.4999 63.9406 98.2928 63.7885C98.0858 63.6364 97.8268 63.5729 97.5729 63.6117C97.319 63.6506 97.0909 63.7888 96.9389 63.9958C96.7868 64.2029 96.7233 64.4618 96.7621 64.7157L96.7621 64.7157Z" fill="white"/>
<path d="M99.0192 69.494C99.022 69.328 99.0234 69.1618 99.0234 68.9955V68.8962C99.0234 68.6394 98.9214 68.393 98.7398 68.2114C98.5581 68.0298 98.3118 67.9277 98.0549 67.9277C97.7981 67.9277 97.5517 68.0298 97.3701 68.2114C97.1885 68.393 97.0864 68.6394 97.0864 68.8962V68.9955C97.0864 69.1516 97.0852 69.3073 97.0826 69.4628C97.0785 69.7196 97.1765 69.9675 97.3552 70.1521C97.5338 70.3366 97.7785 70.4427 98.0353 70.4469H98.0511C98.3052 70.4468 98.5491 70.3469 98.7302 70.1686C98.9113 69.9903 99.0151 69.7481 99.0192 69.494Z" fill="white"/>
<path d="M98.615 73.9594C98.6419 73.7958 98.6678 73.632 98.6925 73.4681C98.7304 73.2141 98.666 72.9555 98.5133 72.7491C98.3606 72.5427 98.1322 72.4053 97.8783 72.3672C97.6244 72.3291 97.3657 72.3933 97.1592 72.5459C96.9526 72.6984 96.8151 72.9267 96.7768 73.1805C96.7536 73.3352 96.7293 73.4892 96.704 73.6426C96.6619 73.896 96.7223 74.1557 96.8718 74.3646C97.0213 74.5735 97.2476 74.7145 97.501 74.7565C97.7545 74.7985 98.0142 74.7381 98.2231 74.5886C98.432 74.4392 98.5729 74.2128 98.615 73.9594H98.615Z" fill="white"/>
<path d="M96.627 78.9875C96.8314 78.9873 97.0304 78.9225 97.1957 78.8024C97.361 78.6823 97.4842 78.513 97.5475 78.3188C97.5993 78.1599 97.6498 78.0005 97.6991 77.8407C97.7372 77.7189 97.7508 77.5908 97.7393 77.4638C97.7277 77.3367 97.6912 77.2132 97.6318 77.1003C97.5723 76.9874 97.4912 76.8874 97.393 76.806C97.2947 76.7245 97.1814 76.6633 97.0595 76.6258C96.9375 76.5883 96.8094 76.5753 96.6824 76.5874C96.5554 76.5996 96.432 76.6367 96.3194 76.6967C96.2068 76.7567 96.1072 76.8384 96.0262 76.937C95.9453 77.0356 95.8846 77.1492 95.8477 77.2713C95.8018 77.4208 95.7546 77.5697 95.7061 77.7182C95.6589 77.8636 95.6467 78.0182 95.6706 78.1692C95.6945 78.3202 95.7538 78.4634 95.8436 78.5872C95.9334 78.7109 96.0511 78.8117 96.1873 78.8813C96.3235 78.9508 96.4741 78.9872 96.627 78.9875H96.627Z" fill="white"/>
<path d="M66.9258 97.0076C66.7691 96.9957 66.6126 96.983 66.4565 96.9693C66.2007 96.9477 65.9468 97.0285 65.7505 97.1939C65.5543 97.3594 65.4317 97.596 65.4098 97.8518C65.3879 98.1076 65.4683 98.3616 65.6336 98.558C65.7988 98.7545 66.0352 98.8774 66.291 98.8996C66.4551 98.9134 66.6192 98.9271 66.784 98.9389C66.8081 98.9408 66.832 98.9417 66.8559 98.9417C67.1065 98.9415 67.3472 98.8441 67.5276 98.6701C67.7079 98.496 67.8137 98.2588 67.8227 98.0084C67.8318 97.7579 67.7434 97.5137 67.5762 97.3271C67.4089 97.1404 67.1758 97.0259 66.9258 97.0076Z" fill="white"/>
<path d="M58.764 95.1596C58.6185 95.1024 58.4736 95.0441 58.3291 94.9847C58.0917 94.8872 57.8252 94.888 57.5883 94.9868C57.3514 95.0857 57.1634 95.2745 57.0657 95.5119C56.9679 95.7493 56.9684 96.0157 57.0669 96.2527C57.1655 96.4898 57.3542 96.678 57.5914 96.776C57.7453 96.8394 57.9001 96.9015 58.0556 96.9623C58.2946 97.0563 58.5612 97.0514 58.7967 96.9488C59.0321 96.8462 59.2172 96.6542 59.3111 96.4152C59.4051 96.1761 59.4002 95.9095 59.2976 95.6741C59.195 95.4386 59.003 95.2536 58.764 95.1596Z" fill="white"/>
<path d="M62.775 96.3895C62.6236 96.3555 62.4729 96.32 62.3226 96.2831C62.0735 96.2227 61.8105 96.2636 61.5914 96.3968C61.3723 96.53 61.215 96.7446 61.1539 96.9936C61.0928 97.2426 61.1329 97.5057 61.2655 97.7251C61.3981 97.9446 61.6122 98.1025 61.8611 98.1643C62.0231 98.204 62.1857 98.2423 62.3489 98.2792C62.4731 98.3076 62.6017 98.3112 62.7273 98.2897C62.8529 98.2683 62.973 98.2223 63.0808 98.1544C63.1886 98.0865 63.2819 97.9979 63.3555 97.8939C63.429 97.7898 63.4813 97.6723 63.5093 97.548C63.5373 97.4237 63.5405 97.2951 63.5188 97.1696C63.497 97.044 63.4507 96.924 63.3825 96.8164C63.3143 96.7088 63.2255 96.6157 63.1213 96.5424C63.017 96.4692 62.8993 96.4172 62.775 96.3895Z" fill="white"/>
<path d="M39.3145 73.5184C39.3333 73.6444 39.3768 73.7653 39.4425 73.8744C39.5082 73.9835 39.5947 74.0786 39.6972 74.1542C39.7996 74.2299 39.916 74.2845 40.0396 74.3151C40.1632 74.3457 40.2916 74.3517 40.4175 74.3326C40.5434 74.3135 40.6643 74.2698 40.7733 74.2039C40.8823 74.138 40.9772 74.0513 41.0526 73.9487C41.1281 73.8462 41.1826 73.7297 41.2129 73.606C41.2433 73.4824 41.249 73.3539 41.2297 73.2281C41.2063 73.0744 41.1842 72.9204 41.1635 72.7661C41.1465 72.64 41.1049 72.5186 41.041 72.4086C40.9771 72.2986 40.8922 72.2024 40.7911 72.1252C40.69 72.0481 40.5747 71.9916 40.4518 71.9591C40.3288 71.9265 40.2007 71.9184 40.0746 71.9354C39.9486 71.9524 39.8271 71.994 39.7172 72.0579C39.6072 72.1218 39.5109 72.2067 39.4338 72.3078C39.3567 72.4089 39.3002 72.5242 39.2676 72.6471C39.2351 72.7701 39.227 72.8982 39.244 73.0243C39.2662 73.1898 39.2897 73.3545 39.3145 73.5184Z" fill="white"/>
<path d="M71.1243 97.0037C70.9687 97.015 70.8129 97.0254 70.6568 97.0349C70.4054 97.0496 70.1696 97.1617 69.9995 97.3474C69.8294 97.5331 69.7383 97.7778 69.7455 98.0295C69.7528 98.2813 69.8578 98.5203 70.0384 98.6958C70.2189 98.8714 70.4608 98.9698 70.7126 98.97C70.7318 98.97 70.7509 98.9695 70.7703 98.9681C70.9363 98.9586 71.1016 98.9473 71.2666 98.935C71.3935 98.9258 71.5174 98.8916 71.6311 98.8345C71.7448 98.7774 71.8461 98.6984 71.9293 98.6021C72.0124 98.5058 72.0758 98.3941 72.1158 98.2733C72.1557 98.1525 72.1715 98.025 72.1621 97.8981C72.1527 97.7712 72.1185 97.6474 72.0612 97.5337C72.004 97.4201 71.9249 97.3188 71.8286 97.2358C71.7322 97.1527 71.6204 97.0895 71.4995 97.0496C71.3787 97.0098 71.2512 96.9942 71.1243 97.0037L71.1243 97.0037Z" fill="white"/>
<path d="M75.2712 96.3803C75.1201 96.4149 74.9686 96.4481 74.8167 96.4801C74.6922 96.5062 74.574 96.5566 74.469 96.6284C74.3639 96.7002 74.274 96.7919 74.2045 96.8985C74.1349 97.005 74.087 97.1242 74.0635 97.2493C74.04 97.3743 74.0414 97.5028 74.0676 97.6273C74.0938 97.7518 74.1443 97.87 74.2161 97.975C74.288 98.08 74.3799 98.1698 74.4865 98.2393C74.593 98.3087 74.7123 98.3565 74.8374 98.3799C74.9624 98.4033 75.0909 98.4018 75.2154 98.3755C75.3785 98.3415 75.5414 98.3057 75.7039 98.2682C75.8281 98.2399 75.9454 98.1875 76.0493 98.1139C76.1532 98.0403 76.2415 97.9469 76.3092 97.8391C76.377 97.7313 76.4228 97.6112 76.4441 97.4856C76.4653 97.3601 76.4616 97.2316 76.4332 97.1075C76.4047 96.9834 76.3521 96.8661 76.2783 96.7624C76.2045 96.6587 76.1109 96.5705 76.003 96.503C75.8951 96.4354 75.7749 96.3898 75.6493 96.3688C75.5237 96.3477 75.3952 96.3517 75.2712 96.3803V96.3803Z" fill="white"/>
<path d="M79.2796 95.143C79.1358 95.1997 78.9914 95.2552 78.8464 95.3094C78.7266 95.3533 78.6167 95.4205 78.5229 95.5071C78.4292 95.5936 78.3535 95.6979 78.3001 95.8138C78.2468 95.9297 78.2169 96.055 78.2121 96.1825C78.2073 96.31 78.2278 96.4372 78.2724 96.5568C78.3169 96.6763 78.3847 96.7859 78.4717 96.8792C78.5587 96.9725 78.6633 97.0477 78.7795 97.1004C78.8957 97.1532 79.0212 97.1825 79.1487 97.1866C79.2762 97.1907 79.4033 97.1695 79.5226 97.1244C79.6796 97.0662 79.8359 97.0063 79.9913 96.9447C80.2302 96.8503 80.4219 96.6649 80.5241 96.4292C80.6263 96.1935 80.6307 95.9269 80.5363 95.6879C80.4419 95.449 80.2565 95.2574 80.0208 95.1552C79.7851 95.053 79.5185 95.0486 79.2796 95.1429L79.2796 95.143Z" fill="white"/>
<path d="M41.9618 82.0628C42.0325 82.2067 42.1382 82.3306 42.2692 82.4231C42.4001 82.5156 42.5522 82.5738 42.7115 82.5923L42.9875 80.375C42.9899 80.3547 42.9949 80.3343 42.9976 80.314C42.8744 80.2619 42.7417 80.2361 42.6079 80.2384C42.4741 80.2407 42.3423 80.2709 42.221 80.3272C42.1055 80.3806 42.0017 80.4563 41.9155 80.5498C41.8293 80.6433 41.7624 80.7529 41.7185 80.8723C41.6747 80.9917 41.6548 81.1186 41.66 81.2457C41.6652 81.3728 41.6953 81.4976 41.7488 81.613C41.8183 81.7639 41.8895 81.9133 41.9618 82.0628Z" fill="white"/>
<path d="M40.3164 77.8907C40.3539 78.0124 40.4149 78.1254 40.4961 78.2235C40.5773 78.3215 40.677 78.4026 40.7895 78.4621C40.9021 78.5216 41.0252 78.5583 41.152 78.5701C41.2787 78.582 41.4065 78.5687 41.5281 78.5311C41.6498 78.4935 41.7628 78.4323 41.8607 78.351C41.9586 78.2696 42.0396 78.1698 42.0989 78.0572C42.1582 77.9446 42.1948 77.8214 42.2064 77.6946C42.2181 77.5679 42.2047 77.44 42.1669 77.3185C42.1208 77.1695 42.0758 77.0196 42.0321 76.8702C41.9597 76.6239 41.7924 76.4164 41.5671 76.2933C41.3418 76.1703 41.0768 76.1417 40.8305 76.2139C40.5841 76.2861 40.3765 76.4532 40.2532 76.6784C40.1299 76.9036 40.1011 77.1685 40.1731 77.415C40.2197 77.5739 40.2675 77.7324 40.3164 77.8907Z" fill="white"/>
<path d="M58.3192 42.9356C58.4411 42.9355 58.562 42.9122 58.6753 42.8671C58.8188 42.8103 58.963 42.7548 59.108 42.7006C59.3475 42.6099 59.5413 42.4281 59.647 42.1949C59.7528 41.9617 59.762 41.6961 59.6724 41.4562C59.5829 41.2163 59.402 41.0216 59.1694 40.9146C58.9367 40.8077 58.6711 40.7973 58.4308 40.8856C58.274 40.9443 58.118 41.0045 57.9626 41.0663C57.753 41.1493 57.579 41.3027 57.4704 41.5003C57.3618 41.6978 57.3255 41.927 57.3677 42.1484C57.41 42.3698 57.5281 42.5696 57.7018 42.7133C57.8754 42.857 58.0938 42.9356 58.3192 42.9356H58.3192Z" fill="white"/>
<path d="M43.643 56.8873C43.4923 56.3386 43.3551 55.7674 43.2385 55.1667L43.112 55.0404C42.9158 55.0181 42.7175 55.0564 42.5438 55.1503C42.37 55.2441 42.2293 55.389 42.1404 55.5653C42.0654 55.7143 41.9919 55.864 41.9198 56.0145C41.8091 56.2425 41.7924 56.5048 41.8733 56.7449C41.9542 56.985 42.1262 57.1837 42.3523 57.2982C42.5783 57.4127 42.8403 57.4338 43.0818 57.3569C43.3232 57.28 43.5248 57.1114 43.643 56.8873L43.643 56.8873Z" fill="white"/>
<path d="M66.7536 40.9945C66.7784 40.9945 66.8035 40.9935 66.8286 40.9916C66.9842 40.9798 67.14 40.9691 67.296 40.9595C67.423 40.9516 67.5471 40.9189 67.6614 40.8631C67.7757 40.8073 67.8779 40.7295 67.9621 40.6342C68.0463 40.5389 68.1109 40.428 68.1523 40.3077C68.1936 40.1874 68.2109 40.0602 68.2031 39.9333C68.1952 39.8063 68.1625 39.6822 68.1067 39.5679C68.0509 39.4536 67.9731 39.3515 67.8778 39.2672C67.7825 39.183 67.6716 39.1184 67.5513 39.077C67.431 39.0357 67.3038 39.0184 67.1769 39.0262C67.0109 39.0367 66.8456 39.0475 66.6806 39.0603C66.4309 39.0794 66.1984 39.1945 66.0318 39.3814C65.8652 39.5682 65.7774 39.8123 65.7868 40.0625C65.7963 40.3127 65.9022 40.5495 66.0825 40.7232C66.2627 40.897 66.5033 40.9942 66.7536 40.9945L66.7536 40.9945Z" fill="white"/>
<path d="M62.4626 41.6475C62.5357 41.6477 62.6086 41.6394 62.6799 41.6229C62.8319 41.5884 62.9843 41.5548 63.1369 41.5222C63.3881 41.4686 63.6078 41.3175 63.7476 41.102C63.8873 40.8864 63.9358 40.6242 63.8822 40.373C63.8287 40.1218 63.6775 39.9021 63.462 39.7624C63.2465 39.6226 62.9843 39.5742 62.7331 39.6277C62.5706 39.6623 62.4087 39.698 62.2472 39.7351C62.0153 39.7882 61.8111 39.9249 61.6735 40.119C61.5359 40.3131 61.4746 40.551 61.5012 40.7874C61.5278 41.0239 61.6406 41.2422 61.8179 41.4008C61.9952 41.5594 62.2247 41.6472 62.4626 41.6475Z" fill="white"/>
<path d="M67.7534 77.2885C67.2718 76.8796 66.6828 76.618 66.0566 76.5347C65.9081 75.5903 65.3958 74.7416 64.6294 74.1702C63.8365 73.6412 62.8814 73.411 61.9346 73.5209C61.4957 72.7471 60.7904 72.1592 59.9503 71.8667C59.1838 71.6261 58.3636 71.6152 57.591 71.8355C57.3502 71.2334 56.912 70.7309 56.3482 70.4106C55.9024 70.1994 55.4166 70.0859 54.9233 70.0776C54.43 70.0694 53.9407 70.1667 53.4881 70.3629C53.3779 70.4112 53.2776 70.4797 53.1925 70.5648C53.1925 70.5648 50.7896 72.9701 50.7824 72.9766C50.1121 73.5777 49.6873 74.405 49.5895 75.3L45.5046 79.3787C45.1838 79.7137 44.9762 80.1409 44.9111 80.6002L44.5373 83.6093C44.5258 83.6442 44.5115 83.6782 44.4947 83.711L38.2922 89.904C38.2019 89.9938 38.1303 90.1006 38.0813 90.2181C38.0323 90.3356 38.007 90.4616 38.0068 90.589C38.0066 90.7163 38.0315 90.8424 38.0801 90.9601C38.1287 91.0777 38.2 91.1847 38.29 91.2748C38.38 91.3649 38.4868 91.4363 38.6044 91.4851C38.722 91.5338 38.8481 91.5589 38.9754 91.5589C39.1027 91.5589 39.2288 91.5337 39.3464 91.4849C39.464 91.4361 39.5708 91.3646 39.6607 91.2745L45.8638 85.0809C46.1843 84.7457 46.3918 84.3186 46.4573 83.8594L46.8313 80.849C46.8426 80.8144 46.8568 80.7809 46.8736 80.7487L50.44 77.1877C51.0208 77.8829 51.8429 78.3329 52.7414 78.4475C52.8606 79.1781 53.2619 79.8326 53.8591 80.2701C53.873 80.281 53.8872 80.2914 53.9016 80.3014C54.4315 80.6522 55.0533 80.8384 55.6887 80.8367C56.2585 80.8244 56.8165 80.6728 57.3141 80.395C57.8118 80.1173 58.2338 79.722 58.5434 79.2435C58.6934 79.0359 58.7551 78.7774 58.715 78.5244C58.6749 78.2714 58.5362 78.0446 58.3293 77.8937C58.1224 77.7427 57.8641 77.6799 57.6109 77.7189C57.3578 77.7579 57.1304 77.8957 56.9785 78.1019C56.1531 79.2322 55.334 78.9129 55.0144 78.7148C54.839 78.5769 54.7142 78.3847 54.6595 78.1684C54.6049 77.952 54.6235 77.7237 54.7123 77.519L55.4459 76.7357C55.6215 76.5482 55.7154 76.2986 55.707 76.0419C55.6986 75.7851 55.5885 75.5423 55.401 75.3667C55.2135 75.1911 54.9639 75.0971 54.7072 75.1056C54.4504 75.114 54.2075 75.224 54.0319 75.4115L53.2585 76.2377C53.2465 76.2509 53.2346 76.2642 53.2233 76.2774C53.0197 76.5209 52.8913 76.5247 52.8492 76.5195C52.4549 76.4203 52.1056 76.1906 51.8583 75.8679C51.822 75.8226 51.7819 75.7807 51.7382 75.7426C51.5204 75.5529 51.519 75.4309 51.5183 75.3789C51.5907 75.0074 51.7853 74.6709 52.0711 74.4227C52.1121 74.3861 54.4069 72.0894 54.4069 72.0894C54.7366 71.9728 55.0975 71.9807 55.4218 72.1116C55.5912 72.2547 55.7294 72.4311 55.8278 72.6298C55.9261 72.8286 55.9826 73.0454 55.9935 73.2669C56.0176 73.4218 56.0789 73.5685 56.1722 73.6945C56.2655 73.8204 56.388 73.9219 56.5292 73.99C56.6703 74.0582 56.8259 74.0911 56.9825 74.0859C57.1392 74.0807 57.2922 74.0376 57.4285 73.9602C58.0127 73.6518 58.6873 73.5604 59.3324 73.7025C59.6082 73.8168 59.8559 73.9896 60.0584 74.2088C60.261 74.4281 60.4136 74.6887 60.5057 74.9727C60.5984 75.1885 60.7663 75.3633 60.9783 75.4645C61.1903 75.5657 61.4318 75.5863 61.6579 75.5226C61.669 75.5198 62.7896 75.2356 63.5032 75.7458C63.938 76.057 64.183 76.6548 64.2312 77.523C64.2396 77.654 64.2744 77.782 64.3334 77.8992C64.3924 78.0165 64.4744 78.1207 64.5745 78.2055C64.6747 78.2903 64.7909 78.3541 64.9163 78.393C65.0417 78.4319 65.1736 78.4452 65.3042 78.4319C65.7217 78.3904 66.14 78.5029 66.4803 78.7483C66.6081 78.8854 66.7066 79.0471 66.7696 79.2235C66.8326 79.4 66.8589 79.5875 66.8468 79.7745C66.84 79.7925 66.8348 79.8052 66.8383 79.8048L64.4402 82.1989C64.047 81.2331 63.5931 80.2933 63.0811 79.3849C62.763 78.8506 62.2607 78.451 61.6687 78.261C61.0766 78.0711 60.4356 78.104 59.8661 78.3535C59.1151 78.6921 58.2131 79.5078 58.1819 81.4727C58.1748 81.9295 58.1727 82.5769 58.1954 83.1822C57.1393 82.9964 56.056 83.0339 55.0154 83.2923C53.9747 83.5508 52.9997 84.0244 52.1533 84.6828C51.9567 84.848 51.8337 85.0846 51.8115 85.3405C51.7893 85.5964 51.8696 85.8506 52.0349 86.0473C52.2001 86.244 52.4367 86.3669 52.6926 86.3891C52.9485 86.4114 53.2028 86.331 53.3994 86.1658C54.2835 85.4934 55.3464 85.0969 56.4549 85.0262C57.5633 84.9554 58.668 85.2135 59.6304 85.7681C59.741 85.831 59.8631 85.8716 59.9894 85.8873C60.1158 85.9031 60.244 85.8938 60.3668 85.8599C60.4895 85.8261 60.6044 85.7683 60.7048 85.69C60.8052 85.6117 60.8892 85.5144 60.952 85.4036C61.0148 85.2928 61.0551 85.1707 61.0706 85.0443C61.0861 84.9179 61.0766 84.7897 61.0425 84.667C61.0084 84.5443 60.9505 84.4296 60.872 84.3293C60.7935 84.229 60.696 84.1452 60.5851 84.0826C60.4493 84.0057 60.3144 83.9344 60.1801 83.8672C60.1173 83.0808 60.0968 82.2916 60.1186 81.503C60.1368 80.3557 60.5322 80.1779 60.6606 80.1202C60.7887 80.0701 60.9298 80.0636 61.062 80.1019C61.1942 80.1403 61.31 80.2212 61.3914 80.3321C62.4458 82.2147 63.4831 84.652 63.3473 86.0319C62.7645 86.773 59.9609 89.9447 53.9976 90.9577C53.5571 91.0442 53.1505 91.2549 52.8258 91.5649L46.3908 97.9907C46.3006 98.0805 46.2289 98.1872 46.1799 98.3047C46.131 98.4222 46.1057 98.5483 46.1055 98.6756C46.1053 98.8029 46.1302 98.929 46.1788 99.0467C46.2274 99.1644 46.2987 99.2713 46.3886 99.3614C46.4786 99.4515 46.5854 99.5229 46.7031 99.5717C46.8207 99.6204 46.9467 99.6455 47.0741 99.6455C47.2014 99.6455 47.3274 99.6203 47.445 99.5715C47.5626 99.5228 47.6694 99.4512 47.7594 99.3611L54.1861 92.9434C54.2279 92.9128 54.2733 92.8872 54.3211 92.8672C61.9324 91.5748 64.9512 87.1385 65.076 86.9503C65.1457 86.8451 65.1941 86.7274 65.2186 86.6037C65.3394 85.8272 65.3002 85.0343 65.1035 84.2735L68.2081 81.1743C68.5647 80.8054 68.7703 80.3163 68.7845 79.8034C68.8054 79.3345 68.7239 78.8667 68.5459 78.4324C68.3678 77.9981 68.0974 77.6078 67.7534 77.2885Z" fill="white"/>
<path d="M70.2468 60.7024C70.7283 61.1112 71.3173 61.3729 71.9435 61.4562C72.092 62.4005 72.6043 63.2493 73.3707 63.8207C74.1639 64.3491 75.1188 64.5791 76.0656 64.47C76.5045 65.2438 77.2097 65.8317 78.0499 66.1242C78.8164 66.3648 79.6366 66.3756 80.4092 66.1554C80.6136 66.6861 80.977 67.1407 81.4496 67.457C81.9222 67.7733 82.481 67.936 83.0496 67.9226C83.5515 67.9192 84.048 67.8192 84.512 67.628C84.6223 67.5797 84.7225 67.5112 84.8076 67.426C84.8076 67.426 87.2103 65.0209 87.2177 65.0143C87.888 64.4132 88.3128 63.5859 88.4106 62.6909L92.4955 58.6121C92.8164 58.2771 93.0239 57.8499 93.089 57.3906L93.4629 54.3816C93.4744 54.3466 93.4886 54.3126 93.5054 54.2799L99.708 48.0868C99.7982 47.997 99.8699 47.8903 99.9188 47.7727C99.9678 47.6552 99.9931 47.5292 99.9933 47.4019C99.9935 47.2745 99.9686 47.1484 99.92 47.0308C99.8714 46.9131 99.8001 46.8061 99.7101 46.716C99.6202 46.626 99.5133 46.5545 99.3957 46.5057C99.2781 46.457 99.152 46.4319 99.0247 46.4319C98.8974 46.432 98.7713 46.4571 98.6538 46.5059C98.5362 46.5547 98.4293 46.6262 98.3394 46.7163L92.1364 52.9099C91.8158 53.2451 91.6083 53.6722 91.5429 54.1314L91.1688 57.1419C91.1575 57.1764 91.1434 57.2099 91.1265 57.2421L87.5601 60.8031C86.9793 60.1079 86.1573 59.658 85.2587 59.5433C85.1396 58.8127 84.7382 58.1582 84.1411 57.7207C84.1271 57.7098 84.1129 57.6994 84.0985 57.6895C83.0617 56.9782 80.9707 56.6732 79.4568 58.7473C79.3067 58.9549 79.245 59.2135 79.2851 59.4664C79.3252 59.7194 79.4639 59.9462 79.6709 60.0971C79.8778 60.2481 80.1361 60.3109 80.3892 60.2719C80.6424 60.2329 80.8697 60.0952 81.0216 59.8889C81.8466 58.7587 82.6654 59.0774 82.9858 59.276C83.1612 59.414 83.2859 59.6061 83.3406 59.8225C83.3952 60.0388 83.3767 60.2672 83.2878 60.4719L82.5543 61.2551C82.3787 61.4426 82.2847 61.6922 82.2932 61.9489C82.3016 62.2057 82.4116 62.4486 82.5991 62.6242C82.7866 62.7998 83.0362 62.8937 83.293 62.8853C83.5497 62.8769 83.7926 62.7668 83.9682 62.5793L84.7416 61.7532C84.7537 61.7399 84.7655 61.7267 84.7769 61.7135C84.9807 61.4699 85.1129 61.4742 85.1509 61.4713C85.5453 61.5706 85.8945 61.8002 86.1419 62.123C86.1781 62.1683 86.2183 62.2102 86.262 62.2483C86.4798 62.4379 86.4812 62.5599 86.4819 62.612C86.4094 62.9834 86.2148 63.32 85.9291 63.5682C85.8878 63.6049 83.5932 65.9014 83.5932 65.9014C83.2634 66.0175 82.9027 66.0096 82.5784 65.8792C82.4089 65.7362 82.2707 65.5598 82.1723 65.361C82.074 65.1623 82.0176 64.9454 82.0066 64.7239C81.9825 64.569 81.9212 64.4223 81.8279 64.2964C81.7346 64.1704 81.6121 64.069 81.471 64.0008C81.3299 63.9326 81.1743 63.8997 81.0176 63.9049C80.861 63.9101 80.7079 63.9533 80.5716 64.0307C79.9877 64.34 79.3128 64.4314 78.6677 64.2884C78.392 64.1741 78.1443 64.0013 77.9417 63.782C77.7392 63.5627 77.5866 63.3021 77.4944 63.0182C77.4017 62.8024 77.2337 62.6277 77.0218 62.5265C76.8098 62.4253 76.5683 62.4046 76.3422 62.4682C76.3311 62.4706 75.2106 62.7548 74.497 62.245C74.0621 61.9338 73.8172 61.3361 73.7689 60.4679C73.7605 60.3369 73.7258 60.2089 73.6668 60.0916C73.6078 59.9744 73.5257 59.8702 73.4256 59.7854C73.3254 59.7005 73.2092 59.6367 73.0838 59.5978C72.9584 59.5589 72.8265 59.5457 72.6959 59.5589C72.2784 59.6004 71.8602 59.4879 71.5198 59.2425C71.392 59.1055 71.2936 58.9438 71.2305 58.7673C71.1675 58.5908 71.1412 58.4034 71.1533 58.2164C71.1599 58.1984 71.1644 58.1856 71.1618 58.1861L73.5599 55.792C73.9531 56.7577 74.4071 57.6976 74.919 58.606C75.1442 58.9887 75.4662 59.3053 75.8527 59.524C76.2391 59.7426 76.6764 59.8557 77.1204 59.8516C77.4696 59.8527 77.8151 59.7797 78.134 59.6374C78.885 59.2988 79.7871 58.4831 79.8183 56.5182C79.8253 56.0614 79.8274 55.4142 79.8048 54.8089C80.2526 54.897 80.7078 54.9416 81.1641 54.942C82.8612 54.921 84.5051 54.3474 85.8468 53.3081C86.0435 53.1429 86.1664 52.9063 86.1886 52.6504C86.2108 52.3945 86.1305 52.1402 85.9653 51.9436C85.8 51.7469 85.5634 51.6239 85.3075 51.6017C85.0516 51.5795 84.7974 51.6599 84.6007 51.8251C83.7167 52.4976 82.6538 52.8942 81.5453 52.9649C80.4368 53.0357 79.3321 52.7775 78.3698 52.2228C78.2591 52.1595 78.137 52.1187 78.0104 52.1027C77.8839 52.0867 77.7555 52.0959 77.6325 52.1296C77.5096 52.1634 77.3945 52.2211 77.2939 52.2994C77.1933 52.3778 77.1091 52.4752 77.0463 52.5862C76.9834 52.6972 76.9431 52.8194 76.9276 52.946C76.9121 53.0726 76.9218 53.201 76.956 53.3238C76.9903 53.4466 77.0485 53.5615 77.1273 53.6618C77.206 53.7621 77.3038 53.8458 77.415 53.9082C77.5509 53.9852 77.6854 54.0537 77.8198 54.1209C77.8828 54.9082 77.9034 55.6984 77.8815 56.4879C77.8633 57.6352 77.468 57.813 77.3396 57.8707C77.2114 57.9208 77.0703 57.9273 76.9381 57.8889C76.806 57.8506 76.6902 57.7697 76.6087 57.6588C75.5544 55.7762 74.5171 53.3389 74.6528 51.9589C75.2356 51.2179 78.0392 48.0462 84.0025 47.0332C84.443 46.9467 84.8496 46.736 85.1744 46.426L91.6093 40.0002C91.6999 39.9105 91.7719 39.8037 91.8212 39.6861C91.8704 39.5685 91.8959 39.4423 91.8963 39.3148C91.8966 39.1873 91.8718 39.061 91.8232 38.9431C91.7746 38.8252 91.7032 38.7181 91.6131 38.6278C91.523 38.5376 91.416 38.4661 91.2982 38.4173C91.1803 38.3686 91.054 38.3436 90.9265 38.3438C90.799 38.3439 90.6728 38.3693 90.5551 38.4184C90.4374 38.4675 90.3306 38.5393 90.2407 38.6298L83.814 45.0475C83.7722 45.0781 83.7269 45.1037 83.679 45.1236C76.0677 46.4161 73.0489 50.8523 72.9241 51.0406C72.8545 51.1457 72.806 51.2635 72.7815 51.3872C72.6607 52.1636 72.6999 52.9566 72.8966 53.7174L69.7921 56.8166C69.4354 57.1855 69.2298 57.6746 69.2156 58.1875C69.1948 58.6564 69.2762 59.1242 69.4543 59.5585C69.6323 59.9928 69.9027 60.3831 70.2468 60.7024Z" fill="white"/>
<path d="M44.9728 54.1615C45.0031 54.2028 45.0284 54.2476 45.0482 54.2949C46.3428 61.8958 50.7859 64.9101 50.9746 65.0349C51.0796 65.1041 51.197 65.1523 51.3203 65.1768C51.5849 65.2274 51.8538 65.252 52.1233 65.2501C52.6385 65.2424 53.1515 65.1788 53.653 65.0603L56.7579 68.1603C57.1231 68.5136 57.6062 68.7191 58.114 68.7373H58.13C58.5998 68.7584 59.0685 68.677 59.5036 68.4988C59.9387 68.3205 60.3298 68.0496 60.6496 67.7049C61.0573 67.225 61.3184 66.638 61.4018 66.0138C62.3489 65.866 63.2002 65.3527 63.7732 64.5842C64.3004 63.7937 64.5299 62.8417 64.4208 61.8977C65.1963 61.4595 65.7856 60.7538 66.0783 59.9125C66.3178 59.1495 66.3289 58.3332 66.1102 57.564C66.715 57.3243 67.2188 56.8838 67.5372 56.3165C67.7478 55.8712 67.8609 55.3861 67.8688 54.8936C67.8768 54.4011 67.7794 53.9125 67.5833 53.4607C67.5348 53.3504 67.4662 53.2502 67.3809 53.1651C67.3809 53.1651 64.9713 50.7658 64.9648 50.7585C64.3625 50.088 63.5336 49.6635 62.6374 49.5668L58.5542 45.4895C58.2188 45.1689 57.7912 44.9617 57.3318 44.8969L54.3173 44.5233C54.282 44.5118 54.2477 44.4974 54.2147 44.4803L48.0123 38.2872C47.9225 38.1965 47.8157 38.1244 47.6979 38.0751C47.5802 38.0258 47.4539 38.0003 47.3262 38C47.1986 37.9997 47.0721 38.0247 46.9541 38.0734C46.8362 38.1222 46.729 38.1938 46.6388 38.2841C46.5486 38.3744 46.4771 38.4817 46.4285 38.5997C46.3799 38.7178 46.3551 38.8443 46.3556 38.9719C46.3561 39.0996 46.3818 39.2259 46.4312 39.3436C46.4807 39.4612 46.5529 39.568 46.6438 39.6577L52.8461 45.8508C53.1816 46.1712 53.6091 46.3784 54.0685 46.4433L57.084 46.8169C57.119 46.8285 57.153 46.8429 57.1857 46.8599L60.7495 50.4187C60.0547 50.9977 59.6047 51.8181 59.4899 52.7152C58.7588 52.8336 58.1033 53.2342 57.6647 53.831C57.6538 53.8447 57.6434 53.8589 57.6335 53.8735C56.9206 54.9092 56.6144 56.9994 58.6928 58.5122C58.9005 58.6634 59.1597 58.7258 59.4134 58.6858C59.6672 58.6458 59.8946 58.5066 60.0457 58.2989C60.1969 58.0912 60.2593 57.832 60.2193 57.5783C60.1793 57.3246 60.0402 57.0971 59.8325 56.946C58.7013 56.1227 59.0205 55.3074 59.2186 54.9882C59.3577 54.8126 59.5509 54.6879 59.7681 54.6333C59.9853 54.5788 60.2144 54.5974 60.4199 54.6863L61.2039 55.419C61.2968 55.5058 61.4059 55.5735 61.525 55.6182C61.644 55.6629 61.7707 55.6837 61.8978 55.6794C62.0249 55.6751 62.15 55.6458 62.2658 55.5932C62.3815 55.5406 62.4858 55.4658 62.5727 55.3729C62.6595 55.2799 62.7272 55.1708 62.7719 55.0518C62.8166 54.9327 62.8374 54.806 62.8331 54.6789C62.8288 54.5518 62.7996 54.4268 62.747 54.311C62.6944 54.1952 62.6195 54.0909 62.5266 54.004L61.6997 53.2313C61.6865 53.219 61.6732 53.2072 61.6595 53.1954C61.4164 52.9925 61.4172 52.8658 61.4174 52.8242C61.5171 52.4308 61.7469 52.0828 62.0695 51.8367C62.1147 51.8007 62.1566 51.7607 62.1946 51.7171C62.3852 51.4991 62.5086 51.4977 62.5614 51.4967H62.5663C62.9366 51.5708 63.2721 51.7652 63.5206 52.0496C63.5574 52.0907 65.8591 54.3828 65.8591 54.3828C65.9725 54.7085 65.9653 55.0641 65.8388 55.3849C65.6958 55.5564 65.5187 55.6963 65.3187 55.7957C65.1188 55.8951 64.9004 55.9518 64.6773 55.9623C64.5232 55.9871 64.3772 56.0486 64.2518 56.1416C64.1264 56.2347 64.0253 56.3566 63.957 56.497C63.8887 56.6374 63.8552 56.7923 63.8594 56.9484C63.8635 57.1045 63.9053 57.2572 63.981 57.3938C64.2962 57.978 64.3881 58.6569 64.2394 59.3039C64.1237 59.5776 63.9504 59.8233 63.7313 60.0241C63.5122 60.2249 63.2525 60.3762 62.9697 60.4677C62.7535 60.5602 62.5783 60.7283 62.4769 60.9406C62.3755 61.1528 62.3549 61.3947 62.4188 61.6211C62.4218 61.6319 62.7049 62.7475 62.197 63.4583C61.8858 63.8943 61.2859 64.1397 60.4141 64.188C60.2831 64.1964 60.1552 64.2311 60.0379 64.2901C59.9206 64.3491 59.8165 64.4311 59.7316 64.5313C59.6468 64.6315 59.583 64.7477 59.5441 64.8731C59.5052 64.9985 59.492 65.1304 59.5052 65.261C59.5458 65.6767 59.4336 66.0929 59.1895 66.4319C59.0518 66.5603 58.8893 66.6592 58.7119 66.7224C58.5345 66.7856 58.346 66.8118 58.1581 66.7993C58.1414 66.7932 58.1231 66.7847 58.1269 66.7904L55.732 64.3992C56.6982 64.0068 57.6386 63.5537 58.5476 63.0426C59.0825 62.7256 59.4829 62.2237 59.6732 61.6317C59.8635 61.0398 59.8306 60.3986 59.5806 59.8292C59.2418 59.0792 58.4251 58.1788 56.4579 58.1476C55.9999 58.1401 55.3511 58.138 54.745 58.1608C54.9307 57.1059 54.8928 56.0239 54.6339 54.9846C54.3749 53.9453 53.9006 52.9719 53.2417 52.1276C53.076 51.9316 52.8393 51.8094 52.5836 51.7878C52.3279 51.7661 52.074 51.8469 51.8778 52.0123C51.6816 52.1777 51.559 52.4142 51.537 52.6699C51.515 52.9256 51.5954 53.1796 51.7606 53.376C52.4332 54.2573 52.8299 55.318 52.9007 56.4244C52.9715 57.5308 52.7133 58.6334 52.1585 59.5933C52.0316 59.8166 51.9985 60.0812 52.0667 60.3288C52.1349 60.5765 52.2986 60.7869 52.5219 60.9138C52.7452 61.0408 53.0098 61.0738 53.2575 61.0056C53.5051 60.9375 53.7156 60.7737 53.8425 60.5504C53.9196 60.4147 53.991 60.2799 54.0583 60.1458C54.8464 60.0825 55.6375 60.0621 56.4278 60.0846C57.5786 60.1026 57.7569 60.497 57.8148 60.6251C57.8645 60.7528 57.8705 60.8932 57.8321 61.0247C57.7936 61.1561 57.7128 61.2712 57.6023 61.352C55.717 62.4051 53.274 63.4422 51.8908 63.3051C51.1495 62.7239 47.9721 59.9248 46.9578 53.9695C46.8706 53.5293 46.6593 53.1232 46.3489 52.7991L39.9137 46.3738C39.8237 46.2837 39.7169 46.2122 39.5993 46.1634C39.4817 46.1146 39.3557 46.0894 39.2284 46.0894C39.101 46.0894 38.975 46.1145 38.8574 46.1632C38.7397 46.212 38.6329 46.2834 38.5429 46.3735C38.453 46.4636 38.3816 46.5706 38.3331 46.6882C38.2845 46.8059 38.2596 46.932 38.2598 47.0594C38.26 47.1867 38.2853 47.3127 38.3342 47.4302C38.3832 47.5477 38.4548 47.6545 38.5451 47.7443L44.9728 54.1615Z" fill="white"/>
<path d="M93.0274 83.83C92.997 83.7887 92.9717 83.7439 92.9519 83.6966C91.6574 76.0957 87.2142 73.0815 87.0256 72.9566C86.9206 72.8875 86.8032 72.8393 86.6799 72.8147C85.902 72.6936 85.1076 72.7326 84.3453 72.9294L81.2422 69.8312C80.877 69.4779 80.394 69.2724 79.8862 69.2543H79.8701C79.4004 69.2331 78.9316 69.3145 78.4965 69.4928C78.0614 69.671 77.6703 69.9419 77.3505 70.2866C76.9428 70.7665 76.6817 71.3535 76.5983 71.9777C75.6513 72.1256 74.7999 72.6388 74.227 73.4073C73.6998 74.1978 73.4703 75.1499 73.5793 76.0938C72.8038 76.532 72.2145 77.2378 71.9218 78.0791C71.6823 78.842 71.6712 79.6583 71.8899 80.4275C71.2852 80.6672 70.7813 81.1077 70.4629 81.675C70.2523 82.1203 70.1393 82.6054 70.1313 83.0979C70.1234 83.5904 70.2207 84.079 70.4168 84.5308C70.4653 84.6411 70.534 84.7413 70.6192 84.8264C70.6192 84.8264 73.0289 87.2258 73.0353 87.233C73.6376 87.9036 74.4665 88.328 75.3627 88.4247L79.4459 92.502C79.7813 92.8226 80.2089 93.0299 80.6684 93.0946L83.6829 93.4682C83.7182 93.4797 83.7525 93.4941 83.7855 93.5112L89.9878 99.7043C90.1699 99.884 90.4157 99.9844 90.6716 99.9834C90.9274 99.9825 91.1725 99.8804 91.3533 99.6993C91.534 99.5183 91.6358 99.2731 91.6364 99.0172C91.637 98.7614 91.5363 98.5157 91.3564 98.3339L85.1541 92.1407C84.8185 91.8203 84.391 91.6131 83.9316 91.5482L80.9162 91.1746C80.8812 91.163 80.8471 91.1486 80.8145 91.1316L77.2507 87.5729C77.9458 86.9936 78.3959 86.1726 78.5104 85.275C79.2413 85.1572 79.8967 84.7569 80.3354 84.1605C80.3463 84.1468 80.3567 84.1326 80.3666 84.118C81.0795 83.0823 81.3857 80.9921 79.3074 79.4793C79.0997 79.3282 78.8404 79.2657 78.5867 79.3057C78.333 79.3457 78.1055 79.4849 77.9544 79.6926C77.8033 79.9003 77.7408 80.1595 77.7808 80.4132C77.8208 80.667 77.96 80.8944 78.1677 81.0455C79.2988 81.8689 78.9796 82.6841 78.7815 83.0034C78.6423 83.1789 78.4491 83.3035 78.2319 83.3581C78.0146 83.4126 77.7855 83.3939 77.5799 83.3049L76.7963 82.5726C76.6086 82.3972 76.359 82.3035 76.1023 82.3121C75.8456 82.3208 75.6028 82.431 75.4274 82.6187C75.252 82.8063 75.1584 83.0559 75.167 83.3126C75.1756 83.5693 75.2859 83.8121 75.4735 83.9875C75.4735 83.9875 76.3269 84.7843 76.3406 84.7961C76.5837 84.999 76.583 85.1258 76.5827 85.1674C76.4831 85.5607 76.2532 85.9087 75.9306 86.1548C75.8854 86.1908 75.8435 86.2309 75.8055 86.2744C75.6149 86.4924 75.4915 86.4938 75.4388 86.4948C75.0653 86.4255 74.7267 86.2304 74.4795 85.942L72.141 83.6087C72.0276 83.283 72.0348 82.9274 72.1613 82.6066C72.3043 82.4351 72.4814 82.2953 72.6814 82.1958C72.8813 82.0964 73.0998 82.0397 73.3228 82.0292C73.477 82.0045 73.6229 81.943 73.7483 81.8499C73.8737 81.7568 73.9749 81.6349 74.0432 81.4945C74.1115 81.3541 74.145 81.1993 74.1408 81.0432C74.1366 80.8871 74.0949 80.7343 74.0191 80.5977C73.7039 80.0135 73.612 79.3346 73.7607 78.6877C73.8764 78.4139 74.0497 78.1683 74.2688 77.9674C74.4879 77.7666 74.7477 77.6153 75.0304 77.5239C75.2467 77.4313 75.4218 77.2632 75.5232 77.051C75.6246 76.8387 75.6453 76.5968 75.5814 76.3705C75.5783 76.3596 75.2953 75.244 75.8032 74.5332C76.1143 74.0972 76.7142 73.8518 77.586 73.8035C77.717 73.7951 77.845 73.7604 77.9622 73.7014C78.0795 73.6424 78.1837 73.5604 78.2685 73.4602C78.3534 73.3601 78.4171 73.2438 78.456 73.1184C78.4949 72.9931 78.5082 72.8611 78.4949 72.7305C78.4543 72.3148 78.5665 71.8986 78.8106 71.5596C78.9483 71.4312 79.1109 71.3323 79.2883 71.2691C79.4656 71.2059 79.6541 71.1797 79.842 71.1922C79.8585 71.1979 79.8758 71.2049 79.8732 71.2012L82.268 73.5922C81.3019 73.9848 80.3616 74.438 79.4525 74.9489C78.9176 75.266 78.5172 75.7678 78.3269 76.3598C78.1366 76.9518 78.1695 77.5929 78.4195 78.1623C78.7583 78.9123 79.575 79.8127 81.5423 79.8439C81.9995 79.8505 82.6488 79.8524 83.2554 79.8299C83.0695 80.8848 83.1073 81.9671 83.3662 83.0065C83.6251 84.046 84.0994 85.0194 84.7585 85.864C84.9242 86.0597 85.1608 86.1817 85.4164 86.2032C85.672 86.2247 85.9257 86.1439 86.1218 85.9786C86.3179 85.8133 86.4405 85.5769 86.4625 85.3214C86.4846 85.0659 86.4044 84.812 86.2396 84.6155C85.567 83.7342 85.1702 82.6735 85.0994 81.5671C85.0286 80.4607 85.2869 79.3581 85.8416 78.3983C85.9045 78.2877 85.9449 78.1658 85.9607 78.0396C85.9764 77.9134 85.9672 77.7853 85.9334 77.6627C85.8997 77.5401 85.8421 77.4253 85.764 77.3249C85.6859 77.2246 85.5888 77.1405 85.4782 77.0777C85.3677 77.0149 85.2458 76.9744 85.1196 76.9587C84.9934 76.9429 84.8653 76.9522 84.7427 76.9859C84.62 77.0197 84.5053 77.0772 84.4049 77.1553C84.3045 77.2334 84.2205 77.3306 84.1576 77.4411C84.0805 77.5768 84.0092 77.7116 83.9419 77.8457C83.1537 77.9093 82.3627 77.9297 81.5723 77.9069C80.4215 77.889 80.2432 77.4946 80.1853 77.3664C80.1357 77.2388 80.1296 77.0983 80.168 76.9668C80.2065 76.8354 80.2873 76.7203 80.3979 76.6395C82.2833 75.5864 84.7289 74.5559 86.1093 74.6865C86.8506 75.2677 90.028 78.0668 91.0424 84.022C91.1296 84.4622 91.3408 84.8683 91.6512 85.1924L98.0865 91.6177C98.1764 91.7078 98.2832 91.7794 98.4008 91.8281C98.5184 91.8769 98.6445 91.9021 98.7718 91.9021C98.8991 91.9021 99.0252 91.877 99.1428 91.8283C99.2604 91.7795 99.3672 91.7081 99.4572 91.618C99.5472 91.5279 99.6185 91.421 99.6671 91.3033C99.7157 91.1856 99.7406 91.0595 99.7404 90.9322C99.7402 90.8049 99.7149 90.6788 99.6659 90.5613C99.6169 90.4438 99.5453 90.3371 99.455 90.2473L93.0274 83.83Z" fill="white"/>
<circle cx="69" cy="69.168" r="53.126" stroke="white" stroke-width="1.83193" stroke-dasharray="4.58 4.58"/>
<circle cx="69.0002" cy="69.1682" r="67.3235" stroke="white" stroke-width="2.7479"/>
</svg>
